Involve-Bold.ufo
<glyph name="dollar" format="2">
  <advance width="560"/>
  <unicode hex="0024"/>
  <outline>
    <contour>
      <point x="223" y="-86" type="line"/>
      <point x="350" y="-86" type="line"/>
      <point x="350" y="46" type="line"/>
      <point x="442.689" y="71.913"/>
      <point x="497" y="147.653"/>
      <point x="497" y="251" type="curve" smooth="yes"/>
      <point x="497" y="356.473"/>
      <point x="458.612" y="404.278"/>
      <point x="338" y="449" type="curve" smooth="yes"/>
      <point x="247.268" y="482.643"/>
      <point x="224" y="503.054"/>
      <point x="224" y="549" type="curve" smooth="yes"/>
      <point x="224" y="586.983"/>
      <point x="247.984" y="613"/>
      <point x="283" y="613" type="curve" smooth="yes"/>
      <point x="316.968" y="613"/>
      <point x="339.992" y="591.038"/>
      <point x="348" y="551" type="curve"/>
      <point x="474" y="551" type="line"/>
      <point x="470.991" y="636.254"/>
      <point x="417.798" y="710.039"/>
      <point x="350" y="723" type="curve"/>
      <point x="350" y="856" type="line"/>
      <point x="223" y="856" type="line"/>
      <point x="223" y="723" type="line"/>
      <point x="141.026" y="705.006"/>
      <point x="91" y="636.03"/>
      <point x="91" y="541" type="curve" smooth="yes"/>
      <point x="91" y="451.652"/>
      <point x="135.986" y="388.88"/>
      <point x="220" y="361" type="curve" smooth="yes"/>
      <point x="324.031" y="326.477"/>
      <point x="364" y="290.641"/>
      <point x="364" y="231.891" type="curve" smooth="yes"/>
      <point x="364" y="190.994"/>
      <point x="329.866" y="163"/>
      <point x="280" y="163" type="curve" smooth="yes"/>
      <point x="231.616" y="163"/>
      <point x="198.976" y="196.417"/>
      <point x="196" y="249" type="curve"/>
      <point x="62" y="249" type="line"/>
      <point x="62" y="146.696"/>
      <point x="118.399" y="75.584"/>
      <point x="223" y="46" type="curve"/>
    </contour>
  </outline>
</glyph>
<glyph name="ampersand" format="2">
  <advance width="680"/>
  <unicode hex="0026"/>
  <outline>
    <contour>
      <point x="34" y="223" type="curve" smooth="yes"/>
      <point x="34" y="89.9108"/>
      <point x="139.091" y="-13"/>
      <point x="275" y="-13" type="curve" smooth="yes"/>
      <point x="354.135" y="-13"/>
      <point x="400.107" y="14.1432"/>
      <point x="463" y="98" type="curve"/>
      <point x="568" y="-13" type="line"/>
      <point x="663" y="73" type="line"/>
      <point x="531" y="214" type="line"/>
      <point x="659" y="433" type="line"/>
      <point x="510" y="433" type="line"/>
      <point x="438" y="314" type="line"/>
      <point x="371" y="389" type="line"/>
      <point x="456.275" y="442.858"/>
      <point x="487" y="490.799"/>
      <point x="487" y="570" type="curve" smooth="yes"/>
      <point x="487" y="674.408"/>
      <point x="405.571" y="752"/>
      <point x="296" y="752" type="curve" smooth="yes"/>
      <point x="191.156" y="752"/>
      <point x="110" y="672.153"/>
      <point x="110" y="569" type="curve" smooth="yes"/>
      <point x="110" y="516.355"/>
      <point x="123.674" y="486.36"/>
      <point x="172" y="433" type="curve"/>
      <point x="75.3258" y="376.191"/>
      <point x="34" y="313.304"/>
    </contour>
    <contour>
      <point x="288" y="481" type="curve"/>
      <point x="249.722" y="518.296"/>
      <point x="237" y="539.5"/>
      <point x="237" y="566" type="curve" smooth="yes"/>
      <point x="237" y="601.21"/>
      <point x="263.213" y="627"/>
      <point x="299" y="627" type="curve" smooth="yes"/>
      <point x="335" y="627"/>
      <point x="360" y="602"/>
      <point x="360" y="566" type="curve" smooth="yes"/>
      <point x="360" y="529.535"/>
      <point x="342.307" y="508.647"/>
    </contour>
    <contour>
      <point x="167" y="215" type="curve" smooth="yes"/>
      <point x="167" y="261.871"/>
      <point x="192.826" y="292.92"/>
      <point x="256" y="322" type="curve"/>
      <point x="371" y="198" type="line"/>
      <point x="335.597" y="137.309"/>
      <point x="311.494" y="119"/>
      <point x="267" y="119" type="curve" smooth="yes"/>
      <point x="208.833" y="119"/>
      <point x="167" y="159.16"/>
    </contour>
  </outline>
</glyph>
<glyph name="parenleft" format="2">
  <advance width="357"/>
  <unicode hex="0028"/>
  <outline>
    <contour>
      <point x="311" y="8" type="line"/>
      <point x="229.357" y="60.7691"/>
      <point x="171" y="182.486"/>
      <point x="171" y="300" type="curve" smooth="yes"/>
      <point x="171" y="421.375"/>
      <point x="220.28" y="525.216"/>
      <point x="311" y="595" type="curve"/>
      <point x="311" y="739" type="line"/>
      <point x="139.399" y="664.976"/>
      <point x="36" y="499.914"/>
      <point x="36" y="300" type="curve" smooth="yes"/>
      <point x="36" y="102.405"/>
      <point x="152.972" y="-83.4745"/>
      <point x="311" y="-137" type="curve"/>
    </contour>
  </outline>
</glyph>
<glyph name="comma" format="2">
  <advance width="233"/>
  <unicode hex="002C"/>
  <outline>
    <contour>
      <point x="50" y="0" type="line"/>
      <point x="108.5" y="0" type="line"/>
      <point x="108.5" y="-18" type="line" smooth="yes"/>
      <point x="108.5" y="-49.2436"/>
      <point x="91.6751" y="-65.0619"/>
      <point x="50" y="-73" type="curve"/>
      <point x="50" y="-140" type="line"/>
      <point x="132.996" y="-140"/>
      <point x="183" y="-89.9957"/>
      <point x="183" y="-7" type="curve" smooth="yes"/>
      <point x="183" y="128" type="line"/>
      <point x="50" y="128" type="line"/>
    </contour>
  </outline>
</glyph>
<glyph name="zero" format="2">
  <advance width="560"/>
  <unicode hex="0030"/>
  <anchor x="280" y="805" name="Anchor-0"/>
  <outline>
    <contour>
      <point x="36" y="247" type="line" smooth="yes"/>
      <point x="36" y="85.3618"/>
      <point x="132.092" y="-13"/>
      <point x="290" y="-13" type="curve" smooth="yes"/>
      <point x="442.008" y="-13"/>
      <point x="531" y="83.0083"/>
      <point x="531" y="247" type="curve" smooth="yes"/>
      <point x="531" y="505" type="line" smooth="yes"/>
      <point x="531" y="655"/>
      <point x="434" y="752"/>
      <point x="284" y="752" type="curve" smooth="yes"/>
      <point x="131.843" y="752"/>
      <point x="36" y="653.839"/>
      <point x="36" y="498" type="curve" smooth="yes"/>
    </contour>
    <contour>
      <point x="169" y="251" type="curve" smooth="yes"/>
      <point x="169" y="498" type="line" smooth="yes"/>
      <point x="169" y="579.966"/>
      <point x="212.97" y="630"/>
      <point x="285" y="630" type="curve" smooth="yes"/>
      <point x="357.383" y="630"/>
      <point x="398" y="582.553"/>
      <point x="398" y="498" type="curve" smooth="yes"/>
      <point x="398" y="248" type="line" smooth="yes"/>
      <point x="398" y="154.96"/>
      <point x="360.968" y="109"/>
      <point x="286" y="109" type="curve" smooth="yes"/>
      <point x="210.099" y="109"/>
      <point x="169" y="158.88"/>
    </contour>
  </outline>
</glyph>
<glyph name="two" format="2">
  <advance width="560"/>
  <unicode hex="0032"/>
  <anchor x="280" y="805" name="Anchor-0"/>
  <outline>
    <contour>
      <point x="41" y="0" type="line"/>
      <point x="519" y="0" type="line"/>
      <point x="519" y="125" type="line"/>
      <point x="228" y="125" type="line"/>
      <point x="379" y="262" type="line" smooth="yes"/>
      <point x="487.108" y="360.084"/>
      <point x="522" y="421.085"/>
      <point x="522" y="512" type="curve" smooth="yes"/>
      <point x="522" y="649.214"/>
      <point x="418.785" y="752"/>
      <point x="281" y="752" type="curve" smooth="yes"/>
      <point x="131.033" y="752"/>
      <point x="36" y="648.045"/>
      <point x="36" y="484" type="curve"/>
      <point x="167" y="484" type="line"/>
      <point x="167" y="571.8"/>
      <point x="212.842" y="630"/>
      <point x="282" y="630" type="curve" smooth="yes"/>
      <point x="342.94" y="630"/>
      <point x="389" y="580.065"/>
      <point x="389" y="514" type="curve" smooth="yes"/>
      <point x="389" y="465.913"/>
      <point x="364.532" y="423.31"/>
      <point x="304" y="366" type="curve" smooth="yes"/>
      <point x="41" y="117" type="line"/>
    </contour>
  </outline>
</glyph>
<glyph name="three" format="2">
  <advance width="560"/>
  <unicode hex="0033"/>
  <anchor x="280" y="805" name="Anchor-0"/>
  <outline>
    <contour>
      <point x="22" y="224" type="line"/>
      <point x="30.0125" y="84.7825"/>
      <point x="135.222" y="-13"/>
      <point x="277" y="-13" type="curve" smooth="yes"/>
      <point x="420" y="-13"/>
      <point x="525" y="92"/>
      <point x="525" y="235" type="curve" smooth="yes"/>
      <point x="525" y="327.943"/>
      <point x="487.047" y="390.979"/>
      <point x="410" y="426" type="curve"/>
      <point x="452.97" y="456.978"/>
      <point x="472" y="495.96"/>
      <point x="472" y="553" type="curve" smooth="yes"/>
      <point x="472" y="667"/>
      <point x="387" y="752"/>
      <point x="273" y="752" type="curve" smooth="yes"/>
      <point x="161.027" y="752"/>
      <point x="86.4418" y="680.079"/>
      <point x="77" y="563" type="curve"/>
      <point x="212" y="563" type="line"/>
      <point x="218.036" y="609.272"/>
      <point x="237.216" y="630"/>
      <point x="274" y="630" type="curve" smooth="yes"/>
      <point x="312.036" y="630"/>
      <point x="339" y="600.962"/>
      <point x="339" y="560" type="curve" smooth="yes"/>
      <point x="339" y="511.006"/>
      <point x="302.377" y="484.175"/>
      <point x="235.506" y="484.175" type="curve" smooth="yes"/>
      <point x="225" y="484.175" type="line"/>
      <point x="225" y="356" type="line"/>
      <point x="247" y="356" type="line" smooth="yes"/>
      <point x="335.351" y="356"/>
      <point x="392" y="307.555"/>
      <point x="392" y="232" type="curve" smooth="yes"/>
      <point x="392" y="160.978"/>
      <point x="342.98" y="109"/>
      <point x="276" y="109" type="curve" smooth="yes"/>
      <point x="211.478" y="109"/>
      <point x="165.067" y="153.477"/>
      <point x="156" y="224" type="curve"/>
    </contour>
  </outline>
</glyph>
<glyph name="five" format="2">
  <advance width="560"/>
  <unicode hex="0035"/>
  <anchor x="280" y="805" name="Anchor-0"/>
  <outline>
    <contour>
      <point x="21" y="221" type="line"/>
      <point x="27.973" y="88.5129"/>
      <point x="139.464" y="-13"/>
      <point x="278" y="-13" type="curve" smooth="yes"/>
      <point x="421.921" y="-13"/>
      <point x="529" y="97.9183"/>
      <point x="529" y="247" type="curve" smooth="yes"/>
      <point x="529" y="392.192"/>
      <point x="429.821" y="499"/>
      <point x="295" y="499" type="curve" smooth="yes"/>
      <point x="260.81" y="499"/>
      <point x="237.789" y="493.911"/>
      <point x="200" y="478" type="curve"/>
      <point x="224" y="614" type="line"/>
      <point x="458" y="614" type="line"/>
      <point x="458" y="739" type="line"/>
      <point x="124" y="739" type="line"/>
      <point x="55" y="353" type="line"/>
      <point x="173" y="321" type="line"/>
      <point x="205.84" y="361.801"/>
      <point x="233.795" y="377"/>
      <point x="276" y="377" type="curve" smooth="yes"/>
      <point x="344.591" y="377"/>
      <point x="396" y="320.45"/>
      <point x="396" y="245" type="curve" smooth="yes"/>
      <point x="396" y="164.869"/>
      <point x="345.882" y="109"/>
      <point x="274" y="109" type="curve" smooth="yes"/>
      <point x="210.429" y="109"/>
      <point x="168.095" y="148.511"/>
      <point x="154" y="221" type="curve"/>
    </contour>
  </outline>
</glyph>
<glyph name="six" format="2">
  <advance width="560"/>
  <unicode hex="0036"/>
  <anchor x="280" y="805" name="Anchor-0"/>
  <outline>
    <contour>
      <point x="290" y="739" type="line"/>
      <point x="97" y="449" type="line" smooth="yes"/>
      <point x="43.2508" y="368.237"/>
      <point x="24" y="313.649"/>
      <point x="24" y="242" type="curve" smooth="yes"/>
      <point x="24" y="95.1506"/>
      <point x="133.847" y="-13"/>
      <point x="283" y="-13" type="curve" smooth="yes"/>
      <point x="430.991" y="-13"/>
      <point x="536" y="96.9901"/>
      <point x="536" y="252" type="curve" smooth="yes"/>
      <point x="536" y="387.676"/>
      <point x="450.282" y="486"/>
      <point x="332" y="486" type="curve" smooth="yes"/>
      <point x="307.5" y="486"/>
      <point x="294.54" y="483.84"/>
      <point x="272" y="476" type="curve"/>
      <point x="449" y="739" type="line"/>
    </contour>
    <contour>
      <point x="284" y="109" type="curve" smooth="yes"/>
      <point x="209.377" y="109"/>
      <point x="157" y="162.614"/>
      <point x="157" y="239" type="curve" smooth="yes"/>
      <point x="157" y="315.208"/>
      <point x="207.191" y="370"/>
      <point x="277" y="370" type="curve" smooth="yes"/>
      <point x="351.531" y="370"/>
      <point x="403" y="316.488"/>
      <point x="403" y="239" type="curve" smooth="yes"/>
      <point x="403" y="162.265"/>
      <point x="354.242" y="109"/>
    </contour>
  </outline>
</glyph>
<glyph name="eight" format="2">
  <advance width="560"/>
  <unicode hex="0038"/>
  <anchor x="280" y="805" name="Anchor-0"/>
  <outline>
    <contour>
      <point x="34" y="231" type="curve" smooth="yes"/>
      <point x="34" y="92.8502"/>
      <point x="141.152" y="-13"/>
      <point x="281" y="-13" type="curve" smooth="yes"/>
      <point x="421" y="-13"/>
      <point x="526" y="92"/>
      <point x="526" y="232" type="curve" smooth="yes"/>
      <point x="526" y="315.791"/>
      <point x="496.737" y="366.158"/>
      <point x="422" y="411" type="curve"/>
      <point x="464.626" y="444.704"/>
      <point x="484" y="488.452"/>
      <point x="484" y="551" type="curve" smooth="yes"/>
      <point x="484" y="666.213"/>
      <point x="397.786" y="752"/>
      <point x="282" y="752" type="curve" smooth="yes"/>
      <point x="169" y="752"/>
      <point x="79" y="662"/>
      <point x="79" y="549" type="curve" smooth="yes"/>
      <point x="79" y="493.967"/>
      <point x="94.0274" y="459.971"/>
      <point x="140" y="411" type="curve"/>
      <point x="67.9575" y="370.741"/>
      <point x="34" y="313.077"/>
    </contour>
    <contour>
      <point x="282" y="469" type="curve" smooth="yes"/>
      <point x="239.625" y="469"/>
      <point x="206" y="504.395"/>
      <point x="206" y="549" type="curve" smooth="yes"/>
      <point x="206" y="594.18"/>
      <point x="239.167" y="630"/>
      <point x="281" y="630" type="curve" smooth="yes"/>
      <point x="324.146" y="630"/>
      <point x="357" y="595.849"/>
      <point x="357" y="551" type="curve" smooth="yes"/>
      <point x="357" y="505.04"/>
      <point x="324.037" y="469"/>
    </contour>
    <contour>
      <point x="167" y="225" type="curve" smooth="yes"/>
      <point x="167" y="289.107"/>
      <point x="217.103" y="341"/>
      <point x="279" y="341" type="curve" smooth="yes"/>
      <point x="343.217" y="341"/>
      <point x="393" y="290.781"/>
      <point x="393" y="226" type="curve" smooth="yes"/>
      <point x="393" y="159.297"/>
      <point x="345.282" y="109"/>
      <point x="282" y="109" type="curve" smooth="yes"/>
      <point x="217.28" y="109"/>
      <point x="167" y="159.717"/>
    </contour>
  </outline>
</glyph>
<glyph name="nine" format="2">
  <advance width="560"/>
  <unicode hex="0039"/>
  <anchor x="280" y="805" name="Anchor-0"/>
  <outline>
    <contour>
      <point x="110" y="0" type="line"/>
      <point x="269" y="0" type="line"/>
      <point x="462" y="290" type="line" smooth="yes"/>
      <point x="515.494" y="370.379"/>
      <point x="535" y="425.424"/>
      <point x="535" y="496" type="curve" smooth="yes"/>
      <point x="535" y="643.137"/>
      <point x="424.861" y="752"/>
      <point x="276" y="752" type="curve" smooth="yes"/>
      <point x="129.094" y="752"/>
      <point x="25" y="642.1"/>
      <point x="25" y="487" type="curve" smooth="yes"/>
      <point x="25" y="352.571"/>
      <point x="112.369" y="251"/>
      <point x="228" y="251" type="curve" smooth="yes"/>
      <point x="250" y="251"/>
      <point x="262.857" y="253.571"/>
      <point x="288" y="263" type="curve"/>
    </contour>
    <contour>
      <point x="281" y="369" type="curve" smooth="yes"/>
      <point x="208.851" y="369"/>
      <point x="158" y="423.159"/>
      <point x="158" y="500" type="curve" smooth="yes"/>
      <point x="158" y="576.103"/>
      <point x="206.092" y="630"/>
      <point x="274" y="630" type="curve" smooth="yes"/>
      <point x="349.908" y="630"/>
      <point x="402" y="577.094"/>
      <point x="402" y="500" type="curve" smooth="yes"/>
      <point x="402" y="423.607"/>
      <point x="351.561" y="369"/>
    </contour>
  </outline>
</glyph>
<glyph name="semicolon" format="2">
  <advance width="281"/>
  <unicode hex="003B"/>
  <outline>
    <contour>
      <point x="74" y="0" type="line"/>
      <point x="133" y="0" type="line"/>
      <point x="133" y="-15" type="line" smooth="yes"/>
      <point x="133" y="-49.1356"/>
      <point x="116.83" y="-65.0317"/>
      <point x="74" y="-73" type="curve"/>
      <point x="74" y="-140" type="line"/>
      <point x="156.237" y="-140"/>
      <point x="207" y="-89.2367"/>
      <point x="207" y="-7" type="curve" smooth="yes"/>
      <point x="207" y="128" type="line"/>
      <point x="74" y="128" type="line"/>
    </contour>
    <contour>
      <point x="74" y="369" type="line"/>
      <point x="207" y="369" type="line"/>
      <point x="207" y="502" type="line"/>
      <point x="74" y="502" type="line"/>
    </contour>
  </outline>
</glyph>
<glyph name="at" format="2">
  <advance width="878"/>
  <unicode hex="0040"/>
  <outline>
    <contour>
      <point x="615" y="107" type="line"/>
      <point x="570.233" y="74.1708"/>
      <point x="525.309" y="60"/>
      <point x="466" y="60" type="curve" smooth="yes"/>
      <point x="275.094" y="60"/>
      <point x="139" y="191.1"/>
      <point x="139" y="375" type="curve" smooth="yes"/>
      <point x="139" y="558.364"/>
      <point x="273.361" y="694"/>
      <point x="455" y="694" type="curve" smooth="yes"/>
      <point x="622.797" y="694"/>
      <point x="737" y="580.202"/>
      <point x="737" y="413" type="curve" smooth="yes"/>
      <point x="737" y="324.025"/>
      <point x="696.723" y="260.989"/>
      <point x="639.873" y="260.989" type="curve" smooth="yes"/>
      <point x="619.014" y="260.989"/>
      <point x="608.067" y="270.626"/>
      <point x="608.067" y="288.989" type="curve" smooth="yes"/>
      <point x="608.067" y="306.17"/>
      <point x="609.012" y="322.948"/>
      <point x="610.603" y="334" type="curve" smooth="yes"/>
      <point x="645" y="573" type="line"/>
      <point x="540" y="573" type="line"/>
      <point x="533" y="519" type="line"/>
      <point x="500.146" y="561.809"/>
      <point x="469.241" y="577"/>
      <point x="415" y="577" type="curve" smooth="yes"/>
      <point x="299.348" y="577"/>
      <point x="213" y="477.401"/>
      <point x="213" y="344" type="curve" smooth="yes"/>
      <point x="213" y="227.848"/>
      <point x="277.132" y="154"/>
      <point x="378" y="154" type="curve" smooth="yes"/>
      <point x="432.87" y="154"/>
      <point x="482.799" y="176.881"/>
      <point x="507.409" y="213.304" type="curve"/>
      <point x="520.264" y="177.705"/>
      <point x="564.52" y="154"/>
      <point x="618.124" y="154" type="curve" smooth="yes"/>
      <point x="763.342" y="154"/>
      <point x="850" y="245.641"/>
      <point x="850" y="399.21" type="curve" smooth="yes"/>
      <point x="850" y="644.387"/>
      <point x="697.234" y="797.995"/>
      <point x="453.402" y="797.995" type="curve" smooth="yes"/>
      <point x="208.939" y="797.995"/>
      <point x="28" y="618.953"/>
      <point x="28" y="377.054" type="curve" smooth="yes"/>
      <point x="28" y="130.696"/>
      <point x="210.013" y="-43.9946"/>
      <point x="466.695" y="-43.9946" type="curve" smooth="yes"/>
      <point x="557.05" y="-43.9946"/>
      <point x="629.531" y="-21.961"/>
      <point x="680.5" y="21" type="curve"/>
    </contour>
    <contour>
      <point x="412" y="260" type="curve" smooth="yes"/>
      <point x="362.968" y="260"/>
      <point x="333" y="296.038"/>
      <point x="333" y="355" type="curve" smooth="yes"/>
      <point x="333" y="414.95"/>
      <point x="378.955" y="465"/>
      <point x="434" y="465" type="curve" smooth="yes"/>
      <point x="483.038" y="465"/>
      <point x="511" y="431.955"/>
      <point x="511" y="374" type="curve" smooth="yes"/>
      <point x="511" y="307.106"/>
      <point x="470.092" y="260"/>
    </contour>
  </outline>
  <guideline angle="127.476" x="661" y="47"/>
  <guideline angle="0" x="0" y="154"/>
</glyph>
<glyph name="B" format="2">
  <advance width="587"/>
  <unicode hex="0042"/>
  <anchor x="281" y="805" name="Anchor-0"/>
  <outline>
    <contour>
      <point x="71" y="0" type="line"/>
      <point x="268" y="0" type="line" smooth="yes"/>
      <point x="447.886" y="0"/>
      <point x="551" y="80.1593"/>
      <point x="551" y="220" type="curve" smooth="yes"/>
      <point x="551" y="313.309"/>
      <point x="514.358" y="366.527"/>
      <point x="425" y="403" type="curve"/>
      <point x="484.422" y="434.222"/>
      <point x="507" y="472.494"/>
      <point x="507" y="542" type="curve" smooth="yes"/>
      <point x="507" y="676.562"/>
      <point x="416.987" y="739"/>
      <point x="223" y="739" type="curve" smooth="yes"/>
      <point x="71" y="739" type="line"/>
    </contour>
    <contour>
      <point x="208" y="131" type="line"/>
      <point x="208" y="320" type="line"/>
      <point x="317.207" y="320" type="line" smooth="yes"/>
      <point x="375.006" y="320"/>
      <point x="413" y="281.924"/>
      <point x="413" y="224" type="curve" smooth="yes"/>
      <point x="413" y="158.916"/>
      <point x="371.876" y="131"/>
      <point x="276" y="131" type="curve" smooth="yes"/>
    </contour>
    <contour>
      <point x="208" y="454" type="line"/>
      <point x="208" y="605" type="line"/>
      <point x="264" y="605" type="line" smooth="yes"/>
      <point x="335.54" y="605"/>
      <point x="370" y="580.618"/>
      <point x="370" y="530" type="curve" smooth="yes"/>
      <point x="370" y="482.506"/>
      <point x="342.322" y="454"/>
      <point x="296.207" y="454" type="curve" smooth="yes"/>
    </contour>
  </outline>
</glyph>
<glyph name="F" format="2">
  <advance width="495"/>
  <unicode hex="0046"/>
  <anchor x="259" y="805" name="Anchor-0"/>
  <outline>
    <contour>
      <point x="71" y="0" type="line"/>
      <point x="208" y="0" type="line"/>
      <point x="208" y="303" type="line"/>
      <point x="436" y="303" type="line"/>
      <point x="436" y="434" type="line"/>
      <point x="208" y="434" type="line"/>
      <point x="208" y="608" type="line"/>
      <point x="447" y="608" type="line"/>
      <point x="447" y="739" type="line"/>
      <point x="71" y="739" type="line"/>
    </contour>
  </outline>
</glyph>
<glyph name="J" format="2">
  <advance width="494"/>
  <unicode hex="004A"/>
  <anchor x="354" y="805" name="Anchor-0"/>
  <outline>
    <contour>
      <point x="18" y="175" type="line"/>
      <point x="28.2" y="58.7204"/>
      <point x="106.406" y="-13"/>
      <point x="223" y="-13" type="curve" smooth="yes"/>
      <point x="346.778" y="-13"/>
      <point x="423" y="72.75"/>
      <point x="423" y="212" type="curve" smooth="yes"/>
      <point x="423" y="739" type="line"/>
      <point x="286" y="739" type="line"/>
      <point x="286" y="216" type="line" smooth="yes"/>
      <point x="286" y="151.167"/>
      <point x="264.113" y="119"/>
      <point x="220" y="119" type="curve" smooth="yes"/>
      <point x="186.027" y="119"/>
      <point x="164.007" y="137.971"/>
      <point x="155" y="175" type="curve"/>
    </contour>
  </outline>
</glyph>
<glyph name="K" format="2">
  <advance width="614"/>
  <unicode hex="004B"/>
  <anchor x="323" y="805" name="Anchor-0"/>
  <outline>
    <contour>
      <point x="71" y="0" type="line"/>
      <point x="208" y="0" type="line"/>
      <point x="208" y="236.342" type="line"/>
      <point x="240.819" y="278.867" type="line"/>
      <point x="437" y="0" type="line"/>
      <point x="602" y="0" type="line"/>
      <point x="324" y="376" type="line"/>
      <point x="602" y="739" type="line"/>
      <point x="437" y="739" type="line"/>
      <point x="208" y="420" type="line"/>
      <point x="208" y="739" type="line"/>
      <point x="71" y="739" type="line"/>
    </contour>
  </outline>
  <guideline angle="52.5537" x="324" y="376"/>
  <guideline angle="90" x="208" y="0"/>
  <guideline angle="305.169" x="208" y="325"/>
</glyph>
<glyph name="L" format="2">
  <advance width="454"/>
  <unicode hex="004C"/>
  <anchor x="139" y="805" name="Anchor-0"/>
  <outline>
    <contour>
      <point x="71" y="0" type="line"/>
      <point x="434" y="0" type="line"/>
      <point x="434" y="131" type="line"/>
      <point x="208" y="131" type="line"/>
      <point x="208" y="739" type="line"/>
      <point x="71" y="739" type="line"/>
    </contour>
  </outline>
</glyph>
<glyph name="O" format="2">
  <advance width="842"/>
  <unicode hex="004F"/>
  <anchor x="421" y="805" name="Anchor-0"/>
  <outline>
    <contour>
      <point x="36" y="369" type="curve" smooth="yes"/>
      <point x="36" y="155.452"/>
      <point x="207.539" y="-13"/>
      <point x="425" y="-13" type="curve" smooth="yes"/>
      <point x="639.936" y="-13"/>
      <point x="806" y="153.936"/>
      <point x="806" y="370" type="curve" smooth="yes"/>
      <point x="806" y="581.331"/>
      <point x="636.671" y="752"/>
      <point x="427" y="752" type="curve" smooth="yes"/>
      <point x="206.244" y="752"/>
      <point x="36" y="585.239"/>
    </contour>
    <contour>
      <point x="174" y="370" type="curve" smooth="yes"/>
      <point x="174" y="508.66"/>
      <point x="282.668" y="620"/>
      <point x="418" y="620" type="curve" smooth="yes"/>
      <point x="561.925" y="620"/>
      <point x="668" y="513.076"/>
      <point x="668" y="368" type="curve" smooth="yes"/>
      <point x="668" y="225.066"/>
      <point x="564.064" y="119"/>
      <point x="424" y="119" type="curve" smooth="yes"/>
      <point x="283.781" y="119"/>
      <point x="174" y="229.22"/>
    </contour>
  </outline>
</glyph>
<glyph name="P" format="2">
  <advance width="573"/>
  <unicode hex="0050"/>
  <anchor x="287" y="805" name="Anchor-0"/>
  <outline>
    <contour>
      <point x="71" y="0" type="line"/>
      <point x="208" y="0" type="line"/>
      <point x="208" y="281" type="line"/>
      <point x="252" y="281" type="line" smooth="yes"/>
      <point x="352.753" y="281"/>
      <point x="400.098" y="288.555"/>
      <point x="440" y="311" type="curve" smooth="yes"/>
      <point x="503.901" y="346.945"/>
      <point x="543" y="422.864"/>
      <point x="543" y="511" type="curve" smooth="yes"/>
      <point x="543" y="594.309"/>
      <point x="509.155" y="662.72"/>
      <point x="449" y="701" type="curve" smooth="yes"/>
      <point x="404.71" y="729.185"/>
      <point x="354.342" y="739"/>
      <point x="254" y="739" type="curve" smooth="yes"/>
      <point x="71" y="739" type="line"/>
    </contour>
    <contour>
      <point x="208" y="412" type="line"/>
      <point x="208" y="608" type="line"/>
      <point x="254" y="608" type="line" smooth="yes"/>
      <point x="297.071" y="608"/>
      <point x="319.016" y="606.234"/>
      <point x="341" y="601" type="curve"/>
      <point x="380.947" y="590.015"/>
      <point x="405" y="555.063"/>
      <point x="405" y="508" type="curve" smooth="yes"/>
      <point x="405" y="465.881"/>
      <point x="380.89" y="432.969"/>
      <point x="342" y="422" type="curve"/>
      <point x="320.954" y="415.304"/>
      <point x="289.9" y="412"/>
      <point x="248" y="412" type="curve" smooth="yes"/>
    </contour>
  </outline>
</glyph>
<glyph name="Q" format="2">
  <advance width="864"/>
  <unicode hex="0051"/>
  <anchor x="428" y="805" name="Anchor-0"/>
  <outline>
    <contour>
      <point x="36" y="370" type="curve" smooth="yes"/>
      <point x="36" y="156.027"/>
      <point x="212.971" y="-13"/>
      <point x="437" y="-13" type="curve" smooth="yes"/>
      <point x="510.81" y="-13"/>
      <point x="587.863" y="8.90726"/>
      <point x="641" y="45" type="curve"/>
      <point x="704.664" y="1.547"/>
      <point x="752.65" y="-15"/>
      <point x="815" y="-15" type="curve" smooth="yes"/>
      <point x="819" y="-15"/>
      <point x="826" y="-15"/>
      <point x="834" y="-14" type="curve"/>
      <point x="834" y="110" type="line"/>
      <point x="824.551" y="107.926"/>
      <point x="815.906" y="107"/>
      <point x="806" y="107" type="curve" smooth="yes"/>
      <point x="782.591" y="107"/>
      <point x="763.803" y="112.586"/>
      <point x="732" y="129" type="curve"/>
      <point x="792.38" y="192.399"/>
      <point x="821" y="268.612"/>
      <point x="821" y="366" type="curve" smooth="yes"/>
      <point x="821" y="587.278"/>
      <point x="653.718" y="752"/>
      <point x="429" y="752" type="curve" smooth="yes"/>
      <point x="207.904" y="752"/>
      <point x="36" y="584.907"/>
    </contour>
    <contour>
      <point x="217" y="227" type="curve"/>
      <point x="249.916" y="233.371"/>
      <point x="264.375" y="235"/>
      <point x="288" y="235" type="curve" smooth="yes"/>
      <point x="369.794" y="235"/>
      <point x="439.827" y="206.337"/>
      <point x="525" y="138" type="curve"/>
      <point x="494.499" y="123.241"/>
      <point x="474.632" y="119"/>
      <point x="436" y="119" type="curve" smooth="yes"/>
      <point x="342.972" y="119"/>
      <point x="273.983" y="153.022"/>
    </contour>
    <contour>
      <point x="175" y="334" type="curve"/>
      <point x="173.471" y="347"/>
      <point x="173" y="355"/>
      <point x="173" y="368" type="curve" smooth="yes"/>
      <point x="173" y="512.141"/>
      <point x="282.143" y="620"/>
      <point x="428" y="620" type="curve" smooth="yes"/>
      <point x="574.213" y="620"/>
      <point x="683" y="510.786"/>
      <point x="683" y="364" type="curve" smooth="yes"/>
      <point x="683" y="297.667"/>
      <point x="663.406" y="245.416"/>
      <point x="623" y="204" type="curve"/>
      <point x="532.952" y="293.048"/>
      <point x="406.937" y="347"/>
      <point x="289" y="347" type="curve" smooth="yes"/>
      <point x="244.538" y="347"/>
      <point x="210.429" y="343.11"/>
    </contour>
  </outline>
</glyph>
<glyph name="R" format="2">
  <advance width="604"/>
  <unicode hex="0052"/>
  <anchor x="290" y="805" name="Anchor-0"/>
  <outline>
    <contour>
      <point x="71" y="0" type="line"/>
      <point x="208" y="0" type="line"/>
      <point x="208" y="608" type="line"/>
      <point x="269" y="608" type="line" smooth="yes"/>
      <point x="379.674" y="608"/>
      <point x="426" y="575.542"/>
      <point x="426" y="498" type="curve" smooth="yes"/>
      <point x="426" y="419.689"/>
      <point x="380.58" y="386"/>
      <point x="275" y="386" type="curve" smooth="yes"/>
      <point x="137.392" y="386" type="line"/>
      <point x="402" y="0" type="line"/>
      <point x="571" y="0" type="line"/>
      <point x="371" y="273" type="line"/>
      <point x="499.447" y="305.696"/>
      <point x="564" y="382.29"/>
      <point x="564" y="502" type="curve" smooth="yes"/>
      <point x="564" y="657.218"/>
      <point x="467.379" y="739"/>
      <point x="284" y="739" type="curve" smooth="yes"/>
      <point x="71" y="739" type="line"/>
    </contour>
  </outline>
</glyph>
<glyph name="bracketright" format="2">
  <advance width="313"/>
  <unicode hex="005D"/>
  <outline>
    <contour>
      <point x="37" y="-137" type="line"/>
      <point x="186.111" y="-94.3969"/>
      <point x="255" y="-1.80752"/>
      <point x="255" y="156" type="curve" smooth="yes"/>
      <point x="255" y="415" type="line" smooth="yes"/>
      <point x="255" y="598.804"/>
      <point x="182.412" y="706.686"/>
      <point x="37" y="739" type="curve"/>
      <point x="37" y="592" type="line"/>
      <point x="96.1058" y="568.358"/>
      <point x="120" y="524.024"/>
      <point x="120" y="438" type="curve" smooth="yes"/>
      <point x="120" y="183" type="line" smooth="yes"/>
      <point x="120" y="80.4843"/>
      <point x="98.4724" y="35.6135"/>
      <point x="37" y="10" type="curve"/>
    </contour>
  </outline>
</glyph>
<glyph name="asciicircum" format="2">
  <advance width="600"/>
  <unicode hex="005E"/>
  <outline>
    <contour>
      <point x="37.3661" y="313.456" type="line"/>
      <point x="164" y="313" type="line"/>
      <point x="300" y="589" type="line"/>
      <point x="436" y="313" type="line"/>
      <point x="563.803" y="313" type="line"/>
      <point x="361" y="739" type="line"/>
      <point x="239" y="739" type="line"/>
    </contour>
  </outline>
  <guideline angle="244.543" x="239" y="739"/>
  <guideline angle="63.7681" x="164" y="313"/>
  <guideline angle="296.232" x="300" y="589"/>
  <guideline angle="115.457" x="540" y="363"/>
  <guideline angle="0" x="0" y="313"/>
</glyph>
<glyph name="e" format="2">
  <advance width="634"/>
  <unicode hex="0065"/>
  <anchor x="324" y="630" name="Anchor-0"/>
  <outline>
    <contour>
      <point x="447" y="164" type="line"/>
      <point x="412.915" y="123.9"/>
      <point x="379.864" y="109"/>
      <point x="325" y="109" type="curve" smooth="yes"/>
      <point x="246.477" y="109"/>
      <point x="188.098" y="150.59"/>
      <point x="172" y="218" type="curve"/>
      <point x="601" y="218" type="line"/>
      <point x="604.835" y="236.216"/>
      <point x="606" y="248.1"/>
      <point x="606" y="269" type="curve" smooth="yes"/>
      <point x="606" y="440.962"/>
      <point x="485.037" y="567"/>
      <point x="320" y="567" type="curve" smooth="yes"/>
      <point x="157" y="567"/>
      <point x="28" y="438"/>
      <point x="28" y="275" type="curve" smooth="yes"/>
      <point x="28" y="112.88"/>
      <point x="159.125" y="-13"/>
      <point x="328" y="-13" type="curve" smooth="yes"/>
      <point x="449.534" y="-13"/>
      <point x="558.614" y="60.1331"/>
      <point x="592" y="164" type="curve"/>
    </contour>
    <contour>
      <point x="168" y="335" type="line"/>
      <point x="188.895" y="406.639"/>
      <point x="242.6" y="445"/>
      <point x="322" y="445" type="curve" smooth="yes"/>
      <point x="403.877" y="445"/>
      <point x="457.974" y="406.107"/>
      <point x="475" y="335" type="curve"/>
    </contour>
  </outline>
</glyph>
<glyph name="f" format="2">
  <advance width="294"/>
  <unicode hex="0066"/>
  <anchor x="171" y="805" name="Anchor-0"/>
  <outline>
    <contour>
      <point x="68" y="0" type="line"/>
      <point x="201" y="0" type="line"/>
      <point x="201" y="433" type="line"/>
      <point x="276" y="433" type="line"/>
      <point x="276" y="544" type="line"/>
      <point x="201" y="544" type="line"/>
      <point x="202.005" y="594.251"/>
      <point x="219.254" y="611"/>
      <point x="270" y="611" type="curve" smooth="yes"/>
      <point x="284" y="611" type="line"/>
      <point x="284" y="737" type="line"/>
      <point x="268" y="739"/>
      <point x="260" y="739"/>
      <point x="251" y="739" type="curve" smooth="yes"/>
      <point x="142.41" y="739"/>
      <point x="80.5498" y="673.083"/>
      <point x="68" y="544" type="curve"/>
      <point x="20" y="544" type="line"/>
      <point x="20" y="433" type="line"/>
      <point x="68" y="433" type="line"/>
    </contour>
  </outline>
</glyph>
<glyph name="g" format="2">
  <advance width="663"/>
  <unicode hex="0067"/>
  <anchor x="347" y="630" name="Anchor-0"/>
  <outline>
    <contour>
      <point x="37" y="-45" type="line"/>
      <point x="82.2097" y="-156.517"/>
      <point x="186.628" y="-221"/>
      <point x="322" y="-221" type="curve" smooth="yes"/>
      <point x="511.235" y="-221"/>
      <point x="609" y="-109.95"/>
      <point x="609" y="105" type="curve" smooth="yes"/>
      <point x="609" y="554" type="line"/>
      <point x="482" y="554" type="line"/>
      <point x="482" y="484" type="line"/>
      <point x="440.032" y="539.958"/>
      <point x="381.06" y="567"/>
      <point x="301" y="567" type="curve" smooth="yes"/>
      <point x="144.227" y="567"/>
      <point x="28" y="445.238"/>
      <point x="28" y="281" type="curve" smooth="yes"/>
      <point x="28" y="110.11"/>
      <point x="141.898" y="-13"/>
      <point x="300" y="-13" type="curve" smooth="yes"/>
      <point x="377.522" y="-13"/>
      <point x="429.607" y="11.6212"/>
      <point x="481.93" y="73" type="curve"/>
      <point x="481.93" y="55.0752" type="line" smooth="yes"/>
      <point x="481.93" y="-46.7794"/>
      <point x="426.2" y="-104"/>
      <point x="327" y="-104" type="curve" smooth="yes"/>
      <point x="264.847" y="-104"/>
      <point x="226.905" y="-87.8947"/>
      <point x="188" y="-45" type="curve"/>
    </contour>
    <contour>
      <point x="318" y="109" type="curve" smooth="yes"/>
      <point x="223.042" y="109"/>
      <point x="162" y="173.955"/>
      <point x="162" y="275" type="curve" smooth="yes"/>
      <point x="162" y="376.888"/>
      <point x="222.9" y="445"/>
      <point x="314" y="445" type="curve" smooth="yes"/>
      <point x="410.714" y="445"/>
      <point x="476" y="377.296"/>
      <point x="476" y="277" type="curve" smooth="yes"/>
      <point x="476" y="174.962"/>
      <point x="413.964" y="109"/>
    </contour>
  </outline>
</glyph>
<glyph name="h" format="2">
  <advance width="597"/>
  <unicode hex="0068"/>
  <anchor x="294" y="805" name="Anchor-0"/>
  <outline>
    <contour>
      <point x="54" y="0" type="line"/>
      <point x="187" y="0" type="line"/>
      <point x="187" y="281" type="line" smooth="yes"/>
      <point x="187" y="392.784"/>
      <point x="224.251" y="445"/>
      <point x="304" y="445" type="curve" smooth="yes"/>
      <point x="382" y="445"/>
      <point x="412" y="400"/>
      <point x="412" y="283" type="curve" smooth="yes"/>
      <point x="412" y="0" type="line"/>
      <point x="545" y="0" type="line"/>
      <point x="545" y="313" type="line" smooth="yes"/>
      <point x="545" y="481.828"/>
      <point x="471.67" y="568"/>
      <point x="328" y="568" type="curve" smooth="yes"/>
      <point x="270.192" y="568"/>
      <point x="227.134" y="552.12"/>
      <point x="187" y="516" type="curve"/>
      <point x="187" y="739" type="line"/>
      <point x="54" y="739" type="line"/>
    </contour>
  </outline>
</glyph>
<glyph name="k" format="2">
  <advance width="557"/>
  <unicode hex="006B"/>
  <anchor x="270" y="805" name="Anchor-0"/>
  <outline>
    <contour>
      <point x="54" y="0" type="line"/>
      <point x="187" y="0" type="line"/>
      <point x="187" y="94.1212" type="line"/>
      <point x="246.847" y="176.033" type="line"/>
      <point x="376" y="0" type="line"/>
      <point x="555" y="0" type="line"/>
      <point x="325" y="283" type="line"/>
      <point x="523" y="554" type="line"/>
      <point x="364" y="554" type="line"/>
      <point x="187" y="293" type="line"/>
      <point x="187" y="739" type="line"/>
      <point x="54" y="739" type="line"/>
    </contour>
  </outline>
  <guideline angle="53.8471" x="325" y="283"/>
  <guideline angle="306.119" x="187" y="259"/>
  <guideline angle="129.101" x="555" y="0"/>
</glyph>
<glyph name="m" format="2">
  <advance width="937"/>
  <unicode hex="006D"/>
  <anchor x="469" y="630" name="Anchor-0"/>
  <outline>
    <contour>
      <point x="54" y="0" type="line"/>
      <point x="187" y="0" type="line"/>
      <point x="187" y="273" type="line" smooth="yes"/>
      <point x="187" y="395.525"/>
      <point x="218.353" y="445"/>
      <point x="296" y="445" type="curve" smooth="yes"/>
      <point x="370.365" y="445"/>
      <point x="403" y="401.995"/>
      <point x="403" y="304" type="curve" smooth="yes"/>
      <point x="403" y="0" type="line"/>
      <point x="536" y="0" type="line"/>
      <point x="536" y="273" type="line" smooth="yes"/>
      <point x="536" y="391.494"/>
      <point x="570.841" y="445"/>
      <point x="648" y="445" type="curve" smooth="yes"/>
      <point x="718.749" y="445"/>
      <point x="752" y="399.919"/>
      <point x="752" y="304" type="curve" smooth="yes"/>
      <point x="752" y="0" type="line"/>
      <point x="885" y="0" type="line"/>
      <point x="885" y="320" type="line" smooth="yes"/>
      <point x="885" y="483.025"/>
      <point x="808.505" y="567"/>
      <point x="660" y="567" type="curve" smooth="yes"/>
      <point x="581.756" y="567"/>
      <point x="527.86" y="540.813"/>
      <point x="483" y="481" type="curve"/>
      <point x="445.151" y="541.758"/>
      <point x="397.308" y="567"/>
      <point x="320" y="567" type="curve" smooth="yes"/>
      <point x="254.938" y="567"/>
      <point x="214.963" y="548.956"/>
      <point x="176" y="502" type="curve"/>
      <point x="176" y="554" type="line"/>
      <point x="54" y="554" type="line"/>
    </contour>
  </outline>
</glyph>
<glyph name="n" format="2">
  <advance width="598"/>
  <unicode hex="006E"/>
  <anchor x="300" y="630" name="Anchor-0"/>
  <outline>
    <contour>
      <point x="54" y="0" type="line"/>
      <point x="187" y="0" type="line"/>
      <point x="187" y="261" type="line" smooth="yes"/>
      <point x="187" y="389.2"/>
      <point x="223.391" y="445"/>
      <point x="307" y="445" type="curve" smooth="yes"/>
      <point x="382.637" y="445"/>
      <point x="413" y="395.159"/>
      <point x="413" y="271" type="curve" smooth="yes"/>
      <point x="413" y="0" type="line"/>
      <point x="546" y="0" type="line"/>
      <point x="546" y="297" type="line" smooth="yes"/>
      <point x="546" y="483.497"/>
      <point x="480.126" y="567"/>
      <point x="333" y="567" type="curve" smooth="yes"/>
      <point x="268.773" y="567"/>
      <point x="225.827" y="548.831"/>
      <point x="177" y="501" type="curve"/>
      <point x="177" y="554" type="line"/>
      <point x="54" y="554" type="line"/>
    </contour>
  </outline>
</glyph>
<glyph name="o" format="2">
  <advance width="645"/>
  <unicode hex="006F"/>
  <anchor x="322" y="630" name="Anchor-0"/>
  <outline>
    <contour>
      <point x="28" y="276" type="curve" smooth="yes"/>
      <point x="28" y="116.658"/>
      <point x="160.349" y="-13"/>
      <point x="323" y="-13" type="curve" smooth="yes"/>
      <point x="484.875" y="-13"/>
      <point x="617" y="116.878"/>
      <point x="617" y="276" type="curve" smooth="yes"/>
      <point x="617" y="436.224"/>
      <point x="485.775" y="567"/>
      <point x="325" y="567" type="curve" smooth="yes"/>
      <point x="159.33" y="567"/>
      <point x="28" y="438.323"/>
    </contour>
    <contour>
      <point x="322" y="109" type="curve" smooth="yes"/>
      <point x="233.714" y="109"/>
      <point x="162" y="184.3"/>
      <point x="162" y="277" type="curve" smooth="yes"/>
      <point x="162" y="368.722"/>
      <point x="233.738" y="445"/>
      <point x="320" y="445" type="curve" smooth="yes"/>
      <point x="411.314" y="445"/>
      <point x="483" y="370.675"/>
      <point x="483" y="276" type="curve" smooth="yes"/>
      <point x="483" y="183.842"/>
      <point x="410.847" y="109"/>
    </contour>
  </outline>
</glyph>
<glyph name="p" format="2">
  <advance width="662"/>
  <unicode hex="0070"/>
  <anchor x="328" y="630" name="Anchor-0"/>
  <outline>
    <contour>
      <point x="54" y="-185" type="line"/>
      <point x="187" y="-185" type="line"/>
      <point x="187" y="52" type="line"/>
      <point x="238.5" y="6.55882"/>
      <point x="289.654" y="-13"/>
      <point x="357" y="-13" type="curve" smooth="yes"/>
      <point x="516.685" y="-13"/>
      <point x="634" y="110.668"/>
      <point x="634" y="279" type="curve" smooth="yes"/>
      <point x="634" y="445.978"/>
      <point x="518.021" y="567"/>
      <point x="358" y="567" type="curve" smooth="yes"/>
      <point x="282.5" y="567"/>
      <point x="218.717" y="539.664"/>
      <point x="176" y="489" type="curve"/>
      <point x="176" y="554" type="line"/>
      <point x="54" y="554" type="line"/>
    </contour>
    <contour>
      <point x="342" y="109" type="curve" smooth="yes"/>
      <point x="249.849" y="109"/>
      <point x="179" y="181.153"/>
      <point x="179" y="275" type="curve" smooth="yes"/>
      <point x="179" y="371.613"/>
      <point x="247.638" y="445"/>
      <point x="338" y="445" type="curve" smooth="yes"/>
      <point x="431.491" y="445"/>
      <point x="500" y="373.531"/>
      <point x="500" y="276" type="curve" smooth="yes"/>
      <point x="500" y="181.965"/>
      <point x="430.967" y="109"/>
    </contour>
  </outline>
</glyph>
<glyph name="r" format="2">
  <advance width="330"/>
  <unicode hex="0072"/>
  <anchor x="175" y="630" name="Anchor-0"/>
  <outline>
    <contour>
      <point x="54" y="0" type="line"/>
      <point x="187" y="0" type="line"/>
      <point x="187" y="308" type="line" smooth="yes"/>
      <point x="187" y="395.047"/>
      <point x="226.926" y="439"/>
      <point x="306" y="439" type="curve"/>
      <point x="306" y="567" type="line"/>
      <point x="237.67" y="567"/>
      <point x="212.293" y="553.921"/>
      <point x="176" y="500" type="curve"/>
      <point x="176" y="554" type="line"/>
      <point x="54" y="554" type="line"/>
    </contour>
  </outline>
</glyph>
<glyph name="s" format="2">
  <advance width="438"/>
  <unicode hex="0073"/>
  <anchor x="220" y="630" name="Anchor-0"/>
  <outline>
    <contour>
      <point x="15" y="176" type="line"/>
      <point x="26.4819" y="56.5879"/>
      <point x="101.224" y="-13"/>
      <point x="218" y="-13" type="curve" smooth="yes"/>
      <point x="329.024" y="-13"/>
      <point x="416" y="70.0227"/>
      <point x="416" y="176" type="curve" smooth="yes"/>
      <point x="416" y="259.148"/>
      <point x="374.799" y="302.489"/>
      <point x="262" y="338" type="curve" smooth="yes"/>
      <point x="233.576" y="346.948"/>
      <point x="168" y="357.394"/>
      <point x="168" y="398" type="curve" smooth="yes"/>
      <point x="168" y="424.863"/>
      <point x="189.851" y="445"/>
      <point x="219" y="445" type="curve" smooth="yes"/>
      <point x="247.136" y="445"/>
      <point x="265.029" y="429.86"/>
      <point x="271" y="401" type="curve"/>
      <point x="401" y="401" type="line"/>
      <point x="396.642" y="499.051"/>
      <point x="322.143" y="567"/>
      <point x="219" y="567" type="curve" smooth="yes"/>
      <point x="115.284" y="567"/>
      <point x="35" y="493.261"/>
      <point x="35" y="398" type="curve" smooth="yes"/>
      <point x="35" y="317.347"/>
      <point x="77.7439" y="271.827"/>
      <point x="189" y="234" type="curve" smooth="yes"/>
      <point x="223.004" y="222.439"/>
      <point x="283" y="209.563"/>
      <point x="283" y="163" type="curve" smooth="yes"/>
      <point x="283" y="131.75"/>
      <point x="257.722" y="109"/>
      <point x="223" y="109" type="curve" smooth="yes"/>
      <point x="184.045" y="109"/>
      <point x="162.015" y="128.946"/>
      <point x="149" y="176" type="curve"/>
    </contour>
  </outline>
</glyph>
<glyph name="u" format="2">
  <advance width="599"/>
  <unicode hex="0075"/>
  <anchor x="298" y="630" name="Anchor-0"/>
  <outline>
    <contour>
      <point x="422" y="0" type="line"/>
      <point x="545" y="0" type="line"/>
      <point x="545" y="554" type="line"/>
      <point x="412" y="554" type="line"/>
      <point x="412" y="293" type="line" smooth="yes"/>
      <point x="412" y="159.748"/>
      <point x="378.352" y="109"/>
      <point x="290" y="109" type="curve" smooth="yes"/>
      <point x="215.603" y="109"/>
      <point x="185" y="159.714"/>
      <point x="185" y="283" type="curve" smooth="yes"/>
      <point x="185" y="554" type="line"/>
      <point x="52" y="554" type="line"/>
      <point x="52" y="257" type="line" smooth="yes"/>
      <point x="52" y="78.6524"/>
      <point x="123.625" y="-13"/>
      <point x="263" y="-13" type="curve" smooth="yes"/>
      <point x="330.023" y="-13"/>
      <point x="371.017" y="4.01661"/>
      <point x="422" y="53" type="curve"/>
    </contour>
  </outline>
</glyph>
<glyph name="braceleft" format="2">
  <advance width="335"/>
  <unicode hex="007B"/>
  <outline>
    <contour>
      <point x="305" y="-48" type="line"/>
      <point x="234.278" y="-42.0235"/>
      <point x="226" y="-31.3354"/>
      <point x="226" y="54" type="curve" smooth="yes"/>
      <point x="226" y="177" type="line" smooth="yes"/>
      <point x="226" y="254.933"/>
      <point x="202.057" y="288.986"/>
      <point x="136" y="305" type="curve"/>
      <point x="202.986" y="322.996"/>
      <point x="226" y="355.983"/>
      <point x="226" y="434" type="curve" smooth="yes"/>
      <point x="226" y="557" type="line" smooth="yes"/>
      <point x="226" y="642.335"/>
      <point x="234.278" y="653.023"/>
      <point x="305" y="659" type="curve"/>
      <point x="305" y="739" type="line"/>
      <point x="175.348" y="739"/>
      <point x="121" y="698.239"/>
      <point x="121" y="601" type="curve" smooth="yes"/>
      <point x="121" y="444" type="line" smooth="yes"/>
      <point x="121" y="383.623"/>
      <point x="95.6529" y="352.957"/>
      <point x="40" y="346" type="curve"/>
      <point x="40" y="265" type="line"/>
      <point x="95.6529" y="258.043"/>
      <point x="121" y="227.377"/>
      <point x="121" y="167" type="curve" smooth="yes"/>
      <point x="121" y="10" type="line" smooth="yes"/>
      <point x="121" y="-87.2387"/>
      <point x="175.348" y="-128"/>
      <point x="305" y="-128" type="curve"/>
    </contour>
  </outline>
</glyph>
<glyph name="asciitilde" format="2">
  <advance width="600"/>
  <unicode hex="007E"/>
  <outline>
    <contour>
      <point x="111" y="214" type="line"/>
      <point x="133.413" y="250.78"/>
      <point x="159.331" y="295"/>
      <point x="198" y="295" type="curve" smooth="yes"/>
      <point x="212.215" y="295"/>
      <point x="223.821" y="291.554"/>
      <point x="262" y="276" type="curve" smooth="yes"/>
      <point x="316" y="254" type="line" smooth="yes"/>
      <point x="353.33" y="238.791"/>
      <point x="386.664" y="230"/>
      <point x="407" y="230" type="curve" smooth="yes"/>
      <point x="460.671" y="230"/>
      <point x="499.679" y="261.476"/>
      <point x="552" y="347" type="curve"/>
      <point x="488" y="421" type="line"/>
      <point x="463.473" y="374.89"/>
      <point x="434.453" y="347"/>
      <point x="411" y="347" type="curve" smooth="yes"/>
      <point x="394" y="347"/>
      <point x="385.623" y="350.615"/>
      <point x="340" y="369" type="curve" smooth="yes"/>
      <point x="273" y="396" type="line" smooth="yes"/>
      <point x="247.735" y="406.181"/>
      <point x="219.733" y="412"/>
      <point x="196" y="412" type="curve"/>
      <point x="119.69" y="412"/>
      <point x="81.7179" y="346.601"/>
      <point x="48" y="289" type="curve"/>
    </contour>
  </outline>
</glyph>
<glyph name="cent" format="2">
  <advance width="560"/>
  <unicode hex="00A2"/>
  <outline>
    <contour>
      <point x="223" y="39" type="line"/>
      <point x="348" y="39" type="line"/>
      <point x="348" y="148" type="line"/>
      <point x="428.051" y="169.013"/>
      <point x="482.022" y="221.057"/>
      <point x="516" y="310" type="curve"/>
      <point x="370" y="310" type="line"/>
      <point x="345.181" y="282.203"/>
      <point x="319.25" y="270"/>
      <point x="285" y="270" type="curve" smooth="yes"/>
      <point x="222.789" y="270"/>
      <point x="177" y="316.213"/>
      <point x="177" y="379" type="curve" smooth="yes"/>
      <point x="177" y="442.231"/>
      <point x="221.218" y="489"/>
      <point x="281" y="489" type="curve" smooth="yes"/>
      <point x="317.804" y="489"/>
      <point x="353.893" y="471.15"/>
      <point x="374" y="443" type="curve"/>
      <point x="516" y="443" type="line"/>
      <point x="497.859" y="525.641"/>
      <point x="433.338" y="590.162"/>
      <point x="348" y="611" type="curve"/>
      <point x="348" y="715" type="line"/>
      <point x="223" y="715" type="line"/>
      <point x="223" y="611" type="line"/>
      <point x="112.343" y="582.133"/>
      <point x="44" y="494.318"/>
      <point x="44" y="381" type="curve" smooth="yes"/>
      <point x="44" y="265.051"/>
      <point x="115.807" y="171.583"/>
      <point x="223" y="148" type="curve"/>
    </contour>
  </outline>
</glyph>
<glyph name="sterling" format="2">
  <advance width="560"/>
  <unicode hex="00A3"/>
  <outline>
    <contour>
      <point x="41" y="0" type="line"/>
      <point x="301" y="0" type="line" smooth="yes"/>
      <point x="465.126" y="0"/>
      <point x="563" y="82.9317"/>
      <point x="563" y="222" type="curve" smooth="yes"/>
      <point x="563" y="239.409"/>
      <point x="560.281" y="252.262"/>
      <point x="552" y="274" type="curve"/>
      <point x="420" y="274" type="line"/>
      <point x="427.736" y="249.824"/>
      <point x="430" y="237.6"/>
      <point x="430" y="220" type="curve" smooth="yes"/>
      <point x="430" y="161.514"/>
      <point x="390.145" y="125.051"/>
      <point x="326.217" y="125.051" type="curve" smooth="yes"/>
      <point x="320" y="125.051" type="line"/>
      <point x="327.978" y="148.985"/>
      <point x="333" y="177.939"/>
      <point x="333" y="200" type="curve" smooth="yes"/>
      <point x="333" y="236.25"/>
      <point x="324.836" y="264.315"/>
      <point x="301" y="310" type="curve"/>
      <point x="408" y="310" type="line"/>
      <point x="408" y="435" type="line"/>
      <point x="201" y="435" type="line"/>
      <point x="182.447" y="456.482"/>
      <point x="174" y="480.259"/>
      <point x="174" y="511" type="curve" smooth="yes"/>
      <point x="174" y="577.864"/>
      <point x="220.878" y="630"/>
      <point x="281" y="630" type="curve" smooth="yes"/>
      <point x="329.382" y="630"/>
      <point x="365.11" y="597.553"/>
      <point x="379" y="541" type="curve"/>
      <point x="514" y="541" type="line"/>
      <point x="502.984" y="666.183"/>
      <point x="407.813" y="752"/>
      <point x="280" y="752" type="curve" smooth="yes"/>
      <point x="146.161" y="752"/>
      <point x="41" y="648.159"/>
      <point x="41" y="516" type="curve" smooth="yes"/>
      <point x="41" y="485.412"/>
      <point x="45.8363" y="462.368"/>
      <point x="58" y="435" type="curve"/>
      <point x="0" y="435" type="line"/>
      <point x="0" y="310" type="line"/>
      <point x="142" y="310" type="line"/>
      <point x="184.087" y="269.918"/>
      <point x="200" y="238.914"/>
      <point x="200" y="197" type="curve" smooth="yes"/>
      <point x="200" y="171.6"/>
      <point x="193.315" y="147.532"/>
      <point x="180" y="125" type="curve"/>
      <point x="41" y="125" type="line"/>
    </contour>
  </outline>
</glyph>
<glyph name="section" format="2">
  <advance width="560"/>
  <unicode hex="00A7"/>
  <outline>
    <contour>
      <point x="55" y="55" type="line"/>
      <point x="66.2199" y="-77.395"/>
      <point x="152.208" y="-157"/>
      <point x="284" y="-157" type="curve" smooth="yes"/>
      <point x="409.899" y="-157"/>
      <point x="499" y="-79.0884"/>
      <point x="499" y="31" type="curve" smooth="yes"/>
      <point x="499" y="79.84"/>
      <point x="484.391" y="114.609"/>
      <point x="449" y="150" type="curve"/>
      <point x="497.052" y="186.039"/>
      <point x="524" y="237.06"/>
      <point x="524" y="292" type="curve" smooth="yes"/>
      <point x="524" y="350.712"/>
      <point x="490.191" y="404.729"/>
      <point x="437" y="431" type="curve" smooth="yes"/>
      <point x="273" y="512" type="line" smooth="yes"/>
      <point x="232.744" y="531.883"/>
      <point x="212" y="555.347"/>
      <point x="212" y="581" type="curve" smooth="yes"/>
      <point x="212" y="611.632"/>
      <point x="237.49" y="630"/>
      <point x="280" y="630" type="curve" smooth="yes"/>
      <point x="331.164" y="630"/>
      <point x="357.029" y="609.85"/>
      <point x="366" y="563" type="curve"/>
      <point x="492" y="563" type="line"/>
      <point x="475.943" y="687.44"/>
      <point x="405.577" y="752"/>
      <point x="286" y="752" type="curve" smooth="yes"/>
      <point x="167.169" y="752"/>
      <point x="85" y="684.139"/>
      <point x="85" y="586" type="curve" smooth="yes"/>
      <point x="85" y="549.786"/>
      <point x="93.1176" y="522.824"/>
      <point x="113" y="493" type="curve"/>
      <point x="57.9772" y="451.983"/>
      <point x="35" y="408.974"/>
      <point x="35" y="347" type="curve" smooth="yes"/>
      <point x="35" y="274.381"/>
      <point x="68.0566" y="222.014"/>
      <point x="136" y="187" type="curve" smooth="yes"/>
      <point x="299" y="103" type="line" smooth="yes"/>
      <point x="358.336" y="72.4221"/>
      <point x="372" y="58.7578"/>
      <point x="372" y="30" type="curve" smooth="yes"/>
      <point x="372" y="-7.67816"/>
      <point x="335.431" y="-35"/>
      <point x="285" y="-35" type="curve" smooth="yes"/>
      <point x="221.677" y="-35"/>
      <point x="189" y="-4.36536"/>
      <point x="189" y="55" type="curve"/>
    </contour>
    <contour>
      <point x="363" y="215" type="curve"/>
      <point x="212" y="291" type="line" smooth="yes"/>
      <point x="169.393" y="312.444"/>
      <point x="152" y="330.707"/>
      <point x="152" y="354" type="curve" smooth="yes"/>
      <point x="152" y="374.679"/>
      <point x="162.559" y="390.654"/>
      <point x="191" y="413" type="curve"/>
      <point x="340" y="339" type="line" smooth="yes"/>
      <point x="387.317" y="315.5"/>
      <point x="400" y="302.606"/>
      <point x="400" y="278" type="curve" smooth="yes"/>
      <point x="400" y="254.919"/>
      <point x="385.919" y="230.944"/>
    </contour>
  </outline>
</glyph>
<glyph name="ordfeminine" format="2">
  <advance width="382"/>
  <unicode hex="00AA"/>
  <outline>
    <contour>
      <point x="274" y="441" type="line"/>
      <point x="340" y="441" type="line"/>
      <point x="340" y="739" type="line"/>
      <point x="274" y="739" type="line"/>
      <point x="274" y="700" type="line"/>
      <point x="248.312" y="733.592"/>
      <point x="216.48" y="750"/>
      <point x="177" y="750" type="curve" smooth="yes"/>
      <point x="94.5981" y="750"/>
      <point x="30" y="680.568"/>
      <point x="30" y="592" type="curve" smooth="yes"/>
      <point x="30" y="501.148"/>
      <point x="91.8696" y="431"/>
      <point x="172" y="431" type="curve" smooth="yes"/>
      <point x="213" y="431"/>
      <point x="249" y="449"/>
      <point x="274" y="482" type="curve"/>
    </contour>
    <contour>
      <point x="187" y="505" type="curve" smooth="yes"/>
      <point x="141.839" y="505"/>
      <point x="106" y="542.167"/>
      <point x="106" y="589" type="curve" smooth="yes"/>
      <point x="106" y="636.925"/>
      <point x="141.931" y="676"/>
      <point x="186" y="676" type="curve" smooth="yes"/>
      <point x="233.135" y="676"/>
      <point x="268" y="639.86"/>
      <point x="268" y="591" type="curve" smooth="yes"/>
      <point x="268" y="542.08"/>
      <point x="233.076" y="505"/>
    </contour>
    <contour>
      <point x="33" y="310" type="line"/>
      <point x="344" y="310" type="line"/>
      <point x="344" y="380" type="line"/>
      <point x="33" y="380" type="line"/>
    </contour>
  </outline>
</glyph>
<glyph name="twosuperior" format="2">
  <advance width="336"/>
  <unicode hex="00B2"/>
  <outline>
    <contour>
      <point x="13" y="296" type="line"/>
      <point x="324" y="296" type="line"/>
      <point x="324" y="376" type="line"/>
      <point x="143" y="376" type="line"/>
      <point x="237" y="451" type="line" smooth="yes"/>
      <point x="295.777" y="497.897"/>
      <point x="326" y="548.834"/>
      <point x="326" y="601" type="curve" smooth="yes"/>
      <point x="326" y="684.847"/>
      <point x="259.164" y="747"/>
      <point x="169" y="747" type="curve" smooth="yes"/>
      <point x="70.5396" y="747"/>
      <point x="10" y="684.176"/>
      <point x="10" y="582" type="curve"/>
      <point x="97" y="582" type="line"/>
      <point x="97.9925" y="636.587"/>
      <point x="124.657" y="668"/>
      <point x="170" y="668" type="curve" smooth="yes"/>
      <point x="208.854" y="668"/>
      <point x="238" y="640.14"/>
      <point x="238" y="603" type="curve" smooth="yes"/>
      <point x="238" y="575.434"/>
      <point x="223.846" y="553.56"/>
      <point x="183" y="518" type="curve" smooth="yes"/>
      <point x="13" y="370" type="line"/>
    </contour>
  </outline>
</glyph>
<glyph name="threesuperior" format="2">
  <advance width="336"/>
  <unicode hex="00B3"/>
  <outline>
    <contour>
      <point x="3" y="435" type="line"/>
      <point x="8.02025" y="347.648"/>
      <point x="75.3776" y="288"/>
      <point x="169" y="288" type="curve" smooth="yes"/>
      <point x="261.881" y="288"/>
      <point x="330" y="351.888"/>
      <point x="330" y="439" type="curve" smooth="yes"/>
      <point x="330" y="490.636"/>
      <point x="306.298" y="530.858"/>
      <point x="264" y="551" type="curve"/>
      <point x="286.398" y="568.308"/>
      <point x="298" y="593.559"/>
      <point x="298" y="625" type="curve" smooth="yes"/>
      <point x="298" y="694.833"/>
      <point x="242.182" y="746"/>
      <point x="166" y="746" type="curve" smooth="yes"/>
      <point x="91.1517" y="746"/>
      <point x="43.2722" y="702.54"/>
      <point x="36" y="628" type="curve"/>
      <point x="125" y="628" type="line"/>
      <point x="130.054" y="657.313"/>
      <point x="141.275" y="668"/>
      <point x="167" y="668" type="curve" smooth="yes"/>
      <point x="191.947" y="668"/>
      <point x="210" y="652.047"/>
      <point x="210" y="630" type="curve" smooth="yes"/>
      <point x="210" y="600.32"/>
      <point x="188.104" y="588.039"/>
      <point x="135.187" y="588.039" type="curve" smooth="yes"/>
      <point x="127" y="588.039" type="line"/>
      <point x="127" y="506" type="line"/>
      <point x="148" y="506" type="line" smooth="yes"/>
      <point x="206.179" y="506"/>
      <point x="243" y="478.868"/>
      <point x="243" y="436" type="curve" smooth="yes"/>
      <point x="243" y="395.953"/>
      <point x="211.949" y="367"/>
      <point x="169" y="367" type="curve" smooth="yes"/>
      <point x="125.838" y="367"/>
      <point x="96.9776" y="392.161"/>
      <point x="91" y="435" type="curve"/>
    </contour>
  </outline>
</glyph>
<glyph name="paragraph" format="2">
  <advance width="600"/>
  <unicode hex="00B6"/>
  <outline>
    <contour>
      <point x="241" y="-128" type="line"/>
      <point x="342" y="-128" type="line"/>
      <point x="342" y="632" type="line"/>
      <point x="426" y="632" type="line"/>
      <point x="426" y="-128" type="line"/>
      <point x="527" y="-128" type="line"/>
      <point x="527" y="739" type="line"/>
      <point x="309" y="739" type="line" smooth="yes"/>
      <point x="233.584" y="739"/>
      <point x="176.534" y="729.548"/>
      <point x="140" y="711" type="curve" smooth="yes"/>
      <point x="75.1352" y="678.069"/>
      <point x="37" y="612.165"/>
      <point x="37" y="533" type="curve" smooth="yes"/>
      <point x="37" y="413.799"/>
      <point x="119.205" y="331.997"/>
      <point x="241" y="330" type="curve"/>
    </contour>
  </outline>
</glyph>
<glyph name="cedilla" format="2">
  <advance width="324"/>
  <unicode hex="00B8"/>
  <outline>
    <contour>
      <point x="64" y="-166" type="line"/>
      <point x="72.0139" y="-216.087"/>
      <point x="113.088" y="-251"/>
      <point x="164" y="-251" type="curve" smooth="yes"/>
      <point x="221.106" y="-251"/>
      <point x="260" y="-210.891"/>
      <point x="260" y="-152" type="curve" smooth="yes"/>
      <point x="260" y="-96.7527"/>
      <point x="218.777" y="-51"/>
      <point x="169" y="-51" type="curve" smooth="yes"/>
      <point x="160.643" y="-51"/>
      <point x="154.083" y="-52.5833"/>
      <point x="140" y="-58" type="curve"/>
      <point x="161" y="0" type="line"/>
      <point x="109" y="0" type="line"/>
      <point x="73" y="-107" type="line"/>
      <point x="125" y="-133" type="line"/>
      <point x="139.052" y="-112.925"/>
      <point x="149.056" y="-106"/>
      <point x="164" y="-106" type="curve" smooth="yes"/>
      <point x="184.864" y="-106"/>
      <point x="202" y="-125.842"/>
      <point x="202" y="-150" type="curve" smooth="yes"/>
      <point x="202" y="-175.474"/>
      <point x="184.598" y="-196"/>
      <point x="163" y="-196" type="curve" smooth="yes"/>
      <point x="146.333" y="-196"/>
      <point x="134.184" y="-186.408"/>
      <point x="125" y="-166" type="curve"/>
    </contour>
  </outline>
</glyph>
<glyph name="ordmasculine" format="2">
  <advance width="367"/>
  <unicode hex="00BA"/>
  <outline>
    <contour>
      <point x="184" y="442" type="curve" smooth="yes"/>
      <point x="268.945" y="442"/>
      <point x="337" y="510.944"/>
      <point x="337" y="597" type="curve" smooth="yes"/>
      <point x="337" y="681.05"/>
      <point x="268.951" y="750"/>
      <point x="186" y="750" type="curve" smooth="yes"/>
      <point x="98.8816" y="750"/>
      <point x="30" y="682.885"/>
      <point x="30" y="598" type="curve" smooth="yes"/>
      <point x="30" y="511.948"/>
      <point x="99.0513" y="442"/>
    </contour>
    <contour>
      <point x="184" y="516" type="curve" smooth="yes"/>
      <point x="137.287" y="516"/>
      <point x="103" y="550.71"/>
      <point x="103" y="598" type="curve" smooth="yes"/>
      <point x="103" y="642.816"/>
      <point x="138.823" y="680"/>
      <point x="182" y="680" type="curve" smooth="yes"/>
      <point x="227" y="680"/>
      <point x="264" y="643"/>
      <point x="264" y="598" type="curve" smooth="yes"/>
      <point x="264" y="550.925"/>
      <point x="229.927" y="516"/>
    </contour>
    <contour>
      <point x="30" y="311" type="line"/>
      <point x="337" y="311" type="line"/>
      <point x="337" y="381" type="line"/>
      <point x="30" y="381" type="line"/>
    </contour>
  </outline>
</glyph>
<glyph name="threequarters" format="2">
  <advance width="840"/>
  <unicode hex="00BE"/>
  <outline>
    <contour>
      <point x="6" y="435" type="line"/>
      <point x="11.0202" y="347.648"/>
      <point x="78.3776" y="288"/>
      <point x="172" y="288" type="curve" smooth="yes"/>
      <point x="264.881" y="288"/>
      <point x="333" y="351.888"/>
      <point x="333" y="439" type="curve" smooth="yes"/>
      <point x="333" y="490.636"/>
      <point x="309.298" y="530.858"/>
      <point x="267" y="551" type="curve"/>
      <point x="289.398" y="568.308"/>
      <point x="301" y="593.559"/>
      <point x="301" y="625" type="curve" smooth="yes"/>
      <point x="301" y="694.833"/>
      <point x="245.182" y="746"/>
      <point x="169" y="746" type="curve" smooth="yes"/>
      <point x="94.1271" y="746"/>
      <point x="46.2746" y="702.565"/>
      <point x="39" y="628" type="curve"/>
      <point x="128" y="628" type="line"/>
      <point x="133.054" y="657.313"/>
      <point x="144.275" y="668"/>
      <point x="170" y="668" type="curve" smooth="yes"/>
      <point x="194.947" y="668"/>
      <point x="213" y="652.047"/>
      <point x="213" y="630" type="curve" smooth="yes"/>
      <point x="213" y="600.228"/>
      <point x="190.996" y="588.083"/>
      <point x="137.053" y="588.083" type="curve" smooth="yes"/>
      <point x="130" y="588.083" type="line"/>
      <point x="130" y="506" type="line"/>
      <point x="151" y="506" type="line" smooth="yes"/>
      <point x="209.179" y="506"/>
      <point x="246" y="478.868"/>
      <point x="246" y="436" type="curve" smooth="yes"/>
      <point x="246" y="395.953"/>
      <point x="214.949" y="367"/>
      <point x="172" y="367" type="curve" smooth="yes"/>
      <point x="128.838" y="367"/>
      <point x="99.9776" y="392.161"/>
      <point x="94" y="435" type="curve"/>
    </contour>
    <contour>
      <point x="252" y="0" type="line"/>
      <point x="347" y="0" type="line"/>
      <point x="653" y="739" type="line"/>
      <point x="558" y="739" type="line"/>
    </contour>
    <contour>
      <point x="508" y="66" type="line"/>
      <point x="702" y="66" type="line"/>
      <point x="702" y="0" type="line"/>
      <point x="790" y="0" type="line"/>
      <point x="790" y="66" type="line"/>
      <point x="838" y="66" type="line"/>
      <point x="838" y="142" type="line"/>
      <point x="790" y="142" type="line"/>
      <point x="790" y="443" type="line"/>
      <point x="716" y="443" type="line"/>
      <point x="508" y="133" type="line"/>
    </contour>
    <contour>
      <point x="600" y="142" type="line"/>
      <point x="702" y="296" type="line"/>
      <point x="702" y="142" type="line"/>
    </contour>
  </outline>
</glyph>
<glyph name="Eth" format="2">
  <advance width="744"/>
  <unicode hex="00D0"/>
  <anchor x="360" y="805" name="Anchor-0"/>
  <outline>
    <contour>
      <point x="116" y="0" type="line"/>
      <point x="288" y="0" type="line" smooth="yes"/>
      <point x="566.401" y="0"/>
      <point x="708" y="124.067"/>
      <point x="708" y="368" type="curve" smooth="yes"/>
      <point x="708" y="612.656"/>
      <point x="563.947" y="739"/>
      <point x="285" y="739" type="curve" smooth="yes"/>
      <point x="116" y="739" type="line"/>
      <point x="116" y="422" type="line"/>
      <point x="20" y="422" type="line"/>
      <point x="20" y="315" type="line"/>
      <point x="116" y="315" type="line"/>
    </contour>
    <contour>
      <point x="253" y="131" type="line"/>
      <point x="253" y="315" type="line"/>
      <point x="407" y="315" type="line"/>
      <point x="407" y="422" type="line"/>
      <point x="253" y="422" type="line"/>
      <point x="253" y="608" type="line"/>
      <point x="280" y="608" type="line" smooth="yes"/>
      <point x="476.416" y="608"/>
      <point x="570" y="530.552"/>
      <point x="570" y="368" type="curve" smooth="yes"/>
      <point x="570" y="208.977"/>
      <point x="475.572" y="131"/>
      <point x="283" y="131" type="curve" smooth="yes"/>
    </contour>
  </outline>
</glyph>
<glyph name="Ograve" format="2">
  <advance width="842"/>
  <unicode hex="00D2"/>
  <anchor x="421" y="1015" name="Anchor-0"/>
  <outline>
    <component base="O"/>
    <contour>
      <point x="282" y="912" type="line"/>
      <point x="508" y="788" type="line"/>
      <point x="561" y="867" type="line"/>
      <point x="339" y="1000" type="line"/>
    </contour>
  </outline>
</glyph>
<glyph name="Oacute" format="2">
  <advance width="842"/>
  <unicode hex="00D3"/>
  <anchor x="421" y="1015" name="Anchor-0"/>
  <outline>
    <component base="O"/>
    <contour>
      <point x="333" y="788" type="line"/>
      <point x="560" y="908" type="line"/>
      <point x="506" y="1000" type="line"/>
      <point x="282" y="866" type="line"/>
    </contour>
  </outline>
</glyph>
<glyph name="Ocircumflex" format="2">
  <advance width="842"/>
  <unicode hex="00D4"/>
  <anchor x="421" y="1015" name="Anchor-0"/>
  <outline>
    <component base="O"/>
    <contour>
      <point x="222" y="805" type="line"/>
      <point x="369" y="805" type="line"/>
      <point x="423" y="869" type="line"/>
      <point x="476" y="805" type="line"/>
      <point x="621" y="805" type="line"/>
      <point x="476" y="943" type="line"/>
      <point x="369" y="943" type="line"/>
    </contour>
  </outline>
</glyph>
<glyph name="Odieresis" format="2">
  <advance width="842"/>
  <unicode hex="00D6"/>
  <anchor x="421" y="1015" name="Anchor-0"/>
  <outline>
    <component base="O"/>
    <contour>
      <point x="250" y="805" type="line"/>
      <point x="383" y="805" type="line"/>
      <point x="383" y="938" type="line"/>
      <point x="250" y="938" type="line"/>
    </contour>
    <contour>
      <point x="460" y="805" type="line"/>
      <point x="593" y="805" type="line"/>
      <point x="593" y="938" type="line"/>
      <point x="460" y="938" type="line"/>
    </contour>
  </outline>
</glyph>
<glyph name="Oslash" format="2">
  <advance width="845"/>
  <unicode hex="00D8"/>
  <anchor x="422" y="805" name="Anchor-0"/>
  <outline>
    <contour>
      <point x="36" y="370" type="curve" smooth="yes"/>
      <point x="36" y="262.159"/>
      <point x="81.8821" y="159.106"/>
      <point x="162" y="87" type="curve"/>
      <point x="103" y="0" type="line"/>
      <point x="199" y="-65" type="line"/>
      <point x="259" y="23" type="line"/>
      <point x="312.449" y="-1.20339"/>
      <point x="367.5" y="-13"/>
      <point x="427" y="-13" type="curve" smooth="yes"/>
      <point x="642.718" y="-13"/>
      <point x="809" y="153.717"/>
      <point x="809" y="370" type="curve" smooth="yes"/>
      <point x="809" y="480.21"/>
      <point x="765.098" y="578.815"/>
      <point x="683" y="653" type="curve"/>
      <point x="744" y="743" type="line"/>
      <point x="649" y="809" type="line"/>
      <point x="587" y="717" type="line"/>
      <point x="530.58" y="741.18"/>
      <point x="479.571" y="752"/>
      <point x="422" y="752" type="curve" smooth="yes"/>
      <point x="207.39" y="752"/>
      <point x="36" y="582.386"/>
    </contour>
    <contour>
      <point x="174" y="370" type="curve" smooth="yes"/>
      <point x="174" y="510.06"/>
      <point x="283.06" y="620"/>
      <point x="422" y="620" type="curve" smooth="yes"/>
      <point x="453.167" y="620"/>
      <point x="481.203" y="615.275"/>
      <point x="511" y="605" type="curve"/>
      <point x="239" y="201" type="line"/>
      <point x="196.725" y="249.314"/>
      <point x="174" y="308.4"/>
    </contour>
    <contour>
      <point x="335" y="135" type="curve"/>
      <point x="607" y="540" type="line"/>
      <point x="649.37" y="490.568"/>
      <point x="671" y="432.438"/>
      <point x="671" y="368" type="curve" smooth="yes"/>
      <point x="671" y="225.857"/>
      <point x="565.859" y="119"/>
      <point x="426" y="119" type="curve" smooth="yes"/>
      <point x="394.719" y="119"/>
      <point x="367.753" y="123.741"/>
    </contour>
  </outline>
</glyph>
<glyph name="Ugrave" format="2">
  <advance width="641"/>
  <unicode hex="00D9"/>
  <anchor x="320" y="1015" name="Anchor-0"/>
  <outline>
    <component base="U"/>
    <contour>
      <point x="141" y="912" type="line"/>
      <point x="367" y="788" type="line"/>
      <point x="420" y="867" type="line"/>
      <point x="198" y="1000" type="line"/>
    </contour>
  </outline>
</glyph>
<glyph name="Uacute" format="2">
  <advance width="641"/>
  <unicode hex="00DA"/>
  <anchor x="320" y="1015" name="Anchor-0"/>
  <outline>
    <component base="U"/>
    <contour>
      <point x="273" y="788" type="line"/>
      <point x="500" y="908" type="line"/>
      <point x="446" y="1000" type="line"/>
      <point x="222" y="866" type="line"/>
    </contour>
  </outline>
</glyph>
<glyph name="Ucircumflex" format="2">
  <advance width="641"/>
  <unicode hex="00DB"/>
  <anchor x="320" y="1015" name="Anchor-0"/>
  <outline>
    <component base="U"/>
    <contour>
      <point x="121" y="805" type="line"/>
      <point x="268" y="805" type="line"/>
      <point x="322" y="869" type="line"/>
      <point x="375" y="805" type="line"/>
      <point x="520" y="805" type="line"/>
      <point x="375" y="943" type="line"/>
      <point x="268" y="943" type="line"/>
    </contour>
  </outline>
</glyph>
<glyph name="Udieresis" format="2">
  <advance width="641"/>
  <unicode hex="00DC"/>
  <anchor x="320" y="1015" name="Anchor-0"/>
  <outline>
    <component base="U"/>
    <contour>
      <point x="149" y="805" type="line"/>
      <point x="282" y="805" type="line"/>
      <point x="282" y="938" type="line"/>
      <point x="149" y="938" type="line"/>
    </contour>
    <contour>
      <point x="359" y="805" type="line"/>
      <point x="492" y="805" type="line"/>
      <point x="492" y="938" type="line"/>
      <point x="359" y="938" type="line"/>
    </contour>
  </outline>
</glyph>
<glyph name="Thorn" format="2">
  <advance width="576"/>
  <unicode hex="00DE"/>
  <anchor x="280" y="805" name="Anchor-0"/>
  <outline>
    <contour>
      <point x="71" y="0" type="line"/>
      <point x="208" y="0" type="line"/>
      <point x="208" y="149" type="line"/>
      <point x="252" y="149" type="line" smooth="yes"/>
      <point x="352.753" y="149"/>
      <point x="400.098" y="156.555"/>
      <point x="440" y="179" type="curve" smooth="yes"/>
      <point x="504.038" y="215.022"/>
      <point x="543" y="291.053"/>
      <point x="543" y="380" type="curve" smooth="yes"/>
      <point x="543" y="463.309"/>
      <point x="509.155" y="531.72"/>
      <point x="449" y="570" type="curve" smooth="yes"/>
      <point x="404.71" y="598.185"/>
      <point x="354.342" y="608"/>
      <point x="254" y="608" type="curve" smooth="yes"/>
      <point x="208" y="608" type="line"/>
      <point x="208" y="739" type="line"/>
      <point x="71" y="739" type="line"/>
    </contour>
    <contour>
      <point x="208" y="280" type="line"/>
      <point x="208" y="477" type="line"/>
      <point x="254" y="477" type="line" smooth="yes"/>
      <point x="297.071" y="477"/>
      <point x="319.016" y="475.234"/>
      <point x="341" y="470" type="curve"/>
      <point x="380.947" y="459.015"/>
      <point x="405" y="424.063"/>
      <point x="405" y="377" type="curve" smooth="yes"/>
      <point x="405" y="334.071"/>
      <point x="381.065" y="301.018"/>
      <point x="342" y="290" type="curve"/>
      <point x="320.954" y="283.304"/>
      <point x="289.9" y="280"/>
      <point x="248" y="280" type="curve" smooth="yes"/>
    </contour>
  </outline>
</glyph>
<glyph name="germandbls" format="2">
  <advance width="616"/>
  <unicode hex="00DF"/>
  <anchor x="277" y="805" name="Anchor-0"/>
  <outline>
    <contour>
      <point x="54" y="0" type="line"/>
      <point x="176" y="0" type="line"/>
      <point x="176" y="79" type="line"/>
      <point x="212.936" y="17.1065"/>
      <point x="270.859" y="-13"/>
      <point x="353" y="-13" type="curve" smooth="yes"/>
      <point x="489.963" y="-13"/>
      <point x="587" y="81.9637"/>
      <point x="587" y="216" type="curve" smooth="yes"/>
      <point x="587" y="315.538"/>
      <point x="527.753" y="382.848"/>
      <point x="418" y="408" type="curve"/>
      <point x="469.735" y="436.852"/>
      <point x="493" y="479.66"/>
      <point x="493" y="546" type="curve" smooth="yes"/>
      <point x="493" y="663.087"/>
      <point x="398.908" y="752"/>
      <point x="275" y="752" type="curve" smooth="yes"/>
      <point x="137.354" y="752"/>
      <point x="54" y="652.051"/>
      <point x="54" y="487" type="curve" smooth="yes"/>
    </contour>
    <contour>
      <point x="187" y="189" type="line"/>
      <point x="187" y="503" type="line" smooth="yes"/>
      <point x="187" y="587.833"/>
      <point x="215.886" y="630"/>
      <point x="274" y="630" type="curve" smooth="yes"/>
      <point x="325.771" y="630"/>
      <point x="359" y="593.253"/>
      <point x="359" y="536" type="curve" smooth="yes"/>
      <point x="359" y="476.744"/>
      <point x="320.777" y="433"/>
      <point x="269" y="433" type="curve" smooth="yes"/>
      <point x="258" y="433" type="line"/>
      <point x="258" y="315" type="line"/>
      <point x="269" y="315" type="line" smooth="yes"/>
      <point x="397.077" y="315"/>
      <point x="453" y="281.568"/>
      <point x="453" y="205" type="curve" smooth="yes"/>
      <point x="453" y="150.3"/>
      <point x="414.281" y="109"/>
      <point x="363" y="109" type="curve" smooth="yes"/>
      <point x="317.475" y="109"/>
      <point x="278.095" y="142.515"/>
      <point x="269" y="189" type="curve"/>
    </contour>
  </outline>
</glyph>
<glyph name="agrave" format="2">
  <advance width="667"/>
  <unicode hex="00E0"/>
  <anchor x="347" y="840" name="Anchor-0"/>
  <outline>
    <contour>
      <point x="491" y="0" type="line"/>
      <point x="613" y="0" type="line"/>
      <point x="613" y="554" type="line"/>
      <point x="491" y="554" type="line"/>
      <point x="491" y="480" type="line"/>
      <point x="445.258" y="540.658"/>
      <point x="390.454" y="567"/>
      <point x="310" y="567" type="curve" smooth="yes"/>
      <point x="146.394" y="567"/>
      <point x="28" y="444.408"/>
      <point x="28" y="275" type="curve" smooth="yes"/>
      <point x="28" y="107.887"/>
      <point x="145.109" y="-13"/>
      <point x="307" y="-13" type="curve" smooth="yes"/>
      <point x="385.524" y="-13"/>
      <point x="438.351" y="11.404"/>
      <point x="491" y="72" type="curve"/>
    </contour>
    <contour>
      <point x="162" y="272" type="curve" smooth="yes"/>
      <point x="162" y="372.278"/>
      <point x="229.257" y="445"/>
      <point x="322" y="445" type="curve" smooth="yes"/>
      <point x="419.029" y="445"/>
      <point x="487" y="374.97"/>
      <point x="487" y="275" type="curve" smooth="yes"/>
      <point x="487" y="176.009"/>
      <point x="422.009" y="109"/>
      <point x="326" y="109" type="curve" smooth="yes"/>
      <point x="228.702" y="109"/>
      <point x="162" y="175.296"/>
    </contour>
    <contour>
      <point x="168" y="737" type="line"/>
      <point x="394" y="613" type="line"/>
      <point x="447" y="692" type="line"/>
      <point x="225" y="825" type="line"/>
    </contour>
  </outline>
</glyph>
<glyph name="aacute" format="2">
  <advance width="667"/>
  <unicode hex="00E1"/>
  <anchor x="347" y="840" name="Anchor-0"/>
  <outline>
    <component base="a"/>
    <contour>
      <point x="293" y="613" type="line"/>
      <point x="520" y="733" type="line"/>
      <point x="466" y="825" type="line"/>
      <point x="242" y="691" type="line"/>
    </contour>
  </outline>
</glyph>
<glyph name="acircumflex" format="2">
  <advance width="667"/>
  <unicode hex="00E2"/>
  <anchor x="347" y="840" name="Anchor-0"/>
  <outline>
    <component base="a"/>
    <contour>
      <point x="144" y="630" type="line"/>
      <point x="291" y="630" type="line"/>
      <point x="345" y="694" type="line"/>
      <point x="398" y="630" type="line"/>
      <point x="543" y="630" type="line"/>
      <point x="398" y="768" type="line"/>
      <point x="291" y="768" type="line"/>
    </contour>
  </outline>
</glyph>
<glyph name="atilde" format="2">
  <advance width="667"/>
  <unicode hex="00E3"/>
  <anchor x="347" y="840" name="Anchor-0"/>
  <outline>
    <component base="a"/>
    <contour>
      <point x="232" y="636" type="line"/>
      <point x="269.712" y="658.826"/>
      <point x="275.8" y="661"/>
      <point x="302" y="661" type="curve" smooth="yes"/>
      <point x="318.126" y="661"/>
      <point x="327.084" y="659.009"/>
      <point x="356" y="649" type="curve" smooth="yes"/>
      <point x="382.135" y="639.953"/>
      <point x="400.077" y="636"/>
      <point x="415" y="636" type="curve" smooth="yes"/>
      <point x="449.827" y="636"/>
      <point x="476.841" y="651.806"/>
      <point x="509" y="691" type="curve"/>
      <point x="455" y="772" type="line"/>
      <point x="434.117" y="748.134"/>
      <point x="414.147" y="738"/>
      <point x="388" y="738" type="curve" smooth="yes"/>
      <point x="373.36" y="738"/>
      <point x="360.062" y="741.112"/>
      <point x="341" y="749" type="curve" smooth="yes"/>
      <point x="312.277" y="760.885"/>
      <point x="303.214" y="763"/>
      <point x="281" y="763" type="curve" smooth="yes"/>
      <point x="239.149" y="763"/>
      <point x="213.125" y="751.125"/>
      <point x="178" y="716" type="curve"/>
    </contour>
  </outline>
</glyph>
<glyph name="adieresis" format="2">
  <advance width="667"/>
  <unicode hex="00E4"/>
  <anchor x="345" y="840" name="Anchor-0"/>
  <outline>
    <component base="a"/>
    <contour>
      <point x="172" y="630" type="line"/>
      <point x="305" y="630" type="line"/>
      <point x="305" y="763" type="line"/>
      <point x="172" y="763" type="line"/>
    </contour>
    <contour>
      <point x="382" y="630" type="line"/>
      <point x="515" y="630" type="line"/>
      <point x="515" y="763" type="line"/>
      <point x="382" y="763" type="line"/>
    </contour>
  </outline>
</glyph>
<glyph name="aring" format="2">
  <advance width="667"/>
  <unicode hex="00E5"/>
  <anchor x="345" y="840" name="Anchor-0"/>
  <outline>
    <component base="a"/>
    <contour>
      <point x="344" y="610" type="curve" smooth="yes"/>
      <point x="401" y="610"/>
      <point x="447" y="656"/>
      <point x="447" y="713" type="curve" smooth="yes"/>
      <point x="447" y="769.275"/>
      <point x="400.728" y="816"/>
      <point x="345" y="816" type="curve" smooth="yes"/>
      <point x="287.223" y="816"/>
      <point x="241" y="770.221"/>
      <point x="241" y="713" type="curve" smooth="yes"/>
      <point x="241" y="656"/>
      <point x="287" y="610"/>
    </contour>
    <contour>
      <point x="308" y="713" type="curve" smooth="yes"/>
      <point x="308" y="732.771"/>
      <point x="323.778" y="749"/>
      <point x="343" y="749" type="curve" smooth="yes"/>
      <point x="363.778" y="749"/>
      <point x="380" y="733.216"/>
      <point x="380" y="713" type="curve" smooth="yes"/>
      <point x="380" y="693"/>
      <point x="364" y="677"/>
      <point x="344" y="677" type="curve" smooth="yes"/>
      <point x="324" y="677"/>
      <point x="308" y="693"/>
    </contour>
  </outline>
</glyph>
<glyph name="ae" format="2">
  <advance width="1077"/>
  <unicode hex="00E6"/>
  <anchor x="544" y="630" name="Anchor-0"/>
  <outline>
    <contour>
      <point x="483" y="0" type="line"/>
      <point x="605" y="0" type="line"/>
      <point x="605" y="60" type="line"/>
      <point x="648.98" y="9.02358"/>
      <point x="699.966" y="-13"/>
      <point x="774" y="-13" type="curve" smooth="yes"/>
      <point x="887.54" y="-13"/>
      <point x="996.866" y="62.5887"/>
      <point x="1030" y="164" type="curve"/>
      <point x="885" y="164" type="line"/>
      <point x="853.303" y="125.369"/>
      <point x="818.482" y="109"/>
      <point x="768" y="109" type="curve" smooth="yes"/>
      <point x="693.073" y="109"/>
      <point x="635.022" y="149.933"/>
      <point x="612" y="219" type="curve"/>
      <point x="1040" y="219" type="line"/>
      <point x="1046.9" y="248.577"/>
      <point x="1049" y="264.667"/>
      <point x="1049" y="288" type="curve" smooth="yes"/>
      <point x="1049" y="444.56"/>
      <point x="927.437" y="567"/>
      <point x="772" y="567" type="curve" smooth="yes"/>
      <point x="701.059" y="567"/>
      <point x="652.039" y="547.04"/>
      <point x="605" y="499" type="curve"/>
      <point x="605" y="554" type="line"/>
      <point x="483" y="554" type="line"/>
      <point x="483" y="499" type="line"/>
      <point x="436.962" y="547.039"/>
      <point x="387.941" y="567"/>
      <point x="316" y="567" type="curve" smooth="yes"/>
      <point x="153.13" y="567"/>
      <point x="28" y="440.132"/>
      <point x="28" y="275" type="curve" smooth="yes"/>
      <point x="28" y="110.072"/>
      <point x="151.927" y="-13"/>
      <point x="318" y="-13" type="curve" smooth="yes"/>
      <point x="394.527" y="-13"/>
      <point x="438.308" y="6.3696"/>
      <point x="483" y="60" type="curve"/>
    </contour>
    <contour>
      <point x="322" y="109" type="curve" smooth="yes"/>
      <point x="230.083" y="109"/>
      <point x="162" y="180.912"/>
      <point x="162" y="278" type="curve" smooth="yes"/>
      <point x="162" y="371.803"/>
      <point x="230.814" y="445"/>
      <point x="319" y="445" type="curve" smooth="yes"/>
      <point x="410.917" y="445"/>
      <point x="479" y="373.088"/>
      <point x="479" y="276" type="curve" smooth="yes"/>
      <point x="479" y="180.634"/>
      <point x="411.656" y="109"/>
    </contour>
    <contour>
      <point x="605" y="337" type="line"/>
      <point x="630.818" y="409.489"/>
      <point x="681.454" y="445"/>
      <point x="759" y="445" type="curve" smooth="yes"/>
      <point x="840" y="445"/>
      <point x="890" y="409"/>
      <point x="909" y="337" type="curve"/>
    </contour>
  </outline>
</glyph>
<glyph name="eacute" format="2">
  <advance width="634"/>
  <unicode hex="00E9"/>
  <anchor x="324" y="840" name="Anchor-0"/>
  <outline>
    <component base="e"/>
    <contour>
      <point x="276" y="613" type="line"/>
      <point x="503" y="733" type="line"/>
      <point x="449" y="825" type="line"/>
      <point x="225" y="691" type="line"/>
    </contour>
  </outline>
</glyph>
<glyph name="edieresis" format="2">
  <advance width="634"/>
  <unicode hex="00EB"/>
  <anchor x="324" y="840" name="Anchor-0"/>
  <outline>
    <component base="e"/>
    <contour>
      <point x="153" y="630" type="line"/>
      <point x="286" y="630" type="line"/>
      <point x="286" y="763" type="line"/>
      <point x="153" y="763" type="line"/>
    </contour>
    <contour>
      <point x="363" y="630" type="line"/>
      <point x="496" y="630" type="line"/>
      <point x="496" y="763" type="line"/>
      <point x="363" y="763" type="line"/>
    </contour>
  </outline>
</glyph>
<glyph name="iacute" format="2">
  <advance width="241"/>
  <unicode hex="00ED"/>
  <anchor x="120" y="840" name="Anchor-0"/>
  <outline>
    <contour>
      <point x="54" y="0" type="line"/>
      <point x="187" y="0" type="line"/>
      <point x="187" y="554" type="line"/>
      <point x="54" y="554" type="line"/>
    </contour>
    <contour>
      <point x="35" y="613" type="line"/>
      <point x="262" y="733" type="line"/>
      <point x="208" y="825" type="line"/>
      <point x="-16" y="691" type="line"/>
    </contour>
  </outline>
</glyph>
<glyph name="eth" format="2">
  <advance width="645"/>
  <unicode hex="00F0"/>
  <anchor x="322" y="805" name="Anchor-0"/>
  <outline>
    <contour>
      <point x="28" y="278" type="curve" smooth="yes"/>
      <point x="28" y="117.605"/>
      <point x="160.4" y="-13"/>
      <point x="323" y="-13" type="curve" smooth="yes"/>
      <point x="488.157" y="-13"/>
      <point x="617" y="117.158"/>
      <point x="617" y="284" type="curve"/>
      <point x="617" y="410.021"/>
      <point x="546.332" y="526.075"/>
      <point x="385" y="665" type="curve"/>
      <point x="463" y="700" type="line"/>
      <point x="422" y="749" type="line"/>
      <point x="335" y="709" type="line"/>
      <point x="319.6" y="721.833"/>
      <point x="300.1" y="735.934"/>
      <point x="270" y="756" type="curve"/>
      <point x="167" y="721" type="line"/>
      <point x="191.108" y="705.529"/>
      <point x="210.921" y="689.395"/>
      <point x="237" y="664" type="curve"/>
      <point x="159" y="627" type="line"/>
      <point x="199" y="581" type="line"/>
      <point x="286" y="621" type="line"/>
      <point x="314.826" y="599.014"/>
      <point x="339.579" y="575.226"/>
      <point x="363" y="547" type="curve"/>
      <point x="335.269" y="552.942"/>
      <point x="312.167" y="556"/>
      <point x="295" y="556" type="curve" smooth="yes"/>
      <point x="150.469" y="556"/>
      <point x="28" y="428.485"/>
    </contour>
    <contour>
      <point x="162" y="277" type="curve" smooth="yes"/>
      <point x="162" y="368.722"/>
      <point x="233.738" y="445"/>
      <point x="320" y="445" type="curve" smooth="yes"/>
      <point x="411.314" y="445"/>
      <point x="483" y="370.675"/>
      <point x="483" y="276" type="curve" smooth="yes"/>
      <point x="483" y="183.842"/>
      <point x="410.847" y="109"/>
      <point x="322" y="109" type="curve" smooth="yes"/>
      <point x="233.714" y="109"/>
      <point x="162" y="184.3"/>
    </contour>
  </outline>
</glyph>
<glyph name="ntilde" format="2">
  <advance width="598"/>
  <unicode hex="00F1"/>
  <anchor x="300" y="840" name="Anchor-0"/>
  <outline>
    <component base="n"/>
    <contour>
      <point x="179" y="636" type="line"/>
      <point x="216.712" y="658.826"/>
      <point x="222.8" y="661"/>
      <point x="249" y="661" type="curve" smooth="yes"/>
      <point x="265.126" y="661"/>
      <point x="274.084" y="659.009"/>
      <point x="303" y="649" type="curve" smooth="yes"/>
      <point x="329.135" y="639.953"/>
      <point x="347.077" y="636"/>
      <point x="362" y="636" type="curve" smooth="yes"/>
      <point x="396.827" y="636"/>
      <point x="423.841" y="651.806"/>
      <point x="456" y="691" type="curve"/>
      <point x="402" y="772" type="line"/>
      <point x="381.117" y="748.134"/>
      <point x="361.147" y="738"/>
      <point x="335" y="738" type="curve" smooth="yes"/>
      <point x="320.36" y="738"/>
      <point x="307.062" y="741.112"/>
      <point x="288" y="749" type="curve" smooth="yes"/>
      <point x="259.277" y="760.885"/>
      <point x="250.214" y="763"/>
      <point x="228" y="763" type="curve" smooth="yes"/>
      <point x="186.149" y="763"/>
      <point x="160.125" y="751.125"/>
      <point x="125" y="716" type="curve"/>
    </contour>
  </outline>
</glyph>
<glyph name="otilde" format="2">
  <advance width="645"/>
  <unicode hex="00F5"/>
  <anchor x="322" y="840" name="Anchor-0"/>
  <outline>
    <component base="o"/>
    <contour>
      <point x="28" y="276" type="curve" smooth="yes"/>
      <point x="28" y="116.658"/>
      <point x="160.349" y="-13"/>
      <point x="323" y="-13" type="curve" smooth="yes"/>
      <point x="484.875" y="-13"/>
      <point x="617" y="116.878"/>
      <point x="617" y="276" type="curve" smooth="yes"/>
      <point x="617" y="436.224"/>
      <point x="485.775" y="567"/>
      <point x="325" y="567" type="curve" smooth="yes"/>
      <point x="159.33" y="567"/>
      <point x="28" y="438.323"/>
    </contour>
    <contour>
      <point x="322" y="109" type="curve" smooth="yes"/>
      <point x="233.714" y="109"/>
      <point x="162" y="184.3"/>
      <point x="162" y="277" type="curve" smooth="yes"/>
      <point x="162" y="368.722"/>
      <point x="233.738" y="445"/>
      <point x="320" y="445" type="curve" smooth="yes"/>
      <point x="411.314" y="445"/>
      <point x="483" y="370.675"/>
      <point x="483" y="276" type="curve" smooth="yes"/>
      <point x="483" y="183.842"/>
      <point x="410.847" y="109"/>
    </contour>
    <contour>
      <point x="214" y="636" type="line"/>
      <point x="251.712" y="658.826"/>
      <point x="257.8" y="661"/>
      <point x="284" y="661" type="curve" smooth="yes"/>
      <point x="300.126" y="661"/>
      <point x="309.084" y="659.009"/>
      <point x="338" y="649" type="curve" smooth="yes"/>
      <point x="364.135" y="639.953"/>
      <point x="382.077" y="636"/>
      <point x="397" y="636" type="curve" smooth="yes"/>
      <point x="431.827" y="636"/>
      <point x="458.841" y="651.806"/>
      <point x="491" y="691" type="curve"/>
      <point x="437" y="772" type="line"/>
      <point x="416.117" y="748.134"/>
      <point x="396.147" y="738"/>
      <point x="370" y="738" type="curve" smooth="yes"/>
      <point x="355.36" y="738"/>
      <point x="342.062" y="741.112"/>
      <point x="323" y="749" type="curve" smooth="yes"/>
      <point x="294.277" y="760.885"/>
      <point x="285.214" y="763"/>
      <point x="263" y="763" type="curve" smooth="yes"/>
      <point x="221.149" y="763"/>
      <point x="195.125" y="751.125"/>
      <point x="160" y="716" type="curve"/>
    </contour>
  </outline>
</glyph>
<glyph name="ugrave" format="2">
  <advance width="599"/>
  <unicode hex="00F9"/>
  <anchor x="298" y="840" name="Anchor-0"/>
  <outline>
    <component base="u"/>
    <contour>
      <point x="119" y="737" type="line"/>
      <point x="345" y="613" type="line"/>
      <point x="398" y="692" type="line"/>
      <point x="176" y="825" type="line"/>
    </contour>
  </outline>
</glyph>
<glyph name="uacute" format="2">
  <advance width="599"/>
  <unicode hex="00FA"/>
  <anchor x="298" y="840" name="Anchor-0"/>
  <outline>
    <component base="u"/>
    <contour>
      <point x="251" y="613" type="line"/>
      <point x="478" y="733" type="line"/>
      <point x="424" y="825" type="line"/>
      <point x="200" y="691" type="line"/>
    </contour>
  </outline>
</glyph>
<glyph name="ucircumflex" format="2">
  <advance width="599"/>
  <unicode hex="00FB"/>
  <anchor x="298" y="840" name="Anchor-0"/>
  <outline>
    <component base="u"/>
    <contour>
      <point x="99" y="630" type="line"/>
      <point x="246" y="630" type="line"/>
      <point x="300" y="694" type="line"/>
      <point x="353" y="630" type="line"/>
      <point x="498" y="630" type="line"/>
      <point x="353" y="768" type="line"/>
      <point x="246" y="768" type="line"/>
    </contour>
  </outline>
</glyph>
<glyph name="udieresis" format="2">
  <advance width="599"/>
  <unicode hex="00FC"/>
  <anchor x="298" y="840" name="Anchor-0"/>
  <outline>
    <component base="u"/>
    <contour>
      <point x="127" y="630" type="line"/>
      <point x="260" y="630" type="line"/>
      <point x="260" y="763" type="line"/>
      <point x="127" y="763" type="line"/>
    </contour>
    <contour>
      <point x="337" y="630" type="line"/>
      <point x="470" y="630" type="line"/>
      <point x="470" y="763" type="line"/>
      <point x="337" y="763" type="line"/>
    </contour>
  </outline>
</glyph>
<glyph name="thorn" format="2">
  <advance width="662"/>
  <unicode hex="00FE"/>
  <anchor x="328" y="805" name="Anchor-0"/>
  <outline>
    <contour>
      <point x="54" y="-185" type="line"/>
      <point x="187" y="-185" type="line"/>
      <point x="187" y="59" type="line"/>
      <point x="229.5" y="11.5581"/>
      <point x="288.167" y="-13"/>
      <point x="359" y="-13" type="curve" smooth="yes"/>
      <point x="519.129" y="-13"/>
      <point x="634" y="108.136"/>
      <point x="634" y="277" type="curve" smooth="yes"/>
      <point x="634" y="445.864"/>
      <point x="519.129" y="567"/>
      <point x="359" y="567" type="curve" smooth="yes"/>
      <point x="288.167" y="567"/>
      <point x="229.5" y="542.442"/>
      <point x="187" y="495" type="curve"/>
      <point x="187" y="739" type="line"/>
      <point x="54" y="739" type="line"/>
    </contour>
    <contour>
      <point x="341" y="109" type="curve" smooth="yes"/>
      <point x="248.214" y="109"/>
      <point x="179" y="180.778"/>
      <point x="179" y="277" type="curve" smooth="yes"/>
      <point x="179" y="372.047"/>
      <point x="248.045" y="445"/>
      <point x="338" y="445" type="curve" smooth="yes"/>
      <point x="430.786" y="445"/>
      <point x="500" y="373.222"/>
      <point x="500" y="277" type="curve" smooth="yes"/>
      <point x="500" y="181.953"/>
      <point x="430.955" y="109"/>
    </contour>
  </outline>
</glyph>
<glyph name="oe" format="2">
  <advance width="1074"/>
  <unicode hex="0153"/>
  <anchor x="537" y="630" name="Anchor-0"/>
  <outline>
    <contour>
      <point x="886" y="163" type="line"/>
      <point x="859.631" y="130.546"/>
      <point x="811.352" y="109"/>
      <point x="765" y="109" type="curve" smooth="yes"/>
      <point x="692.477" y="109"/>
      <point x="634.146" y="150.556"/>
      <point x="612" y="218" type="curve"/>
      <point x="1041" y="218" type="line"/>
      <point x="1044.78" y="243.535"/>
      <point x="1046" y="259.6"/>
      <point x="1046" y="284" type="curve" smooth="yes"/>
      <point x="1046" y="448.375"/>
      <point x="926.117" y="567"/>
      <point x="760" y="567" type="curve" smooth="yes"/>
      <point x="670.054" y="567"/>
      <point x="605.038" y="534.047"/>
      <point x="541" y="456" type="curve"/>
      <point x="475.615" y="535.007"/>
      <point x="411.341" y="567"/>
      <point x="318" y="567" type="curve" smooth="yes"/>
      <point x="156" y="567"/>
      <point x="28" y="439"/>
      <point x="28" y="277" type="curve" smooth="yes"/>
      <point x="28" y="111.143"/>
      <point x="153.855" y="-13"/>
      <point x="322" y="-13" type="curve" smooth="yes"/>
      <point x="417.615" y="-13"/>
      <point x="486.782" y="22.6887"/>
      <point x="541" y="100" type="curve"/>
      <point x="591.904" y="27.1369"/>
      <point x="671.823" y="-13"/>
      <point x="766" y="-13" type="curve" smooth="yes"/>
      <point x="886.142" y="-13"/>
      <point x="989.046" y="56.1264"/>
      <point x="1028" y="163" type="curve"/>
    </contour>
    <contour>
      <point x="327" y="109" type="curve" smooth="yes"/>
      <point x="233.136" y="109"/>
      <point x="162" y="181.861"/>
      <point x="162" y="278" type="curve" smooth="yes"/>
      <point x="162" y="371.006"/>
      <point x="232.006" y="445"/>
      <point x="320" y="445" type="curve" smooth="yes"/>
      <point x="414.565" y="445"/>
      <point x="484" y="373.448"/>
      <point x="484" y="276" type="curve" smooth="yes"/>
      <point x="484" y="181.166"/>
      <point x="416.156" y="109"/>
    </contour>
    <contour>
      <point x="606" y="335" type="line"/>
      <point x="631.021" y="408.061"/>
      <point x="682.064" y="445"/>
      <point x="758" y="445" type="curve" smooth="yes"/>
      <point x="836.773" y="445"/>
      <point x="886.939" y="408.211"/>
      <point x="908" y="335" type="curve"/>
    </contour>
  </outline>
</glyph>
<glyph name="Scaron" format="2">
  <advance width="524"/>
  <unicode hex="0160"/>
  <anchor x="261" y="1015" name="Anchor-0"/>
  <outline>
    <component base="S"/>
    <contour>
      <point x="62" y="943" type="line"/>
      <point x="209" y="805" type="line"/>
      <point x="316" y="805" type="line"/>
      <point x="461" y="943" type="line"/>
      <point x="316" y="943" type="line"/>
      <point x="263" y="879" type="line"/>
      <point x="209" y="943" type="line"/>
    </contour>
  </outline>
</glyph>
<glyph name="scaron" format="2">
  <advance width="438"/>
  <unicode hex="0161"/>
  <anchor x="220" y="840" name="Anchor-0"/>
  <outline>
    <component base="s"/>
    <contour>
      <point x="20" y="768" type="line"/>
      <point x="167" y="630" type="line"/>
      <point x="274" y="630" type="line"/>
      <point x="419" y="768" type="line"/>
      <point x="274" y="768" type="line"/>
      <point x="221" y="704" type="line"/>
      <point x="167" y="768" type="line"/>
    </contour>
  </outline>
</glyph>
<glyph name="breve" format="2">
  <advance width="458"/>
  <unicode hex="02D8"/>
  <outline>
    <contour>
      <point x="64" y="769" type="line"/>
      <point x="69.9972" y="681.042"/>
      <point x="130.953" y="630"/>
      <point x="230" y="630" type="curve" smooth="yes"/>
      <point x="325.554" y="630"/>
      <point x="391.017" y="685.484"/>
      <point x="394" y="769" type="curve"/>
      <point x="292" y="769" type="line"/>
      <point x="287.026" y="741.147"/>
      <point x="265.186" y="726"/>
      <point x="230" y="726" type="curve" smooth="yes"/>
      <point x="196.07" y="726"/>
      <point x="174.025" y="739.94"/>
      <point x="162" y="769" type="curve"/>
    </contour>
  </outline>
</glyph>
<glyph name="ring" format="2">
  <advance width="334"/>
  <unicode hex="02DA"/>
  <outline>
    <contour>
      <point x="167" y="610" type="curve" smooth="yes"/>
      <point x="224" y="610"/>
      <point x="270" y="656"/>
      <point x="270" y="713" type="curve" smooth="yes"/>
      <point x="270" y="769.275"/>
      <point x="223.728" y="816"/>
      <point x="168" y="816" type="curve" smooth="yes"/>
      <point x="110.223" y="816"/>
      <point x="64" y="770.221"/>
      <point x="64" y="713" type="curve" smooth="yes"/>
      <point x="64" y="656"/>
      <point x="110" y="610"/>
    </contour>
    <contour>
      <point x="131" y="713" type="curve" smooth="yes"/>
      <point x="131" y="732.771"/>
      <point x="146.778" y="749"/>
      <point x="166" y="749" type="curve" smooth="yes"/>
      <point x="186.778" y="749"/>
      <point x="203" y="733.216"/>
      <point x="203" y="713" type="curve" smooth="yes"/>
      <point x="203" y="693"/>
      <point x="187" y="677"/>
      <point x="167" y="677" type="curve" smooth="yes"/>
      <point x="147" y="677"/>
      <point x="131" y="693"/>
    </contour>
  </outline>
</glyph>
<glyph name="gravecomb" format="2">
  <unicode hex="0300"/>
  <anchor x="-323" y="840" name="Anchor-1"/>
  <anchor x="-323" y="630" name="_Anchor-1"/>
  <anchor x="-323" y="630" name="_Anchor-0"/>
  <outline>
    <contour>
      <point x="-495" y="737" type="line"/>
      <point x="-269" y="613" type="line"/>
      <point x="-216" y="692" type="line"/>
      <point x="-438" y="825" type="line"/>
    </contour>
  </outline>
</glyph>
<glyph name="acutecomb" format="2">
  <unicode hex="0301"/>
  <anchor x="-323" y="840" name="Anchor-1"/>
  <anchor x="-323" y="630" name="_Anchor-1"/>
  <anchor x="-323" y="630" name="_Anchor-0"/>
  <outline>
    <contour>
      <point x="-377" y="613" type="line"/>
      <point x="-150" y="733" type="line"/>
      <point x="-204" y="825" type="line"/>
      <point x="-428" y="691" type="line"/>
    </contour>
  </outline>
</glyph>
<glyph name="tildecomb" format="2">
  <unicode hex="0303"/>
  <anchor x="-323" y="840" name="Anchor-1"/>
  <anchor x="-323" y="630" name="_Anchor-1"/>
  <anchor x="-323" y="630" name="_Anchor-0"/>
  <outline>
    <contour>
      <point x="-431" y="636" type="line"/>
      <point x="-393.288" y="658.826"/>
      <point x="-387.2" y="661"/>
      <point x="-361" y="661" type="curve" smooth="yes"/>
      <point x="-344.874" y="661"/>
      <point x="-335.916" y="659.009"/>
      <point x="-307" y="649" type="curve" smooth="yes"/>
      <point x="-280.865" y="639.953"/>
      <point x="-262.923" y="636"/>
      <point x="-248" y="636" type="curve" smooth="yes"/>
      <point x="-213.173" y="636"/>
      <point x="-186.159" y="651.806"/>
      <point x="-154" y="691" type="curve"/>
      <point x="-208" y="772" type="line"/>
      <point x="-228.883" y="748.134"/>
      <point x="-248.853" y="738"/>
      <point x="-275" y="738" type="curve" smooth="yes"/>
      <point x="-289.64" y="738"/>
      <point x="-302.938" y="741.112"/>
      <point x="-322" y="749" type="curve" smooth="yes"/>
      <point x="-350.723" y="760.885"/>
      <point x="-359.786" y="763"/>
      <point x="-382" y="763" type="curve" smooth="yes"/>
      <point x="-423.851" y="763"/>
      <point x="-449.875" y="751.125"/>
      <point x="-485" y="716" type="curve"/>
    </contour>
  </outline>
</glyph>
<glyph name="macroncomb" format="2">
  <unicode hex="0304"/>
  <anchor x="-323" y="840" name="Anchor-1"/>
  <anchor x="-323" y="630" name="_Anchor-1"/>
  <anchor x="-323" y="630" name="_Anchor-0"/>
  <outline>
    <contour>
      <point x="-461" y="648" type="line"/>
      <point x="-184" y="648" type="line"/>
      <point x="-184" y="748" type="line"/>
      <point x="-461" y="748" type="line"/>
    </contour>
  </outline>
</glyph>
<glyph name="dotaccentcomb" format="2">
  <unicode hex="0307"/>
  <anchor x="-323" y="840" name="Anchor-1"/>
  <anchor x="-323" y="630" name="_Anchor-1"/>
  <anchor x="-323" y="630" name="_Anchor-0"/>
  <outline>
    <contour>
      <point x="-389" y="630" type="line"/>
      <point x="-256" y="630" type="line"/>
      <point x="-256" y="763" type="line"/>
      <point x="-389" y="763" type="line"/>
    </contour>
  </outline>
</glyph>
<glyph name="dieresiscomb" format="2">
  <unicode hex="0308"/>
  <anchor x="-323" y="840" name="Anchor-1"/>
  <anchor x="-323" y="630" name="_Anchor-1"/>
  <anchor x="-323" y="630" name="_Anchor-0"/>
  <outline>
    <contour>
      <point x="-494" y="630" type="line"/>
      <point x="-361" y="630" type="line"/>
      <point x="-361" y="763" type="line"/>
      <point x="-494" y="763" type="line"/>
    </contour>
    <contour>
      <point x="-284" y="630" type="line"/>
      <point x="-151" y="630" type="line"/>
      <point x="-151" y="763" type="line"/>
      <point x="-284" y="763" type="line"/>
    </contour>
  </outline>
</glyph>
<glyph name="hungarumlautcomb" format="2">
  <unicode hex="030B"/>
  <anchor x="-323" y="840" name="Anchor-1"/>
  <anchor x="-323" y="630" name="_Anchor-1"/>
  <anchor x="-323" y="630" name="_Anchor-0"/>
  <outline>
    <contour>
      <point x="-533" y="613" type="line"/>
      <point x="-311" y="745" type="line"/>
      <point x="-373" y="825" type="line"/>
      <point x="-583" y="682" type="line"/>
    </contour>
    <contour>
      <point x="-249" y="613" type="line"/>
      <point x="-28" y="745" type="line"/>
      <point x="-89" y="825" type="line"/>
      <point x="-300" y="682" type="line"/>
    </contour>
  </outline>
</glyph>
<glyph name="caroncomb" format="2">
  <unicode hex="030C"/>
  <anchor x="-323" y="840" name="Anchor-1"/>
  <anchor x="-323" y="630" name="_Anchor-1"/>
  <anchor x="-323" y="630" name="_Anchor-0"/>
  <outline>
    <contour>
      <point x="-522" y="768" type="line"/>
      <point x="-375" y="630" type="line"/>
      <point x="-268" y="630" type="line"/>
      <point x="-123" y="768" type="line"/>
      <point x="-268" y="768" type="line"/>
      <point x="-321" y="704" type="line"/>
      <point x="-375" y="768" type="line"/>
    </contour>
  </outline>
</glyph>
<glyph name="Djecyr" format="2">
  <advance width="693"/>
  <unicode hex="0402"/>
  <anchor x="230" y="805" name="Anchor-0"/>
  <outline>
    <contour>
      <point x="154" y="0" type="line"/>
      <point x="291" y="0" type="line"/>
      <point x="291" y="319" type="line"/>
      <point x="349" y="319" type="line" smooth="yes"/>
      <point x="474.826" y="319"/>
      <point x="528" y="291.67"/>
      <point x="528" y="227" type="curve" smooth="yes"/>
      <point x="528" y="165.953"/>
      <point x="471.688" y="118"/>
      <point x="400" y="118" type="curve"/>
      <point x="400" y="-13" type="line"/>
      <point x="558.544" y="-13"/>
      <point x="666" y="82.7406"/>
      <point x="666" y="224" type="curve" smooth="yes"/>
      <point x="666" y="381.231"/>
      <point x="566.803" y="450"/>
      <point x="340" y="450" type="curve" smooth="yes"/>
      <point x="291" y="450" type="line"/>
      <point x="291" y="608" type="line"/>
      <point x="468" y="608" type="line"/>
      <point x="468" y="739" type="line"/>
      <point x="7" y="739" type="line"/>
      <point x="7" y="608" type="line"/>
      <point x="154" y="608" type="line"/>
    </contour>
  </outline>
</glyph>
<glyph name="Eukrcyr" format="2">
  <advance width="802"/>
  <unicode hex="0404"/>
  <anchor x="420" y="805" name="Anchor-0"/>
  <outline>
    <contour>
      <point x="183" y="438" type="line"/>
      <point x="212.601" y="550.483"/>
      <point x="302.744" y="620"/>
      <point x="419" y="620" type="curve" smooth="yes"/>
      <point x="504.796" y="620"/>
      <point x="562.881" y="592.155"/>
      <point x="613" y="527" type="curve"/>
      <point x="766" y="527" type="line"/>
      <point x="701.876" y="668.988"/>
      <point x="572.747" y="752"/>
      <point x="416" y="752" type="curve" smooth="yes"/>
      <point x="207" y="752"/>
      <point x="36" y="581"/>
      <point x="36" y="372" type="curve" smooth="yes"/>
      <point x="36" y="158.111"/>
      <point x="208.888" y="-13"/>
      <point x="425" y="-13" type="curve" smooth="yes"/>
      <point x="577.103" y="-13"/>
      <point x="708.039" y="71.0911"/>
      <point x="766" y="206" type="curve"/>
      <point x="605" y="206" type="line"/>
      <point x="544.221" y="143.228"/>
      <point x="493.259" y="119"/>
      <point x="422" y="119" type="curve" smooth="yes"/>
      <point x="309.564" y="119"/>
      <point x="210.653" y="196.48"/>
      <point x="182" y="307" type="curve"/>
      <point x="546" y="307" type="line"/>
      <point x="546" y="438" type="line"/>
    </contour>
  </outline>
</glyph>
<glyph name="Ljecyr" format="2">
  <advance width="1012"/>
  <unicode hex="0409"/>
  <anchor x="540" y="805" name="Anchor-0"/>
  <outline>
    <contour>
      <point x="2" y="0" type="line"/>
      <point x="167" y="0" type="line"/>
      <point x="473" y="513" type="line"/>
      <point x="473" y="0" type="line"/>
      <point x="661" y="0" type="line" smooth="yes"/>
      <point x="880.312" y="0"/>
      <point x="985" y="72.3771"/>
      <point x="985" y="224" type="curve" smooth="yes"/>
      <point x="985" y="381.231"/>
      <point x="885.803" y="450"/>
      <point x="659" y="450" type="curve" smooth="yes"/>
      <point x="610" y="450" type="line"/>
      <point x="610" y="739" type="line"/>
      <point x="473" y="739" type="line"/>
    </contour>
    <contour>
      <point x="610" y="131" type="line"/>
      <point x="610" y="319" type="line"/>
      <point x="658" y="319" type="line" smooth="yes"/>
      <point x="783.471" y="319"/>
      <point x="847" y="288.076"/>
      <point x="847" y="227" type="curve" smooth="yes"/>
      <point x="847" y="158.735"/>
      <point x="794.42" y="131"/>
      <point x="665" y="131" type="curve" smooth="yes"/>
    </contour>
  </outline>
</glyph>
<glyph name="Njecyr" format="2">
  <advance width="1004"/>
  <unicode hex="040A"/>
  <anchor x="531" y="805" name="Anchor-0"/>
  <outline>
    <contour>
      <point x="71" y="0" type="line"/>
      <point x="208" y="0" type="line"/>
      <point x="208" y="319" type="line"/>
      <point x="465" y="319" type="line"/>
      <point x="465" y="0" type="line"/>
      <point x="653" y="0" type="line" smooth="yes"/>
      <point x="872.312" y="0"/>
      <point x="977" y="72.3771"/>
      <point x="977" y="224" type="curve" smooth="yes"/>
      <point x="977" y="381.231"/>
      <point x="877.803" y="450"/>
      <point x="651" y="450" type="curve" smooth="yes"/>
      <point x="602" y="450" type="line"/>
      <point x="602" y="739" type="line"/>
      <point x="465" y="739" type="line"/>
      <point x="465" y="450" type="line"/>
      <point x="208" y="450" type="line"/>
      <point x="208" y="739" type="line"/>
      <point x="71" y="739" type="line"/>
    </contour>
    <contour>
      <point x="602" y="131" type="line"/>
      <point x="602" y="319" type="line"/>
      <point x="650" y="319" type="line" smooth="yes"/>
      <point x="775.471" y="319"/>
      <point x="839" y="288.076"/>
      <point x="839" y="227" type="curve" smooth="yes"/>
      <point x="839" y="154.109"/>
      <point x="795.189" y="131"/>
      <point x="657" y="131" type="curve" smooth="yes"/>
    </contour>
  </outline>
</glyph>
<glyph name="Tshecyr" format="2">
  <advance width="702"/>
  <unicode hex="040B"/>
  <anchor x="235" y="805" name="Anchor-0"/>
  <outline>
    <contour>
      <point x="154" y="0" type="line"/>
      <point x="291" y="0" type="line"/>
      <point x="291" y="317" type="line"/>
      <point x="309.114" y="319.588"/>
      <point x="339.125" y="321"/>
      <point x="376" y="321" type="curve" smooth="yes"/>
      <point x="473.17" y="321"/>
      <point x="513" y="292.799"/>
      <point x="513" y="224" type="curve" smooth="yes"/>
      <point x="513" y="0" type="line"/>
      <point x="651" y="0" type="line"/>
      <point x="651" y="224" type="line" smooth="yes"/>
      <point x="651" y="359.372"/>
      <point x="555.934" y="452"/>
      <point x="417" y="452" type="curve" smooth="yes"/>
      <point x="322" y="452"/>
      <point x="291" y="448"/>
      <point x="291" y="448" type="curve"/>
      <point x="291" y="608" type="line"/>
      <point x="468" y="608" type="line"/>
      <point x="468" y="739" type="line"/>
      <point x="7" y="739" type="line"/>
      <point x="7" y="608" type="line"/>
      <point x="154" y="608" type="line"/>
    </contour>
  </outline>
</glyph>
<glyph name="Becyr" format="2">
  <advance width="599"/>
  <unicode hex="0411"/>
  <anchor x="281" y="805" name="Anchor-0"/>
  <outline>
    <contour>
      <point x="208" y="131" type="line"/>
      <point x="208" y="331" type="line"/>
      <point x="252" y="331" type="line" smooth="yes"/>
      <point x="291.432" y="331"/>
      <point x="326.741" y="327.229"/>
      <point x="355" y="320" type="curve" smooth="yes"/>
      <point x="397.776" y="309.057"/>
      <point x="425" y="275.221"/>
      <point x="425" y="233" type="curve" smooth="yes"/>
      <point x="425" y="185.873"/>
      <point x="397.882" y="149.97"/>
      <point x="354" y="139" type="curve"/>
      <point x="325.667" y="133.097"/>
      <point x="300.5" y="131"/>
      <point x="258" y="131" type="curve" smooth="yes"/>
    </contour>
    <contour>
      <point x="71" y="0" type="line"/>
      <point x="256" y="0" type="line" smooth="yes"/>
      <point x="364.746" y="0"/>
      <point x="418.47" y="9.81506"/>
      <point x="464" y="38" type="curve" smooth="yes"/>
      <point x="527.31" y="77.1918"/>
      <point x="563" y="146.409"/>
      <point x="563" y="230" type="curve" smooth="yes"/>
      <point x="563" y="318.725"/>
      <point x="521.301" y="396.002"/>
      <point x="454" y="432" type="curve" smooth="yes"/>
      <point x="411.65" y="454.653"/>
      <point x="362.667" y="462"/>
      <point x="254" y="462" type="curve" smooth="yes"/>
      <point x="208" y="462" type="line"/>
      <point x="208" y="608" type="line"/>
      <point x="516" y="608" type="line"/>
      <point x="516" y="739" type="line"/>
      <point x="71" y="739" type="line"/>
    </contour>
  </outline>
</glyph>
<glyph name="Zecyr" format="2">
  <advance width="554"/>
  <unicode hex="0417"/>
  <anchor x="276" y="805" name="Anchor-0"/>
  <outline>
    <contour>
      <point x="30" y="225" type="line"/>
      <point x="30" y="93.6598"/>
      <point x="139.349" y="-13"/>
      <point x="274" y="-13" type="curve" smooth="yes"/>
      <point x="408.651" y="-13"/>
      <point x="518" y="93.6598"/>
      <point x="518" y="225" type="curve" smooth="yes"/>
      <point x="518" y="296.111"/>
      <point x="466.15" y="371.006"/>
      <point x="401" y="394" type="curve"/>
      <point x="457.869" y="412.054"/>
      <point x="495" y="467.75"/>
      <point x="495" y="535" type="curve" smooth="yes"/>
      <point x="495" y="655.387"/>
      <point x="396.606" y="752"/>
      <point x="274" y="752" type="curve" smooth="yes"/>
      <point x="151.394" y="752"/>
      <point x="53" y="655.387"/>
      <point x="53" y="535" type="curve"/>
      <point x="186" y="535" type="line"/>
      <point x="186" y="582.443"/>
      <point x="225.453" y="621"/>
      <point x="274" y="621" type="curve" smooth="yes"/>
      <point x="322.547" y="621"/>
      <point x="362" y="582.443"/>
      <point x="362" y="535" type="curve" smooth="yes"/>
      <point x="362" y="479.442"/>
      <point x="314.2" y="450"/>
      <point x="224" y="450" type="curve"/>
      <point x="224" y="330" type="line"/>
      <point x="334.186" y="330"/>
      <point x="380" y="299.163"/>
      <point x="380" y="225" type="curve" smooth="yes"/>
      <point x="380" y="166"/>
      <point x="333" y="119"/>
      <point x="274" y="119" type="curve" smooth="yes"/>
      <point x="215" y="119"/>
      <point x="168" y="166"/>
      <point x="168" y="225" type="curve"/>
    </contour>
  </outline>
</glyph>
<glyph name="Ishortcyr" format="2">
  <advance width="738"/>
  <unicode hex="0419"/>
  <anchor x="369" y="1015" name="Anchor-0"/>
  <outline>
    <contour>
      <point x="192" y="937" type="line"/>
      <point x="206.973" y="848.098"/>
      <point x="272.372" y="796"/>
      <point x="369" y="796" type="curve" smooth="yes"/>
      <point x="465.628" y="796"/>
      <point x="531.027" y="848.098"/>
      <point x="546" y="937" type="curve"/>
      <point x="431" y="937" type="line"/>
      <point x="431" y="884.371"/>
      <point x="411.934" y="861"/>
      <point x="369" y="861" type="curve" smooth="yes"/>
      <point x="326.066" y="861"/>
      <point x="307" y="884.371"/>
      <point x="307" y="937" type="curve"/>
    </contour>
    <contour>
      <point x="71" y="0" type="line"/>
      <point x="210" y="0" type="line"/>
      <point x="531" y="512" type="line"/>
      <point x="531" y="0" type="line"/>
      <point x="667" y="0" type="line"/>
      <point x="667" y="739" type="line"/>
      <point x="528" y="739" type="line"/>
      <point x="207" y="227" type="line"/>
      <point x="207" y="739" type="line"/>
      <point x="71" y="739" type="line"/>
    </contour>
  </outline>
</glyph>
<glyph name="Efcyr" format="2">
  <advance width="811"/>
  <unicode hex="0424"/>
  <anchor x="405" y="805" name="Anchor-0"/>
  <outline>
    <contour>
      <point x="337" y="0" type="line"/>
      <point x="474" y="0" type="line"/>
      <point x="474" y="57" type="line"/>
      <point x="653.866" y="84.4372"/>
      <point x="781" y="216.541"/>
      <point x="781" y="376" type="curve" smooth="yes"/>
      <point x="781" y="535.459"/>
      <point x="653.866" y="667.563"/>
      <point x="474" y="695" type="curve"/>
      <point x="474" y="739" type="line"/>
      <point x="337" y="739" type="line"/>
      <point x="337" y="695" type="line"/>
      <point x="157.545" y="667.47"/>
      <point x="30" y="534.94"/>
      <point x="30" y="376" type="curve" smooth="yes"/>
      <point x="30" y="217.06"/>
      <point x="157.545" y="84.5301"/>
      <point x="337" y="57" type="curve"/>
    </contour>
    <contour>
      <point x="337" y="191" type="line"/>
      <point x="235.536" y="214.337"/>
      <point x="168" y="288.266"/>
      <point x="168" y="376" type="curve" smooth="yes"/>
      <point x="168" y="463.438"/>
      <point x="235.181" y="536.582"/>
      <point x="337" y="560" type="curve"/>
    </contour>
    <contour>
      <point x="474" y="561" type="line"/>
      <point x="575.464" y="537.663"/>
      <point x="643" y="463.734"/>
      <point x="643" y="376" type="curve" smooth="yes"/>
      <point x="643" y="288.266"/>
      <point x="575.464" y="214.337"/>
      <point x="474" y="191" type="curve"/>
    </contour>
  </outline>
</glyph>
<glyph name="Checyr" format="2">
  <advance width="627"/>
  <unicode hex="0427"/>
  <anchor x="311" y="805" name="Anchor-0"/>
  <outline>
    <contour>
      <point x="419" y="0" type="line"/>
      <point x="556" y="0" type="line"/>
      <point x="556" y="739" type="line"/>
      <point x="419" y="739" type="line"/>
      <point x="419" y="409" type="line"/>
      <point x="382.16" y="401.035"/>
      <point x="348.227" y="398"/>
      <point x="296" y="398" type="curve" smooth="yes"/>
      <point x="216.949" y="398"/>
      <point x="187" y="432.894"/>
      <point x="187" y="525" type="curve" smooth="yes"/>
      <point x="187" y="739" type="line"/>
      <point x="50" y="739" type="line"/>
      <point x="50" y="490" type="line" smooth="yes"/>
      <point x="50" y="339.718"/>
      <point x="122.392" y="267"/>
      <point x="272" y="267" type="curve" smooth="yes"/>
      <point x="311.344" y="267"/>
      <point x="355.678" y="271.825"/>
      <point x="419" y="283" type="curve"/>
    </contour>
  </outline>
</glyph>
<glyph name="Softcyr" format="2">
  <advance width="610"/>
  <unicode hex="042C"/>
  <anchor x="139" y="805" name="Anchor-0"/>
  <outline>
    <contour>
      <point x="71" y="0" type="line"/>
      <point x="259" y="0" type="line" smooth="yes"/>
      <point x="373.361" y="0"/>
      <point x="429.48" y="9.48142"/>
      <point x="478" y="37" type="curve" smooth="yes"/>
      <point x="545.279" y="75.158"/>
      <point x="583" y="142.338"/>
      <point x="583" y="224" type="curve" smooth="yes"/>
      <point x="583" y="311.023"/>
      <point x="539.089" y="386.246"/>
      <point x="468" y="421" type="curve" smooth="yes"/>
      <point x="423.405" y="442.802"/>
      <point x="371.034" y="450"/>
      <point x="257" y="450" type="curve" smooth="yes"/>
      <point x="208" y="450" type="line"/>
      <point x="208" y="739" type="line"/>
      <point x="71" y="739" type="line"/>
    </contour>
    <contour>
      <point x="208" y="131" type="line"/>
      <point x="208" y="319" type="line"/>
      <point x="256" y="319" type="line" smooth="yes"/>
      <point x="302.48" y="319"/>
      <point x="340.739" y="315.614"/>
      <point x="369" y="309" type="curve" smooth="yes"/>
      <point x="416.171" y="297.96"/>
      <point x="445" y="266.855"/>
      <point x="445" y="227" type="curve" smooth="yes"/>
      <point x="445" y="182.26"/>
      <point x="416.28" y="149.064"/>
      <point x="368" y="138" type="curve"/>
      <point x="340.673" y="132.745"/>
      <point x="314.5" y="131"/>
      <point x="263" y="131" type="curve" smooth="yes"/>
    </contour>
  </outline>
</glyph>
<glyph name="Yucyr" format="2">
  <advance width="1109"/>
  <unicode hex="042E"/>
  <anchor x="605" y="805" name="Anchor-0"/>
  <outline>
    <contour>
      <point x="429" y="370" type="curve" smooth="yes"/>
      <point x="429" y="511.656"/>
      <point x="540.664" y="626"/>
      <point x="679" y="626" type="curve" smooth="yes"/>
      <point x="825.926" y="626"/>
      <point x="935" y="516.074"/>
      <point x="935" y="368" type="curve" smooth="yes"/>
      <point x="935" y="222.07"/>
      <point x="828.069" y="113"/>
      <point x="685" y="113" type="curve" smooth="yes"/>
      <point x="541.78" y="113"/>
      <point x="429" y="226.221"/>
    </contour>
    <contour>
      <point x="71" y="0" type="line"/>
      <point x="208" y="0" type="line"/>
      <point x="208" y="310" type="line"/>
      <point x="295" y="310" type="line"/>
      <point x="323.327" y="119.801"/>
      <point x="488.286" y="-19"/>
      <point x="686" y="-19" type="curve" smooth="yes"/>
      <point x="903.937" y="-19"/>
      <point x="1073" y="150.937"/>
      <point x="1073" y="370" type="curve" smooth="yes"/>
      <point x="1073" y="584.33"/>
      <point x="900.673" y="758"/>
      <point x="688" y="758" type="curve" smooth="yes"/>
      <point x="492.14" y="758"/>
      <point x="330.538" y="626.982"/>
      <point x="297" y="441" type="curve"/>
      <point x="208" y="441" type="line"/>
      <point x="208" y="739" type="line"/>
      <point x="71" y="739" type="line"/>
    </contour>
  </outline>
</glyph>
<glyph name="Yacyr" format="2">
  <advance width="605"/>
  <unicode hex="042F"/>
  <anchor x="300" y="805" name="Anchor-0"/>
  <outline>
    <contour>
      <point x="397" y="398" type="line"/>
      <point x="355" y="398" type="line" smooth="yes"/>
      <point x="314" y="398"/>
      <point x="279.575" y="401.825"/>
      <point x="256" y="409" type="curve"/>
      <point x="215.956" y="419.744"/>
      <point x="190" y="455.924"/>
      <point x="190" y="501" type="curve" smooth="yes"/>
      <point x="190" y="551.03"/>
      <point x="215.847" y="589.222"/>
      <point x="257" y="600" type="curve"/>
      <point x="282.563" y="605.81"/>
      <point x="307.75" y="608"/>
      <point x="349" y="608" type="curve" smooth="yes"/>
      <point x="397" y="608" type="line"/>
    </contour>
    <contour>
      <point x="22" y="0" type="line"/>
      <point x="180" y="0" type="line"/>
      <point x="341" y="267" type="line"/>
      <point x="397" y="267" type="line"/>
      <point x="397" y="0" type="line"/>
      <point x="534" y="0" type="line"/>
      <point x="534" y="739" type="line"/>
      <point x="350" y="739" type="line" smooth="yes"/>
      <point x="245.703" y="739"/>
      <point x="193.858" y="728.94"/>
      <point x="149" y="700" type="curve" smooth="yes"/>
      <point x="87.1012" y="660.065"/>
      <point x="52" y="589.139"/>
      <point x="52" y="504" type="curve" smooth="yes"/>
      <point x="52" y="414.547"/>
      <point x="92.2289" y="336.366"/>
      <point x="158" y="298" type="curve" smooth="yes"/>
      <point x="170.222" y="290.87"/>
      <point x="182.268" y="285.929"/>
      <point x="197" y="282" type="curve"/>
    </contour>
  </outline>
</glyph>
<glyph name="becyr" format="2">
  <advance width="651"/>
  <unicode hex="0431"/>
  <anchor x="329" y="840" name="Anchor-0"/>
  <outline>
    <contour>
      <point x="148.187" y="451" type="line"/>
      <point x="149.223" y="581.468"/>
      <point x="211.741" y="645.283"/>
      <point x="350" y="657" type="curve" smooth="yes"/>
      <point x="586" y="677" type="line"/>
      <point x="586" y="796" type="line"/>
      <point x="345" y="777" type="line" smooth="yes"/>
      <point x="140.037" y="760.841"/>
      <point x="39.1685" y="641.941"/>
      <point x="39.1685" y="416.498" type="curve" smooth="yes"/>
      <point x="39.1685" y="307.02" type="line" smooth="yes"/>
      <point x="39.1685" y="109.367"/>
      <point x="149.992" y="-13"/>
      <point x="329" y="-13" type="curve" smooth="yes"/>
      <point x="491.724" y="-13"/>
      <point x="623" y="114.704"/>
      <point x="623" y="273" type="curve" smooth="yes"/>
      <point x="623" y="434.852"/>
      <point x="505.997" y="556"/>
      <point x="349.682" y="556" type="curve" smooth="yes"/>
      <point x="272.719" y="556"/>
      <point x="178.921" y="506.161"/>
      <point x="150.187" y="450" type="curve"/>
    </contour>
    <contour>
      <point x="328" y="109" type="curve" smooth="yes"/>
      <point x="238.909" y="109"/>
      <point x="168" y="182.125"/>
      <point x="168" y="274" type="curve" smooth="yes"/>
      <point x="168" y="363.361"/>
      <point x="239.38" y="437"/>
      <point x="326" y="437" type="curve" smooth="yes"/>
      <point x="417.22" y="437"/>
      <point x="489" y="364.779"/>
      <point x="489" y="273" type="curve" smooth="yes"/>
      <point x="489" y="181.671"/>
      <point x="417.659" y="109"/>
    </contour>
  </outline>
</glyph>
<glyph name="vecyr" format="2">
  <advance width="541"/>
  <unicode hex="0432"/>
  <anchor x="254" y="630" name="Anchor-0"/>
  <outline>
    <contour>
      <point x="54" y="0" type="line"/>
      <point x="317" y="0" type="line" smooth="yes"/>
      <point x="427.059" y="0"/>
      <point x="509" y="76.3932"/>
      <point x="509" y="179" type="curve" smooth="yes"/>
      <point x="509" y="227.265"/>
      <point x="477.441" y="268.709"/>
      <point x="426" y="288" type="curve"/>
      <point x="463.654" y="303.505"/>
      <point x="491" y="343.892"/>
      <point x="491" y="384" type="curve" smooth="yes"/>
      <point x="491" y="490.211"/>
      <point x="412.576" y="554"/>
      <point x="282" y="554" type="curve" smooth="yes"/>
      <point x="54" y="554" type="line"/>
    </contour>
    <contour>
      <point x="187" y="334" type="line"/>
      <point x="187" y="433" type="line"/>
      <point x="281" y="433" type="line" smooth="yes"/>
      <point x="333.908" y="433"/>
      <point x="364" y="415.235"/>
      <point x="364" y="384" type="curve" smooth="yes"/>
      <point x="364" y="352.133"/>
      <point x="333.9" y="334"/>
      <point x="281" y="334" type="curve" smooth="yes"/>
    </contour>
    <contour>
      <point x="187" y="121" type="line"/>
      <point x="187" y="237" type="line"/>
      <point x="308" y="237" type="line" smooth="yes"/>
      <point x="348.216" y="237"/>
      <point x="375" y="213.813"/>
      <point x="375" y="179" type="curve" smooth="yes"/>
      <point x="375" y="144.187"/>
      <point x="348.216" y="121"/>
      <point x="308" y="121" type="curve" smooth="yes"/>
    </contour>
  </outline>
</glyph>
<glyph name="gecyr" format="2">
  <advance width="386"/>
  <unicode hex="0433"/>
  <anchor x="211" y="630" name="Anchor-0"/>
  <outline>
    <contour>
      <point x="54" y="0" type="line"/>
      <point x="187" y="0" type="line"/>
      <point x="187" y="433" type="line"/>
      <point x="368" y="433" type="line"/>
      <point x="368" y="554" type="line"/>
      <point x="54" y="554" type="line"/>
    </contour>
  </outline>
</glyph>
<glyph name="zecyr" format="2">
  <advance width="478"/>
  <unicode hex="0437"/>
  <anchor x="235" y="630" name="Anchor-0"/>
  <outline>
    <contour>
      <point x="24" y="175" type="line"/>
      <point x="31.2775" y="68.9566"/>
      <point x="123.261" y="-13"/>
      <point x="235" y="-13" type="curve" smooth="yes"/>
      <point x="351.362" y="-13"/>
      <point x="446" y="71.3223"/>
      <point x="446" y="175" type="curve" smooth="yes"/>
      <point x="446" y="225.944"/>
      <point x="403.164" y="275.704"/>
      <point x="347" y="290" type="curve"/>
      <point x="347" y="293" type="line"/>
      <point x="392.627" y="303.243"/>
      <point x="426" y="345.487"/>
      <point x="426" y="393" type="curve" smooth="yes"/>
      <point x="426" y="490.06"/>
      <point x="340.934" y="568"/>
      <point x="235" y="568" type="curve" smooth="yes"/>
      <point x="130.909" y="568"/>
      <point x="49.1307" y="493.849"/>
      <point x="42" y="393" type="curve"/>
      <point x="167" y="393" type="line"/>
      <point x="173.587" y="425.937"/>
      <point x="200.111" y="447"/>
      <point x="235" y="447" type="curve" smooth="yes"/>
      <point x="269.148" y="447"/>
      <point x="297" y="422.742"/>
      <point x="297" y="393" type="curve" smooth="yes"/>
      <point x="297" y="348.833"/>
      <point x="268.524" y="331"/>
      <point x="198" y="331" type="curve"/>
      <point x="198" y="243" type="line"/>
      <point x="281.798" y="243"/>
      <point x="312" y="224.985"/>
      <point x="312" y="175" type="curve" smooth="yes"/>
      <point x="312" y="138.071"/>
      <point x="278.083" y="109"/>
      <point x="235" y="109" type="curve" smooth="yes"/>
      <point x="192.758" y="109"/>
      <point x="160.073" y="136.306"/>
      <point x="156" y="175" type="curve"/>
    </contour>
  </outline>
</glyph>
<glyph name="icyr" format="2">
  <advance width="623"/>
  <unicode hex="0438"/>
  <anchor x="311" y="630" name="Anchor-0"/>
  <outline>
    <contour>
      <point x="54" y="0" type="line"/>
      <point x="189" y="0" type="line"/>
      <point x="437" y="366" type="line"/>
      <point x="437" y="0" type="line"/>
      <point x="569" y="0" type="line"/>
      <point x="569" y="554" type="line"/>
      <point x="434" y="554" type="line"/>
      <point x="186" y="188" type="line"/>
      <point x="186" y="554" type="line"/>
      <point x="54" y="554" type="line"/>
    </contour>
  </outline>
</glyph>
<glyph name="ishortcyr" format="2">
  <advance width="623"/>
  <unicode hex="0439"/>
  <anchor x="311" y="840" name="Anchor-0"/>
  <outline>
    <contour>
      <point x="147" y="746" type="line"/>
      <point x="161.378" y="659.733"/>
      <point x="216.885" y="616"/>
      <point x="312" y="616" type="curve" smooth="yes"/>
      <point x="407.115" y="616"/>
      <point x="462.622" y="659.733"/>
      <point x="477" y="746" type="curve"/>
      <point x="376" y="746" type="line"/>
      <point x="376" y="696.039"/>
      <point x="357.035" y="675"/>
      <point x="312" y="675" type="curve" smooth="yes"/>
      <point x="266.965" y="675"/>
      <point x="248" y="696.039"/>
      <point x="248" y="746" type="curve"/>
    </contour>
    <contour>
      <point x="54" y="0" type="line"/>
      <point x="189" y="0" type="line"/>
      <point x="437" y="366" type="line"/>
      <point x="437" y="0" type="line"/>
      <point x="569" y="0" type="line"/>
      <point x="569" y="554" type="line"/>
      <point x="434" y="554" type="line"/>
      <point x="186" y="188" type="line"/>
      <point x="186" y="554" type="line"/>
      <point x="54" y="554" type="line"/>
    </contour>
  </outline>
</glyph>
<glyph name="elcyr" format="2">
  <advance width="572"/>
  <unicode hex="043B"/>
  <anchor x="286" y="630" name="Anchor-0"/>
  <outline>
    <contour>
      <point x="3" y="0" type="line"/>
      <point x="145" y="0" type="line"/>
      <point x="286" y="368" type="line"/>
      <point x="427" y="0" type="line"/>
      <point x="569" y="0" type="line"/>
      <point x="338" y="554" type="line"/>
      <point x="234" y="554" type="line"/>
    </contour>
  </outline>
</glyph>
<glyph name="pecyr" format="2">
  <advance width="618"/>
  <unicode hex="043F"/>
  <anchor x="309" y="630" name="Anchor-0"/>
  <outline>
    <contour>
      <point x="54" y="0" type="line"/>
      <point x="187" y="0" type="line"/>
      <point x="187" y="433" type="line"/>
      <point x="431" y="433" type="line"/>
      <point x="431" y="0" type="line"/>
      <point x="564" y="0" type="line"/>
      <point x="564" y="554" type="line"/>
      <point x="54" y="554" type="line"/>
    </contour>
  </outline>
</glyph>
<glyph name="tecyr" format="2">
  <advance width="427"/>
  <unicode hex="0442"/>
  <anchor x="213" y="630" name="Anchor-0"/>
  <outline>
    <contour>
      <point x="147" y="0" type="line"/>
      <point x="280" y="0" type="line"/>
      <point x="280" y="433" type="line"/>
      <point x="409" y="433" type="line"/>
      <point x="409" y="554" type="line"/>
      <point x="18" y="554" type="line"/>
      <point x="18" y="433" type="line"/>
      <point x="147" y="433" type="line"/>
    </contour>
  </outline>
</glyph>
<glyph name="efcyr" format="2">
  <advance width="779"/>
  <unicode hex="0444"/>
  <anchor x="389" y="805" name="Anchor-0"/>
  <outline>
    <contour>
      <point x="323" y="-185" type="line"/>
      <point x="456" y="-185" type="line"/>
      <point x="456" y="-10" type="line"/>
      <point x="652.412" y="6.13045"/>
      <point x="746" y="98.4276"/>
      <point x="746" y="276" type="curve" smooth="yes"/>
      <point x="746" y="454.286"/>
      <point x="651.709" y="547.927"/>
      <point x="456" y="564" type="curve"/>
      <point x="456" y="739" type="line"/>
      <point x="323" y="739" type="line"/>
      <point x="323" y="564" type="line"/>
      <point x="127.257" y="546.896"/>
      <point x="33" y="453.29"/>
      <point x="33" y="276" type="curve" smooth="yes"/>
      <point x="33" y="98.9207"/>
      <point x="127.047" y="6.17088"/>
      <point x="323" y="-10" type="curve"/>
    </contour>
    <contour>
      <point x="323" y="113" type="line"/>
      <point x="216.343" y="126.452"/>
      <point x="167" y="178.01"/>
      <point x="167" y="276" type="curve" smooth="yes"/>
      <point x="167" y="374.202"/>
      <point x="216.555" y="426.615"/>
      <point x="323" y="441" type="curve"/>
    </contour>
    <contour>
      <point x="456" y="441" type="line"/>
      <point x="562.879" y="426.686"/>
      <point x="612" y="374.731"/>
      <point x="612" y="276" type="curve" smooth="yes"/>
      <point x="612" y="177.487"/>
      <point x="563.094" y="126.387"/>
      <point x="456" y="113" type="curve"/>
    </contour>
  </outline>
</glyph>
<glyph name="tsecyr" format="2">
  <advance width="662"/>
  <unicode hex="0446"/>
  <anchor x="298" y="630" name="Anchor-0"/>
  <outline>
    <contour>
      <point x="54" y="0" type="line"/>
      <point x="525" y="0" type="line"/>
      <point x="553" y="-132" type="line"/>
      <point x="649" y="-132" type="line"/>
      <point x="649" y="121" type="line"/>
      <point x="543" y="121" type="line"/>
      <point x="543" y="554" type="line"/>
      <point x="410" y="554" type="line"/>
      <point x="410" y="121" type="line"/>
      <point x="187" y="121" type="line"/>
      <point x="187" y="554" type="line"/>
      <point x="54" y="554" type="line"/>
    </contour>
  </outline>
</glyph>
<glyph name="checyr" format="2">
  <advance width="534"/>
  <unicode hex="0447"/>
  <anchor x="256" y="630" name="Anchor-0"/>
  <outline>
    <contour>
      <point x="347" y="0" type="line"/>
      <point x="480" y="0" type="line"/>
      <point x="480" y="554" type="line"/>
      <point x="347" y="554" type="line"/>
      <point x="347" y="316" type="line"/>
      <point x="318.067" y="309.8"/>
      <point x="291" y="307"/>
      <point x="260" y="307" type="curve" smooth="yes"/>
      <point x="188.163" y="307"/>
      <point x="168" y="325.848"/>
      <point x="168" y="393" type="curve" smooth="yes"/>
      <point x="168" y="554" type="line"/>
      <point x="35" y="554" type="line"/>
      <point x="35" y="393" type="line" smooth="yes"/>
      <point x="35" y="262.676"/>
      <point x="105.379" y="186"/>
      <point x="225" y="186" type="curve" smooth="yes"/>
      <point x="265.923" y="186"/>
      <point x="296.147" y="189.221"/>
      <point x="347" y="199" type="curve"/>
    </contour>
  </outline>
</glyph>
<glyph name="shchacyr" format="2">
  <advance width="898"/>
  <unicode hex="0449"/>
  <anchor x="416" y="630" name="Anchor-0"/>
  <outline>
    <contour>
      <point x="54" y="0" type="line"/>
      <point x="761" y="0" type="line"/>
      <point x="789" y="-132" type="line"/>
      <point x="885" y="-132" type="line"/>
      <point x="885" y="121" type="line"/>
      <point x="779" y="121" type="line"/>
      <point x="779" y="554" type="line"/>
      <point x="646" y="554" type="line"/>
      <point x="646" y="121" type="line"/>
      <point x="483" y="121" type="line"/>
      <point x="483" y="554" type="line"/>
      <point x="350" y="554" type="line"/>
      <point x="350" y="121" type="line"/>
      <point x="187" y="121" type="line"/>
      <point x="187" y="554" type="line"/>
      <point x="54" y="554" type="line"/>
    </contour>
  </outline>
</glyph>
<glyph name="hardcyr" format="2">
  <advance width="620"/>
  <unicode hex="044A"/>
  <anchor x="228" y="630" name="Anchor-0"/>
  <outline>
    <contour>
      <point x="162" y="0" type="line"/>
      <point x="406" y="0" type="line" smooth="yes"/>
      <point x="515.192" y="0"/>
      <point x="598" y="78.4948"/>
      <point x="598" y="182" type="curve" smooth="yes"/>
      <point x="598" y="285.505"/>
      <point x="515.192" y="364"/>
      <point x="406" y="364" type="curve" smooth="yes"/>
      <point x="295" y="364" type="line"/>
      <point x="295" y="554" type="line"/>
      <point x="18" y="554" type="line"/>
      <point x="18" y="433" type="line"/>
      <point x="162" y="433" type="line"/>
    </contour>
    <contour>
      <point x="295" y="121" type="line"/>
      <point x="295" y="243" type="line"/>
      <point x="397" y="243" type="line" smooth="yes"/>
      <point x="436.221" y="243"/>
      <point x="464" y="217.709"/>
      <point x="464" y="182" type="curve" smooth="yes"/>
      <point x="464" y="146.291"/>
      <point x="436.221" y="121"/>
      <point x="397" y="121" type="curve" smooth="yes"/>
    </contour>
  </outline>
</glyph>
<glyph name="softcyr" format="2">
  <advance width="512"/>
  <unicode hex="044C"/>
  <anchor x="120" y="630" name="Anchor-0"/>
  <outline>
    <contour>
      <point x="187" y="121" type="line"/>
      <point x="187" y="243" type="line"/>
      <point x="289" y="243" type="line" smooth="yes"/>
      <point x="328.221" y="243"/>
      <point x="356" y="217.709"/>
      <point x="356" y="182" type="curve" smooth="yes"/>
      <point x="356" y="146.291"/>
      <point x="328.221" y="121"/>
      <point x="289" y="121" type="curve" smooth="yes"/>
    </contour>
    <contour>
      <point x="54" y="0" type="line"/>
      <point x="298" y="0" type="line" smooth="yes"/>
      <point x="407.192" y="0"/>
      <point x="490" y="78.4948"/>
      <point x="490" y="182" type="curve" smooth="yes"/>
      <point x="490" y="285.505"/>
      <point x="407.192" y="364"/>
      <point x="298" y="364" type="curve" smooth="yes"/>
      <point x="187" y="364" type="line"/>
      <point x="187" y="554" type="line"/>
      <point x="54" y="554" type="line"/>
    </contour>
  </outline>
</glyph>
<glyph name="ereversedcyr" format="2">
  <advance width="619"/>
  <unicode hex="044D"/>
  <anchor x="298" y="630" name="Anchor-0"/>
  <outline>
    <contour>
      <point x="26" y="167" type="line"/>
      <point x="74.2207" y="51.4713"/>
      <point x="170.569" y="-13"/>
      <point x="295" y="-13" type="curve" smooth="yes"/>
      <point x="459.166" y="-13"/>
      <point x="591" y="116.162"/>
      <point x="591" y="277" type="curve" smooth="yes"/>
      <point x="591" y="439.938"/>
      <point x="463.062" y="567"/>
      <point x="299" y="567" type="curve" smooth="yes"/>
      <point x="175.189" y="567"/>
      <point x="73.1161" y="498.578"/>
      <point x="26" y="384" type="curve"/>
      <point x="179" y="384" type="line"/>
      <point x="205.606" y="425.387"/>
      <point x="244.189" y="445"/>
      <point x="299" y="445" type="curve" smooth="yes"/>
      <point x="371.333" y="445"/>
      <point x="428.814" y="403.614"/>
      <point x="449" y="337" type="curve"/>
      <point x="214" y="337" type="line"/>
      <point x="214" y="220" type="line"/>
      <point x="448" y="220" type="line"/>
      <point x="425.417" y="152.252"/>
      <point x="366.189" y="109"/>
      <point x="296" y="109" type="curve" smooth="yes"/>
      <point x="247.345" y="109"/>
      <point x="212.221" y="126.714"/>
      <point x="181" y="167" type="curve"/>
    </contour>
  </outline>
</glyph>
<glyph name="yucyr" format="2">
  <advance width="871"/>
  <unicode hex="044E"/>
  <anchor x="470" y="630" name="Anchor-0"/>
  <outline>
    <contour>
      <point x="544" y="105" type="curve" smooth="yes"/>
      <point x="453.709" y="105"/>
      <point x="380" y="182.305"/>
      <point x="380" y="277" type="curve" smooth="yes"/>
      <point x="380" y="370.716"/>
      <point x="453.733" y="449"/>
      <point x="542" y="449" type="curve" smooth="yes"/>
      <point x="635.318" y="449"/>
      <point x="709" y="372.671"/>
      <point x="709" y="276" type="curve" smooth="yes"/>
      <point x="709" y="181.845"/>
      <point x="634.851" y="105"/>
    </contour>
    <contour>
      <point x="54" y="0" type="line"/>
      <point x="187" y="0" type="line"/>
      <point x="187" y="219" type="line"/>
      <point x="252" y="219" type="line"/>
      <point x="279.546" y="82.2907"/>
      <point x="402.818" y="-17"/>
      <point x="545" y="-17" type="curve" smooth="yes"/>
      <point x="708.874" y="-17"/>
      <point x="843" y="114.876"/>
      <point x="843" y="276" type="curve" smooth="yes"/>
      <point x="843" y="438.225"/>
      <point x="709.775" y="571"/>
      <point x="547" y="571" type="curve" smooth="yes"/>
      <point x="404.364" y="571"/>
      <point x="282.489" y="475.241"/>
      <point x="253" y="340" type="curve"/>
      <point x="187" y="340" type="line"/>
      <point x="187" y="554" type="line"/>
      <point x="54" y="554" type="line"/>
    </contour>
  </outline>
</glyph>
<glyph name="iegravecyr" format="2">
  <advance width="634"/>
  <unicode hex="0450"/>
  <anchor x="324" y="840" name="Anchor-0"/>
  <outline>
    <component base="e"/>
    <contour>
      <point x="141" y="737" type="line"/>
      <point x="367" y="613" type="line"/>
      <point x="420" y="692" type="line"/>
      <point x="198" y="825" type="line"/>
    </contour>
  </outline>
</glyph>
<glyph name="eukrcyr" format="2">
  <advance width="619"/>
  <unicode hex="0454"/>
  <anchor x="321" y="630" name="Anchor-0"/>
  <outline>
    <contour>
      <point x="168" y="337" type="line"/>
      <point x="188.186" y="403.614"/>
      <point x="245.667" y="445"/>
      <point x="318" y="445" type="curve" smooth="yes"/>
      <point x="372.811" y="445"/>
      <point x="411.394" y="425.387"/>
      <point x="438" y="384" type="curve"/>
      <point x="591" y="384" type="line"/>
      <point x="543.884" y="498.578"/>
      <point x="441.811" y="567"/>
      <point x="318" y="567" type="curve" smooth="yes"/>
      <point x="153.938" y="567"/>
      <point x="26" y="439.938"/>
      <point x="26" y="277" type="curve" smooth="yes"/>
      <point x="26" y="116.162"/>
      <point x="157.834" y="-13"/>
      <point x="322" y="-13" type="curve" smooth="yes"/>
      <point x="446.431" y="-13"/>
      <point x="542.779" y="51.4713"/>
      <point x="591" y="167" type="curve"/>
      <point x="436" y="167" type="line"/>
      <point x="404.779" y="126.714"/>
      <point x="369.655" y="109"/>
      <point x="321" y="109" type="curve" smooth="yes"/>
      <point x="250.811" y="109"/>
      <point x="191.583" y="152.252"/>
      <point x="169" y="220" type="curve"/>
      <point x="403" y="220" type="line"/>
      <point x="403" y="337" type="line"/>
    </contour>
  </outline>
</glyph>
<glyph name="ljecyr" format="2">
  <advance width="813"/>
  <unicode hex="0459"/>
  <anchor x="419" y="630" name="Anchor-0"/>
  <outline>
    <contour>
      <point x="2" y="0" type="line"/>
      <point x="154" y="0" type="line"/>
      <point x="355" y="334" type="line"/>
      <point x="355" y="0" type="line"/>
      <point x="599" y="0" type="line" smooth="yes"/>
      <point x="708.192" y="0"/>
      <point x="791" y="78.4948"/>
      <point x="791" y="182" type="curve" smooth="yes"/>
      <point x="791" y="285.505"/>
      <point x="708.192" y="364"/>
      <point x="599" y="364" type="curve" smooth="yes"/>
      <point x="488" y="364" type="line"/>
      <point x="488" y="554" type="line"/>
      <point x="355" y="554" type="line"/>
    </contour>
    <contour>
      <point x="488" y="121" type="line"/>
      <point x="488" y="243" type="line"/>
      <point x="590" y="243" type="line" smooth="yes"/>
      <point x="629.221" y="243"/>
      <point x="657" y="217.709"/>
      <point x="657" y="182" type="curve" smooth="yes"/>
      <point x="657" y="146.291"/>
      <point x="629.221" y="121"/>
      <point x="590" y="121" type="curve" smooth="yes"/>
    </contour>
  </outline>
</glyph>
<glyph name="njecyr" format="2">
  <advance width="877"/>
  <unicode hex="045A"/>
  <anchor x="476" y="630" name="Anchor-0"/>
  <outline>
    <contour>
      <point x="54" y="0" type="line"/>
      <point x="187" y="0" type="line"/>
      <point x="187" y="219" type="line"/>
      <point x="419" y="219" type="line"/>
      <point x="419" y="0" type="line"/>
      <point x="663" y="0" type="line" smooth="yes"/>
      <point x="772.192" y="0"/>
      <point x="855" y="78.4948"/>
      <point x="855" y="182" type="curve" smooth="yes"/>
      <point x="855" y="285.505"/>
      <point x="772.192" y="364"/>
      <point x="663" y="364" type="curve" smooth="yes"/>
      <point x="552" y="364" type="line"/>
      <point x="552" y="554" type="line"/>
      <point x="419" y="554" type="line"/>
      <point x="419" y="340" type="line"/>
      <point x="187" y="340" type="line"/>
      <point x="187" y="554" type="line"/>
      <point x="54" y="554" type="line"/>
    </contour>
    <contour>
      <point x="552" y="121" type="line"/>
      <point x="552" y="243" type="line"/>
      <point x="654" y="243" type="line" smooth="yes"/>
      <point x="693.221" y="243"/>
      <point x="721" y="217.709"/>
      <point x="721" y="182" type="curve" smooth="yes"/>
      <point x="721" y="146.291"/>
      <point x="693.221" y="121"/>
      <point x="654" y="121" type="curve" smooth="yes"/>
    </contour>
  </outline>
</glyph>
<glyph name="tshecyr" format="2">
  <advance width="675"/>
  <unicode hex="045B"/>
  <anchor x="368" y="805" name="Anchor-0"/>
  <outline>
    <contour>
      <point x="13" y="671" type="line"/>
      <point x="13" y="554" type="line"/>
      <point x="405" y="554" type="line"/>
      <point x="405" y="671" type="line"/>
    </contour>
    <contour>
      <point x="131" y="0" type="line"/>
      <point x="264" y="0" type="line"/>
      <point x="264" y="182.902" type="line" smooth="yes"/>
      <point x="264" y="294.686"/>
      <point x="301.251" y="346.902"/>
      <point x="381" y="346.902" type="curve" smooth="yes"/>
      <point x="459" y="346.902"/>
      <point x="489" y="301.902"/>
      <point x="489" y="184.902" type="curve" smooth="yes"/>
      <point x="489" y="0" type="line"/>
      <point x="622" y="0" type="line"/>
      <point x="622" y="214.902" type="line" smooth="yes"/>
      <point x="622" y="383.73"/>
      <point x="548.67" y="469.902"/>
      <point x="405" y="469.902" type="curve" smooth="yes"/>
      <point x="347.192" y="469.902"/>
      <point x="304.134" y="454.022"/>
      <point x="264" y="417.902" type="curve"/>
      <point x="264" y="739" type="line"/>
      <point x="131" y="739" type="line"/>
    </contour>
  </outline>
  <guideline angle="0" x="0" y="470"/>
</glyph>
<glyph name="omegacyr" format="2">
  <advance width="916"/>
  <unicode hex="0461"/>
  <outline>
    <contour>
      <point x="60" y="547" type="line"/>
      <point x="60" y="357" type="line" smooth="yes"/>
      <point x="60" y="215.506"/>
      <point x="107.791" y="110.253"/>
      <point x="228" y="-13" type="curve"/>
      <point x="311.495" y="19.8922"/>
      <point x="400.527" y="96.142"/>
      <point x="430" y="160" type="curve"/>
      <point x="446.296" y="114.735"/>
      <point x="505.706" y="48.425"/>
      <point x="585" y="-13" type="curve"/>
      <point x="743.16" y="50.7035"/>
      <point x="857" y="205.559"/>
      <point x="857" y="357" type="curve" smooth="yes"/>
      <point x="857" y="547" type="line"/>
      <point x="724" y="547" type="line"/>
      <point x="724" y="357" type="line" smooth="yes"/>
      <point x="724" y="250.09"/>
      <point x="695.035" y="170.681"/>
      <point x="635" y="113" type="curve"/>
      <point x="567.947" y="163.29"/>
      <point x="526" y="251.032"/>
      <point x="526" y="341" type="curve" smooth="yes"/>
      <point x="526" y="547" type="line"/>
      <point x="524" y="547" type="line"/>
      <point x="395" y="547" type="line"/>
      <point x="393" y="547" type="line"/>
      <point x="393" y="341" type="line" smooth="yes"/>
      <point x="393" y="257.978"/>
      <point x="349.298" y="171.335"/>
      <point x="278" y="113" type="curve"/>
      <point x="233.738" y="140.822"/>
      <point x="193" y="257.765"/>
      <point x="193" y="357" type="curve" smooth="yes"/>
      <point x="193" y="547" type="line"/>
    </contour>
  </outline>
</glyph>
<glyph name="Eiotifiedcyr" format="2">
  <advance width="995"/>
  <unicode hex="0464"/>
  <outline>
    <contour>
      <point x="60" y="0" type="line"/>
      <point x="197" y="0" type="line"/>
      <point x="197" y="310" type="line"/>
      <point x="237" y="310" type="line"/>
      <point x="268.444" y="124.38"/>
      <point x="429.7" y="-10"/>
      <point x="621" y="-10" type="curve" smooth="yes"/>
      <point x="773.103" y="-10"/>
      <point x="904.039" y="74.0911"/>
      <point x="962" y="209" type="curve"/>
      <point x="801" y="209" type="line"/>
      <point x="740.221" y="146.228"/>
      <point x="689.259" y="122"/>
      <point x="618" y="122" type="curve" smooth="yes"/>
      <point x="505.564" y="122"/>
      <point x="406.653" y="199.48"/>
      <point x="378" y="310" type="curve"/>
      <point x="742" y="310" type="line"/>
      <point x="742" y="441" type="line"/>
      <point x="379" y="441" type="line"/>
      <point x="408.663" y="552.236"/>
      <point x="500.423" y="623"/>
      <point x="615" y="623" type="curve" smooth="yes"/>
      <point x="700.796" y="623"/>
      <point x="758.881" y="595.155"/>
      <point x="809" y="530" type="curve"/>
      <point x="962" y="530" type="line"/>
      <point x="898.505" y="669.033"/>
      <point x="764.778" y="755"/>
      <point x="612" y="755" type="curve" smooth="yes"/>
      <point x="427.994" y="755"/>
      <point x="269.513" y="621.944"/>
      <point x="238" y="441" type="curve"/>
      <point x="197" y="441" type="line"/>
      <point x="197" y="739" type="line"/>
      <point x="60" y="739" type="line"/>
    </contour>
  </outline>
</glyph>
<glyph name="yuslittleiotifiedcyr" format="2">
  <advance width="866"/>
  <unicode hex="0469"/>
  <outline>
    <contour>
      <point x="54" y="0" type="line"/>
      <point x="187" y="0" type="line"/>
      <point x="187" y="101" type="line"/>
      <point x="305" y="101" type="line"/>
      <point x="263" y="0" type="line"/>
      <point x="405" y="0" type="line"/>
      <point x="441" y="93" type="line"/>
      <point x="479" y="73" type="line"/>
      <point x="479" y="0" type="line"/>
      <point x="612" y="0" type="line"/>
      <point x="612" y="70" type="line"/>
      <point x="652" y="91" type="line"/>
      <point x="687" y="0" type="line"/>
      <point x="829" y="0" type="line"/>
      <point x="598" y="554" type="line"/>
      <point x="494" y="554" type="line"/>
      <point x="356" y="222" type="line"/>
      <point x="187" y="222" type="line"/>
      <point x="187" y="554" type="line"/>
      <point x="54" y="554" type="line"/>
    </contour>
    <contour>
      <point x="479" y="194" type="line"/>
      <point x="546" y="368" type="line"/>
      <point x="613" y="192" type="line"/>
      <point x="546" y="157" type="line"/>
    </contour>
  </outline>
</glyph>
<glyph name="yusbigcyr" format="2">
  <advance width="753"/>
  <unicode hex="046B"/>
  <anchor x="347" y="623" name="Anchor-0"/>
  <outline>
    <contour>
      <point x="174" y="0" type="line"/>
      <point x="174" y="81.0716"/>
      <point x="245.897" y="172"/>
      <point x="310" y="172" type="curve"/>
      <point x="310" y="0" type="line"/>
      <point x="443" y="0" type="line"/>
      <point x="443" y="172" type="line"/>
      <point x="510.166" y="172"/>
      <point x="579" y="84.9451"/>
      <point x="579" y="0" type="curve"/>
      <point x="723" y="0" type="line"/>
      <point x="723" y="141.341"/>
      <point x="616.641" y="281"/>
      <point x="509" y="281" type="curve"/>
      <point x="628" y="446" type="line"/>
      <point x="628" y="554" type="line"/>
      <point x="122" y="554" type="line"/>
      <point x="122" y="446" type="line"/>
      <point x="243" y="281" type="line"/>
      <point x="141.586" y="281"/>
      <point x="30" y="133.79"/>
      <point x="30" y="0" type="curve"/>
    </contour>
    <contour>
      <point x="385" y="299" type="line"/>
      <point x="294" y="434" type="line"/>
      <point x="482" y="434" type="line"/>
    </contour>
  </outline>
</glyph>
<glyph name="yusbigiotifiedcyr" format="2">
  <advance width="967"/>
  <unicode hex="046D"/>
  <outline>
    <contour>
      <point x="54" y="0" type="line"/>
      <point x="187" y="0" type="line"/>
      <point x="187" y="219" type="line"/>
      <point x="311" y="219" type="line"/>
      <point x="257.658" y="160.809"/>
      <point x="220" y="70.1813"/>
      <point x="220" y="0" type="curve"/>
      <point x="364" y="0" type="line"/>
      <point x="364" y="80.7941"/>
      <point x="436.116" y="172"/>
      <point x="500" y="172" type="curve"/>
      <point x="500" y="0" type="line"/>
      <point x="633" y="0" type="line"/>
      <point x="633" y="172" type="line"/>
      <point x="700.047" y="172"/>
      <point x="769" y="84.7941"/>
      <point x="769" y="0" type="curve"/>
      <point x="913" y="0" type="line"/>
      <point x="913" y="141.442"/>
      <point x="806.717" y="281"/>
      <point x="699" y="281" type="curve"/>
      <point x="818" y="446" type="line"/>
      <point x="818" y="554" type="line"/>
      <point x="312" y="554" type="line"/>
      <point x="312" y="446" type="line"/>
      <point x="390" y="340" type="line"/>
      <point x="187" y="340" type="line"/>
      <point x="187" y="554" type="line"/>
      <point x="54" y="554" type="line"/>
    </contour>
    <contour>
      <point x="575" y="299" type="line"/>
      <point x="484" y="434" type="line"/>
      <point x="672" y="434" type="line"/>
    </contour>
  </outline>
</glyph>
<glyph name="Ksicyr" format="2">
  <advance width="587"/>
  <unicode hex="046E"/>
  <outline>
    <contour>
      <point x="265" y="-169" type="line"/>
      <point x="223.06" y="-133.176"/>
      <point x="202" y="-96.4048"/>
      <point x="202" y="-59" type="curve" smooth="yes"/>
      <point x="202" y="-30.05"/>
      <point x="216.826" y="-13"/>
      <point x="242" y="-13" type="curve" smooth="yes"/>
      <point x="282" y="-13" type="line" smooth="yes"/>
      <point x="408.147" y="-13"/>
      <point x="512" y="88.1435"/>
      <point x="512" y="211" type="curve" smooth="yes"/>
      <point x="512" y="300.75"/>
      <point x="464.82" y="389.212"/>
      <point x="408" y="406" type="curve"/>
      <point x="451.851" y="422.444"/>
      <point x="483" y="485.573"/>
      <point x="483" y="558" type="curve" smooth="yes"/>
      <point x="483" y="650.688"/>
      <point x="407.45" y="731.756"/>
      <point x="305" y="749" type="curve"/>
      <point x="428" y="878" type="line"/>
      <point x="297" y="878" type="line"/>
      <point x="249" y="814" type="line"/>
      <point x="203" y="878" type="line"/>
      <point x="74" y="878" type="line"/>
      <point x="191" y="752" type="line"/>
      <point x="92" y="752" type="line"/>
      <point x="92" y="620" type="line"/>
      <point x="249" y="620" type="line" smooth="yes"/>
      <point x="304.297" y="620"/>
      <point x="350" y="586.515"/>
      <point x="350" y="546" type="curve" smooth="yes"/>
      <point x="350" y="500.485"/>
      <point x="304.643" y="462"/>
      <point x="251" y="462" type="curve" smooth="yes"/>
      <point x="168" y="462" type="line"/>
      <point x="168" y="342" type="line"/>
      <point x="256" y="342" type="line"/>
      <point x="324.064" y="336.328"/>
      <point x="374" y="281.737"/>
      <point x="374" y="213" type="curve" smooth="yes"/>
      <point x="374" y="160.634"/>
      <point x="319.521" y="119"/>
      <point x="251" y="119" type="curve" smooth="yes"/>
      <point x="171" y="119" type="line" smooth="yes"/>
      <point x="115.485" y="119"/>
      <point x="70" y="57.302"/>
      <point x="70" y="-18" type="curve" smooth="yes"/>
      <point x="70" y="-69.9091"/>
      <point x="88.456" y="-120.579"/>
      <point x="125" y="-169" type="curve"/>
    </contour>
  </outline>
</glyph>
<glyph name="ksicyr" format="2">
  <advance width="531"/>
  <unicode hex="046F"/>
  <outline>
    <contour>
      <point x="260" y="-169" type="line"/>
      <point x="218.06" y="-133.176"/>
      <point x="197" y="-96.4048"/>
      <point x="197" y="-59" type="curve" smooth="yes"/>
      <point x="197" y="-30.05"/>
      <point x="211.826" y="-13"/>
      <point x="237" y="-13" type="curve" smooth="yes"/>
      <point x="310" y="-13" type="line" smooth="yes"/>
      <point x="404.112" y="-13"/>
      <point x="481" y="67.0351"/>
      <point x="481" y="165" type="curve" smooth="yes"/>
      <point x="481" y="224.727"/>
      <point x="448.271" y="273.059"/>
      <point x="395" y="292" type="curve"/>
      <point x="425.495" y="307.74"/>
      <point x="447" y="356.125"/>
      <point x="447" y="409" type="curve" smooth="yes"/>
      <point x="447" y="486.692"/>
      <point x="385.243" y="557"/>
      <point x="317" y="557" type="curve"/>
      <point x="430" y="686" type="line"/>
      <point x="319" y="686" type="line"/>
      <point x="264" y="627" type="line"/>
      <point x="215" y="686" type="line"/>
      <point x="86" y="686" type="line"/>
      <point x="203" y="560" type="line"/>
      <point x="118" y="560" type="line"/>
      <point x="118" y="438" type="line"/>
      <point x="256" y="438" type="line" smooth="yes"/>
      <point x="290.082" y="438"/>
      <point x="318" y="415.935"/>
      <point x="318" y="389" type="curve" smooth="yes"/>
      <point x="318" y="351.81"/>
      <point x="295.95" y="329"/>
      <point x="260" y="329" type="curve" smooth="yes"/>
      <point x="184" y="329" type="line"/>
      <point x="184" y="241" type="line"/>
      <point x="260" y="241" type="line" smooth="yes"/>
      <point x="311.25" y="241"/>
      <point x="347" y="215.523"/>
      <point x="347" y="179" type="curve" smooth="yes"/>
      <point x="347" y="139.955"/>
      <point x="312.95" y="109"/>
      <point x="270" y="109" type="curve" smooth="yes"/>
      <point x="169" y="109" type="line" smooth="yes"/>
      <point x="113.744" y="109"/>
      <point x="68" y="49.6683"/>
      <point x="68" y="-22" type="curve" smooth="yes"/>
      <point x="68" y="-72.4545"/>
      <point x="86.245" y="-121.219"/>
      <point x="123" y="-169" type="curve"/>
    </contour>
  </outline>
</glyph>
<glyph name="psicyr" format="2">
  <advance width="722"/>
  <unicode hex="0471"/>
  <outline>
    <contour>
      <point x="290" y="-192" type="line"/>
      <point x="423" y="-192" type="line"/>
      <point x="423" y="-12" type="line"/>
      <point x="610.383" y="0.75382"/>
      <point x="692" y="96.0242"/>
      <point x="692" y="302" type="curve" smooth="yes"/>
      <point x="692" y="378.462"/>
      <point x="661.325" y="494.082"/>
      <point x="627" y="547" type="curve"/>
      <point x="489" y="547" type="line"/>
      <point x="526.319" y="495.133"/>
      <point x="559" y="380.75"/>
      <point x="559" y="302" type="curve" smooth="yes"/>
      <point x="559" y="177.353"/>
      <point x="517.789" y="119.173"/>
      <point x="423" y="110" type="curve"/>
      <point x="423" y="547" type="line"/>
      <point x="290" y="547" type="line"/>
      <point x="290" y="110" type="line"/>
      <point x="205.139" y="117.628"/>
      <point x="163" y="164.744"/>
      <point x="163" y="252" type="curve" smooth="yes"/>
      <point x="163" y="547" type="line"/>
      <point x="30" y="547" type="line"/>
      <point x="30" y="252" type="line" smooth="yes"/>
      <point x="30" y="88.6615"/>
      <point x="119.485" y="-2.20029"/>
      <point x="290" y="-12" type="curve"/>
    </contour>
  </outline>
</glyph>
<glyph name="Izhitsacyr" format="2">
  <advance width="733"/>
  <unicode hex="0474"/>
  <anchor x="371" y="805" name="Anchor-0"/>
  <outline>
    <contour>
      <point x="292" y="0" type="line"/>
      <point x="404" y="0" type="line"/>
      <point x="612.211" y="538" type="line" smooth="yes"/>
      <point x="628.803" y="580.874"/>
      <point x="663.598" y="608"/>
      <point x="702" y="608" type="curve" smooth="yes"/>
      <point x="720" y="608" type="line"/>
      <point x="720" y="739" type="line"/>
      <point x="690" y="739" type="line" smooth="yes"/>
      <point x="594.448" y="739"/>
      <point x="527.773" y="687.525"/>
      <point x="491.824" y="586" type="curve" smooth="yes"/>
      <point x="347" y="177" type="line"/>
      <point x="148" y="739" type="line"/>
      <point x="4" y="739" type="line"/>
    </contour>
  </outline>
</glyph>
<glyph name="Izhitsagravedblcyr" format="2">
  <advance width="804"/>
  <unicode hex="0476"/>
  <outline>
    <contour>
      <point x="41" y="936" type="line"/>
      <point x="267" y="812" type="line"/>
      <point x="320" y="891" type="line"/>
      <point x="98" y="1024" type="line"/>
    </contour>
    <contour>
      <point x="311" y="936" type="line"/>
      <point x="537" y="812" type="line"/>
      <point x="590" y="891" type="line"/>
      <point x="368" y="1024" type="line"/>
    </contour>
    <contour>
      <point x="332" y="0" type="line"/>
      <point x="444" y="0" type="line"/>
      <point x="652" y="538" type="line" smooth="yes"/>
      <point x="668.562" y="580.838"/>
      <point x="703.484" y="608"/>
      <point x="742" y="608" type="curve" smooth="yes"/>
      <point x="760" y="608" type="line"/>
      <point x="760" y="739" type="line"/>
      <point x="730" y="739" type="line" smooth="yes"/>
      <point x="634.554" y="739"/>
      <point x="568.013" y="687.582"/>
      <point x="532" y="586" type="curve" smooth="yes"/>
      <point x="387" y="177" type="line"/>
      <point x="188" y="739" type="line"/>
      <point x="44" y="739" type="line"/>
    </contour>
  </outline>
</glyph>
<glyph name="omegaroundcyr" format="2">
  <advance width="645"/>
  <unicode hex="047B"/>
  <outline>
    <contour>
      <point x="218" y="6" type="curve"/>
      <point x="239.398" y="-32.721"/>
      <point x="278.823" y="-56"/>
      <point x="323" y="-56" type="curve" smooth="yes"/>
      <point x="367.331" y="-56"/>
      <point x="407.217" y="-32.4478"/>
      <point x="428" y="6" type="curve"/>
      <point x="541.753" y="49.433"/>
      <point x="617" y="156.929"/>
      <point x="617" y="276" type="curve" smooth="yes"/>
      <point x="617" y="395.273"/>
      <point x="542.516" y="503.613"/>
      <point x="430" y="548" type="curve"/>
      <point x="408.982" y="587.934"/>
      <point x="369.875" y="612"/>
      <point x="326" y="612" type="curve" smooth="yes"/>
      <point x="279.641" y="612"/>
      <point x="237.734" y="587.394"/>
      <point x="217" y="548" type="curve"/>
      <point x="102.268" y="504.975"/>
      <point x="28" y="398.093"/>
      <point x="28" y="276" type="curve" smooth="yes"/>
      <point x="28" y="156.132"/>
      <point x="104.022" y="48.0999"/>
    </contour>
    <contour>
      <point x="228" y="141" type="curve"/>
      <point x="186.22" y="173.379"/>
      <point x="162" y="223.288"/>
      <point x="162" y="277" type="curve" smooth="yes"/>
      <point x="162" y="330.396"/>
      <point x="186.949" y="381.41"/>
      <point x="229" y="414" type="curve"/>
      <point x="251.218" y="384.712"/>
      <point x="285.37" y="368"/>
      <point x="323" y="368" type="curve" smooth="yes"/>
      <point x="360.244" y="368"/>
      <point x="394.544" y="384.42"/>
      <point x="417" y="413" type="curve"/>
      <point x="458.91" y="380.52"/>
      <point x="483" y="330.515"/>
      <point x="483" y="276" type="curve" smooth="yes"/>
      <point x="483" y="222.769"/>
      <point x="459.375" y="174.066"/>
      <point x="418" y="142" type="curve"/>
      <point x="396.716" y="171.392"/>
      <point x="363.5" y="188"/>
      <point x="326" y="188" type="curve" smooth="yes"/>
      <point x="286.266" y="188"/>
      <point x="250.724" y="170.954"/>
    </contour>
  </outline>
</glyph>
<glyph name="Omegatitlocyr" format="2">
  <advance width="860"/>
  <unicode hex="047C"/>
  <outline>
    <contour>
      <point x="361" y="277" type="line"/>
      <point x="361" y="191" type="line" smooth="yes"/>
      <point x="361" y="154.781"/>
      <point x="324.722" y="119"/>
      <point x="288" y="119" type="curve" smooth="yes"/>
      <point x="229.718" y="119"/>
      <point x="197" y="157.83"/>
      <point x="197" y="227" type="curve" smooth="yes"/>
      <point x="197" y="497" type="line" smooth="yes"/>
      <point x="197" y="559.267"/>
      <point x="229.545" y="607"/>
      <point x="272" y="607" type="curve" smooth="yes"/>
      <point x="301" y="607" type="line"/>
      <point x="301" y="739" type="line"/>
      <point x="201" y="739" type="line" smooth="yes"/>
      <point x="114.636" y="739"/>
      <point x="60" y="645.227"/>
      <point x="60" y="497" type="curve" smooth="yes"/>
      <point x="60" y="227" type="line" smooth="yes"/>
      <point x="60" y="73.9615"/>
      <point x="135.367" y="-13"/>
      <point x="268" y="-13" type="curve" smooth="yes"/>
      <point x="329.387" y="-13"/>
      <point x="390.827" y="22.2709"/>
      <point x="430" y="80" type="curve"/>
      <point x="468.198" y="20.5814"/>
      <point x="524.167" y="-13"/>
      <point x="585" y="-13" type="curve" smooth="yes"/>
      <point x="731.302" y="-13"/>
      <point x="800" y="63.686"/>
      <point x="800" y="227" type="curve" smooth="yes"/>
      <point x="800" y="497" type="line" smooth="yes"/>
      <point x="800" y="661.316"/>
      <point x="754.738" y="739"/>
      <point x="659" y="739" type="curve" smooth="yes"/>
      <point x="559" y="739" type="line"/>
      <point x="559" y="607" type="line"/>
      <point x="589" y="607" type="line" smooth="yes"/>
      <point x="634.573" y="607"/>
      <point x="663" y="564.743"/>
      <point x="663" y="497" type="curve" smooth="yes"/>
      <point x="663" y="227" type="line" smooth="yes"/>
      <point x="663" y="148.841"/>
      <point x="638.685" y="119"/>
      <point x="575" y="119" type="curve" smooth="yes"/>
      <point x="544.319" y="119"/>
      <point x="498" y="162.312"/>
      <point x="498" y="191" type="curve" smooth="yes"/>
      <point x="498" y="277" type="line"/>
    </contour>
    <contour>
      <point x="164" y="800" type="line"/>
      <point x="301" y="800" type="line"/>
      <point x="301" y="820" type="line" smooth="yes"/>
      <point x="301" y="871.458"/>
      <point x="336.384" y="902"/>
      <point x="396" y="902" type="curve" smooth="yes"/>
      <point x="476" y="902"/>
      <point x="548" y="800"/>
      <point x="659" y="800" type="curve" smooth="yes"/>
      <point x="698" y="800" type="line"/>
      <point x="698" y="934" type="line"/>
      <point x="660" y="934" type="line" smooth="yes"/>
      <point x="580" y="934"/>
      <point x="509" y="1035"/>
      <point x="384" y="1035" type="curve" smooth="yes"/>
      <point x="257.844" y="1035"/>
      <point x="164" y="944.995"/>
      <point x="164" y="824" type="curve" smooth="yes"/>
    </contour>
    <contour>
      <point x="332" y="607" type="curve"/>
      <point x="446" y="607" type="line"/>
      <point x="494.997" y="646.81"/>
      <point x="527" y="700.938"/>
      <point x="527" y="744" type="curve" smooth="yes"/>
      <point x="527" y="757" type="line" smooth="yes"/>
      <point x="527" y="806.139"/>
      <point x="492.981" y="836"/>
      <point x="437" y="836" type="curve" smooth="yes"/>
      <point x="433" y="836" type="line" smooth="yes"/>
      <point x="380.625" y="836"/>
      <point x="346" y="802.569"/>
      <point x="346" y="752" type="curve" smooth="yes"/>
      <point x="346" y="721.812"/>
      <point x="371" y="689"/>
      <point x="394" y="689" type="curve" smooth="yes"/>
      <point x="398" y="689" type="line"/>
      <point x="398" y="667"/>
      <point x="374.706" y="638.059"/>
    </contour>
  </outline>
</glyph>
<glyph name="otcyr" format="2">
  <advance width="917"/>
  <unicode hex="047F"/>
  <outline>
    <contour>
      <point x="60" y="547" type="line"/>
      <point x="60" y="357" type="line" smooth="yes"/>
      <point x="60" y="215.506"/>
      <point x="107.791" y="110.253"/>
      <point x="228" y="-13" type="curve"/>
      <point x="312.021" y="22.6453"/>
      <point x="400.793" y="103.068"/>
      <point x="430" y="170" type="curve"/>
      <point x="446.321" y="121.944"/>
      <point x="505.859" y="51.6505"/>
      <point x="585" y="-13" type="curve"/>
      <point x="743.683" y="50.9138"/>
      <point x="857" y="205.059"/>
      <point x="857" y="357" type="curve" smooth="yes"/>
      <point x="857" y="547" type="line"/>
      <point x="724" y="547" type="line"/>
      <point x="724" y="357" type="line" smooth="yes"/>
      <point x="724" y="254.455"/>
      <point x="695.051" y="178.341"/>
      <point x="635" y="123" type="curve"/>
      <point x="579.195" y="163.11"/>
      <point x="526" y="269.5"/>
      <point x="526" y="341" type="curve" smooth="yes"/>
      <point x="526" y="547" type="line"/>
      <point x="393" y="547" type="line"/>
      <point x="393" y="341" type="line" smooth="yes"/>
      <point x="393" y="261.87"/>
      <point x="349.043" y="178.543"/>
      <point x="278" y="123" type="curve"/>
      <point x="233.792" y="149.525"/>
      <point x="193" y="261.824"/>
      <point x="193" y="357" type="curve" smooth="yes"/>
      <point x="193" y="547" type="line"/>
    </contour>
    <contour>
      <point x="108" y="637" type="line"/>
      <point x="241" y="637" type="line"/>
      <point x="241" y="675" type="line"/>
      <point x="393" y="675" type="line"/>
      <point x="393" y="597" type="line"/>
      <point x="526" y="597" type="line"/>
      <point x="526" y="675" type="line"/>
      <point x="678" y="675" type="line"/>
      <point x="678" y="637" type="line"/>
      <point x="811" y="637" type="line"/>
      <point x="811" y="772" type="line"/>
      <point x="108" y="772" type="line"/>
    </contour>
  </outline>
</glyph>
<glyph name="dasiacombcyr" format="2">
  <unicode hex="0485"/>
  <outline>
    <contour>
      <point x="-67" y="607" type="line"/>
      <point x="-109.706" y="638.059"/>
      <point x="-133" y="667"/>
      <point x="-133" y="689" type="curve"/>
      <point x="-129" y="689" type="line" smooth="yes"/>
      <point x="-106" y="689"/>
      <point x="-81" y="721.812"/>
      <point x="-81" y="752" type="curve" smooth="yes"/>
      <point x="-81" y="802.569"/>
      <point x="-115.625" y="836"/>
      <point x="-168" y="836" type="curve" smooth="yes"/>
      <point x="-172" y="836" type="line" smooth="yes"/>
      <point x="-227.981" y="836"/>
      <point x="-262" y="806.139"/>
      <point x="-262" y="757" type="curve" smooth="yes"/>
      <point x="-262" y="744" type="line" smooth="yes"/>
      <point x="-262" y="700.938"/>
      <point x="-229.997" y="646.81"/>
      <point x="-181" y="607" type="curve"/>
    </contour>
  </outline>
</glyph>
<glyph name="psilicombcyr" format="2">
  <unicode hex="0486"/>
  <outline>
    <contour>
      <point x="-196" y="689" type="line"/>
      <point x="-196" y="667"/>
      <point x="-219.294" y="638.059"/>
      <point x="-262" y="607" type="curve"/>
      <point x="-148" y="607" type="line"/>
      <point x="-99.0026" y="646.81"/>
      <point x="-67" y="700.938"/>
      <point x="-67" y="744" type="curve" smooth="yes"/>
      <point x="-67" y="757" type="line" smooth="yes"/>
      <point x="-67" y="806.139"/>
      <point x="-101.019" y="836"/>
      <point x="-157" y="836" type="curve" smooth="yes"/>
      <point x="-161" y="836" type="line" smooth="yes"/>
      <point x="-213.375" y="836"/>
      <point x="-248" y="802.569"/>
      <point x="-248" y="752" type="curve" smooth="yes"/>
      <point x="-248" y="721.812"/>
      <point x="-223" y="689"/>
      <point x="-200" y="689" type="curve" smooth="yes"/>
    </contour>
  </outline>
</glyph>
<glyph name="bullet" format="2">
  <advance width="600"/>
  <unicode hex="2022"/>
  <outline>
    <contour>
      <point x="299" y="147" type="curve" smooth="yes"/>
      <point x="392.5" y="147"/>
      <point x="468" y="222.5"/>
      <point x="468" y="316" type="curve" smooth="yes"/>
      <point x="468" y="408.048"/>
      <point x="392.952" y="484"/>
      <point x="302" y="484" type="curve" smooth="yes"/>
      <point x="206.444" y="484"/>
      <point x="131" y="409.439"/>
      <point x="131" y="315" type="curve" smooth="yes"/>
      <point x="131" y="223"/>
      <point x="207" y="147"/>
    </contour>
  </outline>
</glyph>
<glyph name="Euro" format="2">
  <advance width="761"/>
  <unicode hex="20AC"/>
  <outline>
    <contour>
      <point x="17" y="206" type="line"/>
      <point x="168" y="206" type="line"/>
      <point x="232.388" y="72.0318"/>
      <point x="367.507" y="-13"/>
      <point x="516" y="-13" type="curve" smooth="yes"/>
      <point x="583.3" y="-13"/>
      <point x="648.549" y="4.17073"/>
      <point x="706" y="37" type="curve"/>
      <point x="706" y="209" type="line"/>
      <point x="659.453" y="152.109"/>
      <point x="589.556" y="119"/>
      <point x="516" y="119" type="curve" smooth="yes"/>
      <point x="444.04" y="119"/>
      <point x="375.985" y="150.662"/>
      <point x="329" y="206" type="curve"/>
      <point x="593" y="206" type="line"/>
      <point x="636" y="329" type="line"/>
      <point x="272" y="329" type="line"/>
      <point x="269.976" y="342.159"/>
      <point x="269" y="355.167"/>
      <point x="269" y="369" type="curve" smooth="yes"/>
      <point x="269" y="381" type="line"/>
      <point x="655" y="381" type="line"/>
      <point x="698" y="504" type="line"/>
      <point x="308" y="504" type="line"/>
      <point x="353.48" y="576.354"/>
      <point x="431.741" y="620"/>
      <point x="516" y="620" type="curve" smooth="yes"/>
      <point x="589.962" y="620"/>
      <point x="659.725" y="586.587"/>
      <point x="706" y="529" type="curve"/>
      <point x="755" y="669" type="line"/>
      <point x="686.531" y="722.945"/>
      <point x="602.867" y="752"/>
      <point x="516" y="752" type="curve" smooth="yes"/>
      <point x="355.758" y="752"/>
      <point x="212.683" y="653.437"/>
      <point x="156" y="504" type="curve"/>
      <point x="62" y="504" type="line"/>
      <point x="19" y="381" type="line"/>
      <point x="131" y="381" type="line"/>
      <point x="131" y="369" type="line" smooth="yes"/>
      <point x="131" y="355"/>
      <point x="132" y="342"/>
      <point x="133" y="329" type="curve"/>
      <point x="60" y="329" type="line"/>
    </contour>
  </outline>
</glyph>
<glyph name="ruble" format="2">
  <advance width="560"/>
  <unicode hex="20BD"/>
  <outline>
    <contour>
      <point x="221" y="424" type="line"/>
      <point x="221" y="608" type="line"/>
      <point x="262" y="608" type="line" smooth="yes"/>
      <point x="362.655" y="608"/>
      <point x="398" y="583.57"/>
      <point x="398" y="514" type="curve" smooth="yes"/>
      <point x="398" y="451.052"/>
      <point x="355.618" y="424"/>
      <point x="257" y="424" type="curve" smooth="yes"/>
    </contour>
    <contour>
      <point x="84" y="0" type="line"/>
      <point x="221" y="0" type="line"/>
      <point x="221" y="124" type="line"/>
      <point x="413" y="124" type="line"/>
      <point x="413" y="255" type="line"/>
      <point x="221" y="255" type="line"/>
      <point x="221" y="293" type="line"/>
      <point x="262" y="293" type="line" smooth="yes"/>
      <point x="454.034" y="293"/>
      <point x="536" y="360.008"/>
      <point x="536" y="517" type="curve" smooth="yes"/>
      <point x="536" y="668.868"/>
      <point x="450.073" y="739"/>
      <point x="264" y="739" type="curve" smooth="yes"/>
      <point x="84" y="739" type="line"/>
      <point x="84" y="424" type="line"/>
      <point x="24" y="424" type="line"/>
      <point x="24" y="293" type="line"/>
      <point x="84" y="293" type="line"/>
      <point x="84" y="255" type="line"/>
      <point x="24" y="255" type="line"/>
      <point x="24" y="124" type="line"/>
      <point x="84" y="124" type="line"/>
    </contour>
  </outline>
</glyph>
<glyph name="six.fitted" format="2">
  <advance width="566"/>
  <unicode hex="E006"/>
  <anchor x="283" y="805" name="Anchor-0"/>
  <outline>
    <contour>
      <point x="293" y="739" type="line"/>
      <point x="100" y="449" type="line" smooth="yes"/>
      <point x="46.2508" y="368.237"/>
      <point x="27" y="313.649"/>
      <point x="27" y="242" type="curve" smooth="yes"/>
      <point x="27" y="95.1506"/>
      <point x="136.847" y="-13"/>
      <point x="286" y="-13" type="curve" smooth="yes"/>
      <point x="433.991" y="-13"/>
      <point x="539" y="96.9901"/>
      <point x="539" y="252" type="curve" smooth="yes"/>
      <point x="539" y="387.676"/>
      <point x="453.282" y="486"/>
      <point x="335" y="486" type="curve" smooth="yes"/>
      <point x="310.5" y="486"/>
      <point x="297.54" y="483.84"/>
      <point x="275" y="476" type="curve"/>
      <point x="452" y="739" type="line"/>
    </contour>
    <contour>
      <point x="287" y="109" type="curve" smooth="yes"/>
      <point x="212.377" y="109"/>
      <point x="160" y="162.614"/>
      <point x="160" y="239" type="curve" smooth="yes"/>
      <point x="160" y="315.208"/>
      <point x="210.191" y="370"/>
      <point x="280" y="370" type="curve" smooth="yes"/>
      <point x="354.531" y="370"/>
      <point x="406" y="316.488"/>
      <point x="406" y="239" type="curve" smooth="yes"/>
      <point x="406" y="162.265"/>
      <point x="357.242" y="109"/>
    </contour>
  </outline>
</glyph>
<glyph name="seven.fitted" format="2">
  <advance width="481"/>
  <unicode hex="E007"/>
  <anchor x="239" y="805" name="Anchor-0"/>
  <outline>
    <contour>
      <point x="39" y="0" type="line"/>
      <point x="189" y="0" type="line"/>
      <point x="459" y="614" type="line"/>
      <point x="459" y="739" type="line"/>
      <point x="24" y="739" type="line"/>
      <point x="24" y="614" type="line"/>
      <point x="319" y="614" type="line"/>
    </contour>
  </outline>
</glyph>
<glyph name="nine.fitted" format="2">
  <advance width="564"/>
  <unicode hex="E009"/>
  <anchor x="282" y="805" name="Anchor-0"/>
  <outline>
    <contour>
      <point x="112" y="0" type="line"/>
      <point x="271" y="0" type="line"/>
      <point x="464" y="290" type="line" smooth="yes"/>
      <point x="517.494" y="370.379"/>
      <point x="537" y="425.424"/>
      <point x="537" y="496" type="curve" smooth="yes"/>
      <point x="537" y="643.137"/>
      <point x="426.861" y="752"/>
      <point x="278" y="752" type="curve" smooth="yes"/>
      <point x="131.094" y="752"/>
      <point x="27" y="642.1"/>
      <point x="27" y="487" type="curve" smooth="yes"/>
      <point x="27" y="352.571"/>
      <point x="114.369" y="251"/>
      <point x="230" y="251" type="curve" smooth="yes"/>
      <point x="252" y="251"/>
      <point x="264.857" y="253.571"/>
      <point x="290" y="263" type="curve"/>
    </contour>
    <contour>
      <point x="283" y="369" type="curve" smooth="yes"/>
      <point x="210.851" y="369"/>
      <point x="160" y="423.159"/>
      <point x="160" y="500" type="curve" smooth="yes"/>
      <point x="160" y="576.103"/>
      <point x="208.092" y="630"/>
      <point x="276" y="630" type="curve" smooth="yes"/>
      <point x="351.908" y="630"/>
      <point x="404" y="577.094"/>
      <point x="404" y="500" type="curve" smooth="yes"/>
      <point x="404" y="423.607"/>
      <point x="353.561" y="369"/>
    </contour>
  </outline>
</glyph>
<glyph name="breve.cyrlc" format="2">
  <advance width="470"/>
  <unicode hex="E080"/>
  <outline>
    <contour>
      <point x="70" y="746" type="line"/>
      <point x="84.3779" y="659.733"/>
      <point x="139.885" y="616"/>
      <point x="235" y="616" type="curve" smooth="yes"/>
      <point x="330.115" y="616"/>
      <point x="385.622" y="659.733"/>
      <point x="400" y="746" type="curve"/>
      <point x="299" y="746" type="line"/>
      <point x="299" y="696.039"/>
      <point x="280.035" y="675"/>
      <point x="235" y="675" type="curve" smooth="yes"/>
      <point x="189.965" y="675"/>
      <point x="171" y="696.039"/>
      <point x="171" y="746" type="curve"/>
    </contour>
  </outline>
</glyph>
<glyph name="brevecomb.cyr" format="2">
  <unicode hex="E082"/>
  <anchor x="-323" y="840" name="Anchor-1"/>
  <anchor x="-323" y="630" name="_Anchor-1"/>
  <anchor x="-323" y="630" name="_Anchor-0"/>
  <outline>
    <contour>
      <point x="-488" y="746" type="line"/>
      <point x="-473.622" y="659.733"/>
      <point x="-418.115" y="616"/>
      <point x="-323" y="616" type="curve" smooth="yes"/>
      <point x="-227.885" y="616"/>
      <point x="-172.378" y="659.733"/>
      <point x="-158" y="746" type="curve"/>
      <point x="-259" y="746" type="line"/>
      <point x="-259" y="696.039"/>
      <point x="-277.965" y="675"/>
      <point x="-323" y="675" type="curve" smooth="yes"/>
      <point x="-368.035" y="675"/>
      <point x="-387" y="696.039"/>
      <point x="-387" y="746" type="curve"/>
    </contour>
  </outline>
</glyph>
<glyph name="j.dotless" format="2">
  <advance width="255"/>
  <unicode hex="E091"/>
  <anchor x="134" y="630" name="Anchor-0"/>
  <outline>
    <contour>
      <point x="13" y="-185" type="line"/>
      <point x="63.251" y="-185"/>
      <point x="108.294" y="-168.24"/>
      <point x="142" y="-137" type="curve" smooth="yes"/>
      <point x="183.021" y="-98.9806"/>
      <point x="201" y="-45.9576"/>
      <point x="201" y="37" type="curve" smooth="yes"/>
      <point x="201" y="554" type="line"/>
      <point x="68" y="554" type="line"/>
      <point x="68" y="40" type="line" smooth="yes"/>
      <point x="68" y="-38.1364"/>
      <point x="62.9129" y="-47.0157"/>
      <point x="13" y="-56" type="curve"/>
    </contour>
  </outline>
</glyph>
<glyph name="becyr.serbian" format="2">
  <advance width="645"/>
  <unicode hex="E0A0"/>
  <anchor x="315" y="840" name="Anchor-0"/>
  <outline>
    <contour>
      <point x="216" y="498" type="line"/>
      <point x="101.616" y="469.944"/>
      <point x="28" y="377.532"/>
      <point x="28" y="262" type="curve" smooth="yes"/>
      <point x="28" y="109.767"/>
      <point x="159.249" y="-13"/>
      <point x="322" y="-13" type="curve" smooth="yes"/>
      <point x="485.027" y="-13"/>
      <point x="617" y="110.025"/>
      <point x="617" y="262" type="curve" smooth="yes"/>
      <point x="617" y="379.427"/>
      <point x="546.621" y="460.633"/>
      <point x="383" y="532" type="curve" smooth="yes"/>
      <point x="195" y="614" type="line" smooth="yes"/>
      <point x="176.044" y="622.268"/>
      <point x="170" y="629.037"/>
      <point x="170" y="642" type="curve" smooth="yes"/>
      <point x="170" y="655.1"/>
      <point x="180.114" y="664"/>
      <point x="195" y="664" type="curve" smooth="yes"/>
      <point x="584" y="664" type="line"/>
      <point x="584" y="781" type="line"/>
      <point x="195" y="781" type="line" smooth="yes"/>
      <point x="110.665" y="781"/>
      <point x="46" y="724.581"/>
      <point x="46" y="651" type="curve" smooth="yes"/>
      <point x="46" y="592.683"/>
      <point x="84.1536" y="547.042"/>
      <point x="153" y="523" type="curve" smooth="yes"/>
      <point x="216" y="501" type="line"/>
    </contour>
    <contour>
      <point x="162" y="262" type="curve" smooth="yes"/>
      <point x="162" y="347.331"/>
      <point x="233.344" y="416"/>
      <point x="322" y="416" type="curve" smooth="yes"/>
      <point x="410.932" y="416"/>
      <point x="483" y="347.065"/>
      <point x="483" y="262" type="curve" smooth="yes"/>
      <point x="483" y="177.211"/>
      <point x="411.222" y="109"/>
      <point x="322" y="109" type="curve" smooth="yes"/>
      <point x="233.056" y="109"/>
      <point x="162" y="176.947"/>
    </contour>
  </outline>
</glyph>
<glyph name="f_f" format="2">
  <advance width="566"/>
  <unicode hex="FB00"/>
  <outline>
    <contour>
      <point x="68" y="0" type="line"/>
      <point x="201" y="0" type="line"/>
      <point x="201" y="433" type="line"/>
      <point x="340" y="433" type="line"/>
      <point x="340" y="0" type="line"/>
      <point x="473" y="0" type="line"/>
      <point x="473" y="433" type="line"/>
      <point x="548" y="433" type="line"/>
      <point x="548" y="544" type="line"/>
      <point x="473" y="544" type="line"/>
      <point x="474.273" y="588.495"/>
      <point x="502.152" y="611"/>
      <point x="556" y="611" type="curve"/>
      <point x="556" y="737" type="line"/>
      <point x="419.963" y="737"/>
      <point x="352.942" y="677.115"/>
      <point x="340" y="544" type="curve"/>
      <point x="201" y="544" type="line"/>
      <point x="202.273" y="588.495"/>
      <point x="230.152" y="611"/>
      <point x="284" y="611" type="curve"/>
      <point x="284" y="737" type="line"/>
      <point x="147.963" y="737"/>
      <point x="80.9418" y="677.115"/>
      <point x="68" y="544" type="curve"/>
      <point x="20" y="544" type="line"/>
      <point x="20" y="433" type="line"/>
      <point x="68" y="433" type="line"/>
    </contour>
  </outline>
</glyph>
<glyph name="fi" format="2">
  <advance width="527"/>
  <unicode hex="FB01"/>
  <outline>
    <contour>
      <point x="68" y="0" type="line"/>
      <point x="201" y="0" type="line"/>
      <point x="201" y="433" type="line"/>
      <point x="276" y="433" type="line"/>
      <point x="276" y="544" type="line"/>
      <point x="201" y="544" type="line"/>
      <point x="201.873" y="587.634"/>
      <point x="230.819" y="611"/>
      <point x="284" y="611" type="curve"/>
      <point x="284" y="737" type="line"/>
      <point x="148.598" y="737"/>
      <point x="80.8814" y="676.494"/>
      <point x="68" y="544" type="curve"/>
      <point x="20" y="544" type="line"/>
      <point x="20" y="433" type="line"/>
      <point x="68" y="433" type="line"/>
    </contour>
    <contour>
      <point x="340" y="0" type="line"/>
      <point x="473" y="0" type="line"/>
      <point x="473" y="554" type="line"/>
      <point x="340" y="554" type="line"/>
    </contour>
    <contour>
      <point x="340" y="614" type="line"/>
      <point x="473" y="614" type="line"/>
      <point x="473" y="739" type="line"/>
      <point x="340" y="739" type="line"/>
    </contour>
  </outline>
</glyph>
<glyph name="fl" format="2">
  <advance width="527"/>
  <unicode hex="FB02"/>
  <outline>
    <contour>
      <point x="68" y="0" type="line"/>
      <point x="201" y="0" type="line"/>
      <point x="201" y="433" type="line"/>
      <point x="276" y="433" type="line"/>
      <point x="276" y="544" type="line"/>
      <point x="201" y="544" type="line"/>
      <point x="201.904" y="589.184"/>
      <point x="228.93" y="611"/>
      <point x="284" y="611" type="curve"/>
      <point x="284" y="737" type="line"/>
      <point x="148.598" y="737"/>
      <point x="80.8814" y="676.494"/>
      <point x="68" y="544" type="curve"/>
      <point x="20" y="544" type="line"/>
      <point x="20" y="433" type="line"/>
      <point x="68" y="433" type="line"/>
    </contour>
    <contour>
      <point x="340" y="0" type="line"/>
      <point x="473" y="0" type="line"/>
      <point x="473" y="739" type="line"/>
      <point x="340" y="739" type="line"/>
    </contour>
  </outline>
</glyph>
<glyph name="f_f_i" format="2">
  <advance width="799"/>
  <unicode hex="FB03"/>
  <outline>
    <contour>
      <point x="68" y="0" type="line"/>
      <point x="201" y="0" type="line"/>
      <point x="201" y="433" type="line"/>
      <point x="340" y="433" type="line"/>
      <point x="340" y="0" type="line"/>
      <point x="473" y="0" type="line"/>
      <point x="473" y="433" type="line"/>
      <point x="548" y="433" type="line"/>
      <point x="548" y="544" type="line"/>
      <point x="473" y="544" type="line"/>
      <point x="474.327" y="586.905"/>
      <point x="504.176" y="611"/>
      <point x="556" y="611" type="curve"/>
      <point x="556" y="737" type="line"/>
      <point x="420.598" y="737"/>
      <point x="352.881" y="676.494"/>
      <point x="340" y="544" type="curve"/>
      <point x="201" y="544" type="line"/>
      <point x="202.327" y="586.905"/>
      <point x="232.176" y="611"/>
      <point x="284" y="611" type="curve"/>
      <point x="284" y="737" type="line"/>
      <point x="148.598" y="737"/>
      <point x="80.8814" y="676.494"/>
      <point x="68" y="544" type="curve"/>
      <point x="20" y="544" type="line"/>
      <point x="20" y="433" type="line"/>
      <point x="68" y="433" type="line"/>
    </contour>
    <contour>
      <point x="612" y="0" type="line"/>
      <point x="745" y="0" type="line"/>
      <point x="745" y="554" type="line"/>
      <point x="612" y="554" type="line"/>
    </contour>
    <contour>
      <point x="612" y="614" type="line"/>
      <point x="745" y="614" type="line"/>
      <point x="745" y="739" type="line"/>
      <point x="612" y="739" type="line"/>
    </contour>
  </outline>
</glyph>
<glyph name="gecyr.loclBGR" format="2">
  <advance width="438"/>
  <anchor x="203" y="623" name="Anchor-0"/>
  <outline>
    <contour>
      <point x="282" y="176" type="line"/>
      <point x="282" y="135.345"/>
      <point x="252.903" y="109"/>
      <point x="208" y="109" type="curve" smooth="yes"/>
      <point x="173.278" y="109"/>
      <point x="148" y="131.75"/>
      <point x="148" y="163" type="curve" smooth="yes"/>
      <point x="148" y="199.417"/>
      <point x="180.904" y="211.645"/>
      <point x="231.672" y="230.539" type="curve" smooth="yes"/>
      <point x="350.658" y="274.82"/>
      <point x="396" y="321.027"/>
      <point x="396" y="398" type="curve" smooth="yes"/>
      <point x="396" y="493.261"/>
      <point x="315.716" y="567"/>
      <point x="212" y="567" type="curve" smooth="yes"/>
      <point x="107.648" y="567"/>
      <point x="30" y="496.178"/>
      <point x="30" y="401" type="curve"/>
      <point x="160" y="401" type="line"/>
      <point x="160" y="428.846"/>
      <point x="179.091" y="445"/>
      <point x="212" y="445" type="curve" smooth="yes"/>
      <point x="241.149" y="445"/>
      <point x="263" y="427.005"/>
      <point x="263" y="403" type="curve" smooth="yes"/>
      <point x="263" y="378.101"/>
      <point x="237.474" y="360.45"/>
      <point x="169" y="338" type="curve" smooth="yes"/>
      <point x="61.1947" y="302.655"/>
      <point x="15" y="254.06"/>
      <point x="15" y="176" type="curve" smooth="yes"/>
      <point x="15" y="70.0227"/>
      <point x="101.976" y="-13"/>
      <point x="213" y="-13" type="curve" smooth="yes"/>
      <point x="334.328" y="-13"/>
      <point x="416" y="63.0396"/>
      <point x="416" y="176" type="curve"/>
    </contour>
  </outline>
  <guideline angle="120" x="364.774" y="0"/>
</glyph>
<glyph name="hardcyr.loclBGR" format="2">
  <advance width="734"/>
  <anchor x="222" y="623" name="Anchor-0"/>
  <outline>
    <contour>
      <point x="12" y="433" type="line"/>
      <point x="126" y="433" type="line"/>
      <point x="126" y="232" type="line" smooth="yes"/>
      <point x="126" y="84.8397"/>
      <point x="238.615" y="-13"/>
      <point x="408" y="-13" type="curve" smooth="yes"/>
      <point x="578.258" y="-13"/>
      <point x="692" y="85.1222"/>
      <point x="692" y="232" type="curve" smooth="yes"/>
      <point x="692" y="378.193"/>
      <point x="584.771" y="485"/>
      <point x="438" y="485" type="curve" smooth="yes"/>
      <point x="368.621" y="485"/>
      <point x="292.256" y="460.683"/>
      <point x="259" y="428" type="curve"/>
      <point x="259" y="554" type="line"/>
      <point x="12" y="554" type="line"/>
    </contour>
    <contour>
      <point x="259" y="232" type="curve" smooth="yes"/>
      <point x="259" y="309.403"/>
      <point x="322.007" y="363"/>
      <point x="413" y="363" type="curve" smooth="yes"/>
      <point x="498.284" y="363"/>
      <point x="558" y="309.05"/>
      <point x="558" y="232" type="curve" smooth="yes"/>
      <point x="558" y="156.287"/>
      <point x="502.255" y="109"/>
      <point x="413" y="109" type="curve" smooth="yes"/>
      <point x="320.816" y="109"/>
      <point x="259" y="158.372"/>
    </contour>
  </outline>
</glyph>
<glyph name="ishortcyr.loclBGR" format="2">
  <advance width="599"/>
  <outline>
    <component base="u"/>
    <contour>
      <point x="143" y="746" type="line"/>
      <point x="157.378" y="659.733"/>
      <point x="212.885" y="616"/>
      <point x="308" y="616" type="curve" smooth="yes"/>
      <point x="403.115" y="616"/>
      <point x="458.622" y="659.733"/>
      <point x="473" y="746" type="curve"/>
      <point x="372" y="746" type="line"/>
      <point x="372" y="696.039"/>
      <point x="353.035" y="675"/>
      <point x="308" y="675" type="curve" smooth="yes"/>
      <point x="262.965" y="675"/>
      <point x="244" y="696.039"/>
      <point x="244" y="746" type="curve"/>
    </contour>
  </outline>
</glyph>
